<?xml version="1.0" standalone="no"?>
<!DOCTYPE svg PUBLIC "-//W3C//DTD SVG 1.1//EN" "http://www.w3.org/Graphics/SVG/1.1/DTD/svg11.dtd" >
<svg xmlns="http://www.w3.org/2000/svg" xmlns:xlink="http://www.w3.org/1999/xlink" version="1.1">
<metadata>
Created by FontForge 20190801 at Fri Sep  1 09:11:10 2023
 By www-data
Copyright 2022 The Mona Sans Project Authors (https://github.com/github/mona-sans), with Reserved Font Name "Mona"
</metadata>
<defs>
<font id="MonaSansExpandedMedium" horiz-adv-x="901" >
  <font-face 
    font-family="MonaSansExpandedMedium"
    font-weight="500"
    font-stretch="expanded"
    units-per-em="1000"
    panose-1="0 0 0 0 0 0 0 0 0 0"
    ascent="800"
    descent="-200"
    x-height="529"
    cap-height="729"
    bbox="-228 -232 1332 1005"
    underline-thickness="50"
    underline-position="-125"
    unicode-range="U+0020-FB02"
  />
<missing-glyph horiz-adv-x="865" 
d="M432 738q160 0 271.5 -112t111.5 -270q0 -126 -72.5 -226.5t-187.5 -137.5q-12 -3 -19.5 2t-7.5 16v105q0 49 -26 71q37 4 64.5 13t54.5 29t41.5 57t14.5 91q0 59 -40 101q19 47 -4 102q-31 11 -104 -40q-45 14 -97 14q-51 0 -96 -14q-32 23 -58 33t-36 8l-10 -1
q-23 -55 -4 -102q-40 -42 -40 -101q0 -53 14.5 -90t41.5 -57t54.5 -29.5t64.5 -13.5q-20 -19 -26 -52q-74 -32 -109 31q-22 38 -60 41q-4 0 -8 -1t-8.5 -6t15.5 -17q24 -11 40 -56q1 -3 3.5 -7t12 -15.5t23 -17t37 -10.5t54.5 4v-70q0 -11 -7 -16t-18 -2q-116 37 -189 137
t-73 227q0 158 111.5 270t270.5 112zM196 189q-1 -4 -8 -2q-4 3 -3 5q0 8 6 0q5 0 5 -3zM209 171q-1 -1 -7 1q-2 2 -2.5 4.5t0.5 3.5q5 3 9 -1q2 -7 0 -8zM227 148q-6 -4 -11 3q-2 2 -2 5.5t2 4.5q5 3 11 -3q2 -7 0 -10zM246 127q-1 -2 -4.5 -1t-4.5 3q-6 6 -3 10q5 3 10 -2
q5 -7 2 -10zM274 115q-2 -5 -10 -3q-5 2 -5 8q2 6 10 3q5 -3 5 -8zM334 118q3 -5 -7 -7q-8 0 -8 4q-2 2 0.5 4.5t6.5 2.5q8 2 8 -4zM305 114q0 -6 -7 -9q-7 0 -7 9q0 4 7 4t7 -4z" />
    <glyph glyph-name="fl" unicode="fl" horiz-adv-x="621" 
d="M113 0v440h-100v89h100v55q0 145 169 145h80v-79h-62q-72 0 -72 -71v-50h221v200h116v-729h-116v440h-221v-440h-115z" />
    <glyph glyph-name="f_f.liga" unicode="ff" horiz-adv-x="691" 
d="M113 0v440h-100v89h100v55q0 145 169 145h80v-79h-62q-72 0 -72 -71v-50h207v55q0 145 170 145h80v-79h-62q-72 0 -72 -71v-50h127v-89h-127v-440h-116v440h-207v-440h-115z" />
    <glyph glyph-name="t_t.liga" unicode="tt" horiz-adv-x="729" 
d="M252 0q-61 0 -95 29t-34 86v325h-107v89h107v147l114 23v-170h218v147l114 23v-170h139v-89h-139v-290q0 -28 14 -39t45 -11h80v-100h-124q-61 0 -95 29t-34 86v325h-218v-290q0 -28 14 -39t45 -11h80v-100h-124z" />
    <glyph glyph-name=".notdef" horiz-adv-x="865" 
d="M432 738q160 0 271.5 -112t111.5 -270q0 -126 -72.5 -226.5t-187.5 -137.5q-12 -3 -19.5 2t-7.5 16v105q0 49 -26 71q37 4 64.5 13t54.5 29t41.5 57t14.5 91q0 59 -40 101q19 47 -4 102q-31 11 -104 -40q-45 14 -97 14q-51 0 -96 -14q-32 23 -58 33t-36 8l-10 -1
q-23 -55 -4 -102q-40 -42 -40 -101q0 -53 14.5 -90t41.5 -57t54.5 -29.5t64.5 -13.5q-20 -19 -26 -52q-74 -32 -109 31q-22 38 -60 41q-4 0 -8 -1t-8.5 -6t15.5 -17q24 -11 40 -56q1 -3 3.5 -7t12 -15.5t23 -17t37 -10.5t54.5 4v-70q0 -11 -7 -16t-18 -2q-116 37 -189 137
t-73 227q0 158 111.5 270t270.5 112zM196 189q-1 -4 -8 -2q-4 3 -3 5q0 8 6 0q5 0 5 -3zM209 171q-1 -1 -7 1q-2 2 -2.5 4.5t0.5 3.5q5 3 9 -1q2 -7 0 -8zM227 148q-6 -4 -11 3q-2 2 -2 5.5t2 4.5q5 3 11 -3q2 -7 0 -10zM246 127q-1 -2 -4.5 -1t-4.5 3q-6 6 -3 10q5 3 10 -2
q5 -7 2 -10zM274 115q-2 -5 -10 -3q-5 2 -5 8q2 6 10 3q5 -3 5 -8zM334 118q3 -5 -7 -7q-8 0 -8 4q-2 2 0.5 4.5t6.5 2.5q8 2 8 -4zM305 114q0 -6 -7 -9q-7 0 -7 9q0 4 7 4t7 -4z" />
    <glyph glyph-name=".null" horiz-adv-x="0" 
 />
    <glyph glyph-name="nonmarkingreturn" horiz-adv-x="333" 
 />
    <glyph glyph-name="space" unicode=" " horiz-adv-x="224" 
 />
    <glyph glyph-name="exclam" unicode="!" horiz-adv-x="196" 
d="M70 206l-27 283v240h109v-240l-26 -283h-56zM44 0v105h109v-105h-109z" />
    <glyph glyph-name="quotedbl" unicode="&#x22;" horiz-adv-x="435" 
d="M142 407h-49l-23 175v147h95v-147zM342 407h-48l-24 175v147h95v-147z" />
    <glyph glyph-name="numbersign" unicode="#" horiz-adv-x="737" 
d="M168 0v194h-140v82h140v191h-140v81h140v181h98v-181h210v181h97v-181h136v-81h-136v-191h136v-82h-136v-194h-97v194h-210v-194h-98zM266 276h210v191h-210v-191z" />
    <glyph glyph-name="dollar" unicode="$" horiz-adv-x="689" 
d="M303 -85v78q-137 9 -205 71t-71 165h124q7 -152 199 -152q188 0 188 119q0 28 -9 48.5t-23 33t-42.5 21.5t-55 14t-72.5 11q-152 20 -221.5 62t-69.5 143q0 91 69 145t189 62v78h82v-78q114 -10 179 -65.5t71 -147.5h-121q-9 130 -177 130q-82 0 -125.5 -30t-43.5 -82
q0 -60 42 -80.5t156 -35.5q76 -10 124 -22t90.5 -35.5t62 -63.5t19.5 -100q0 -94 -73.5 -149t-203.5 -63v-77h-82z" />
    <glyph glyph-name="percent" unicode="%" horiz-adv-x="932" 
d="M156 0l529 729h92l-530 -729h-91zM211 331q-86 0 -137.5 52t-51.5 145q0 94 51.5 145.5t137.5 51.5t137 -52t51 -145q0 -94 -51 -145.5t-137 -51.5zM211 400q104 0 104 128q0 65 -27.5 97t-76.5 32q-103 0 -103 -129q0 -128 103 -128zM723 -5q-87 0 -138 52t-51 145
q0 94 51.5 145.5t137.5 51.5t137 -51.5t51 -145.5t-51 -145.5t-137 -51.5zM722 64q50 0 77.5 32t27.5 96q0 65 -27.5 97t-76.5 32t-76.5 -32t-27.5 -97q0 -64 27 -96t76 -32z" />
    <glyph glyph-name="ampersand" unicode="&#x26;" horiz-adv-x="809" 
d="M267 -10q-104 0 -168 53t-64 141q0 71 44.5 128t126.5 85q-52 49 -74 85.5t-22 81.5q0 78 59.5 126.5t154.5 48.5q92 0 149 -45t57 -122q0 -64 -43.5 -110t-120.5 -71v-4l160 -149q27 64 32 151h180v-80h-105q-14 -76 -41 -134l184 -175h-146l-110 103
q-82 -113 -253 -113zM304 437h6q56 16 88 50t32 75q0 43 -28 67t-74 24q-47 0 -75.5 -25t-28.5 -66q0 -34 20 -62.5t60 -62.5zM151 203q0 -57 40 -91t104 -32q116 4 159 85l-189 177q-114 -39 -114 -139z" />
    <glyph glyph-name="quotesingle" unicode="'" horiz-adv-x="235" 
d="M142 407h-49l-23 175v147h95v-147z" />
    <glyph glyph-name="parenleft" unicode="(" horiz-adv-x="336" 
d="M234 -167q-86 77 -135.5 207.5t-49.5 272.5t49.5 272.5t135.5 207.5h94q-79 -80 -125 -211t-46 -269q0 -141 47 -271t124 -209h-94z" />
    <glyph glyph-name="parenright" unicode=")" horiz-adv-x="336" 
d="M102 793q86 -77 135.5 -207.5t49.5 -272.5t-49.5 -272.5t-135.5 -207.5h-94q79 80 125 211t46 269q0 141 -47 271t-124 209h94z" />
    <glyph glyph-name="asterisk" unicode="*" horiz-adv-x="349" 
d="M147 428v55l13 70l-54 -46l-49 -27l-27 46l48 28l65 25l-65 25l-47 26l26 46l49 -26l54 -44l-13 69v54h54v-54l-13 -69l56 44l49 26l25 -46l-47 -26l-65 -25l65 -25l47 -28l-25 -46l-49 27l-56 46l13 -70v-55h-54z" />
    <glyph glyph-name="plus" unicode="+" horiz-adv-x="651" 
d="M276 107v208h-204v92h204v208h99v-208h205v-92h-205v-208h-99z" />
    <glyph glyph-name="comma" unicode="," horiz-adv-x="202" 
d="M31 -159v58l19 1q47 1 47 57v43h-54v105h117v-154q0 -105 -95 -110h-34z" />
    <glyph glyph-name="hyphen" unicode="-" horiz-adv-x="401" 
d="M42 219v90h317v-90h-317z" />
    <glyph glyph-name="period" unicode="." horiz-adv-x="201" 
d="M42 0v105h117v-105h-117z" />
    <glyph glyph-name="slash" unicode="/" horiz-adv-x="507" 
d="M6 -81l383 810h111l-382 -810h-112z" />
    <glyph glyph-name="zero" unicode="0" horiz-adv-x="799" 
d="M400 -10q-161 0 -257 97t-96 273q0 177 95.5 273t257.5 96q160 0 256 -96.5t96 -272.5q0 -177 -95.5 -273.5t-256.5 -96.5zM400 86q112 0 173 70t61 204t-61 203.5t-173 69.5q-113 0 -174 -69t-61 -204t61 -204.5t174 -69.5z" />
    <glyph glyph-name="one" unicode="1" horiz-adv-x="385" 
d="M200 0v515h-179v86h33q70 0 107.5 32t42.5 88h113v-721h-117z" />
    <glyph glyph-name="two" unicode="2" horiz-adv-x="654" 
d="M42 0v24q0 74 46.5 132t112.5 95.5t132 72t112.5 80.5t46.5 103q0 64 -44.5 97.5t-115.5 33.5q-82 0 -128 -40t-48 -108h-112q6 117 83 178.5t209 61.5q128 0 200.5 -59.5t72.5 -159.5q0 -68 -40.5 -123t-99.5 -90.5t-119 -66.5t-106 -67t-54 -75h427v-89h-575z" />
    <glyph glyph-name="three" unicode="3" horiz-adv-x="695" 
d="M346 -9q-146 0 -224.5 62t-80.5 170h115q1 -71 52 -107.5t139 -36.5q97 0 146.5 34.5t49.5 96.5q0 121 -174 121h-99v79h91q86 0 127 31.5t41 86.5q0 57 -47.5 85.5t-130.5 28.5q-82 0 -132 -37.5t-53 -104.5h-112q1 108 83.5 168.5t217.5 60.5q136 0 214 -48t78 -141
q0 -64 -41 -107.5t-109 -55.5v-6q76 -8 120.5 -53t44.5 -118q0 -97 -84 -153t-232 -56z" />
    <glyph glyph-name="four" unicode="4" horiz-adv-x="706" 
d="M460 0v174h-429v84l397 463h149v-455h112l-1 -92h-111v-174h-117zM156 266h304v349z" />
    <glyph glyph-name="five" unicode="5" horiz-adv-x="704" 
d="M350 -9q-141 0 -220.5 62t-82.5 167h115q2 -65 53.5 -102t136.5 -37q97 0 147.5 42t50.5 114q0 76 -50.5 115.5t-142.5 39.5q-65 0 -114.5 -22.5t-72.5 -59.5h-108l22 411h541v-92h-434l-15 -221l6 -2q29 32 84.5 51.5t117.5 19.5q136 0 210 -63t74 -176
q0 -118 -87 -182.5t-231 -64.5z" />
    <glyph glyph-name="six" unicode="6" horiz-adv-x="728" 
d="M374 -8q-327 0 -327 335q0 402 341 402q126 0 200 -52.5t87 -139.5h-114q-11 50 -58 76t-118 26q-125 0 -173 -74t-50 -217l7 -1q23 55 86.5 88t146.5 33q135 0 210 -61.5t75 -169.5q0 -115 -85 -180t-228 -65zM377 81q94 0 143.5 41.5t49.5 113.5q0 73 -51 111.5
t-140 38.5q-91 0 -144 -43.5t-53 -111.5q0 -73 52.5 -111.5t142.5 -38.5z" />
    <glyph glyph-name="seven" unicode="7" horiz-adv-x="623" 
d="M222 0q0 352 252 627h-366v-141h-89v235h585v-80q-141 -156 -202.5 -305t-61.5 -336h-118z" />
    <glyph glyph-name="eight" unicode="8" horiz-adv-x="687" 
d="M344 -8q-151 0 -232.5 53t-81.5 150q0 74 49 121.5t126 53.5v5q-73 11 -115.5 54t-42.5 110q0 97 81.5 143.5t215.5 46.5t216 -47t82 -143q0 -67 -43 -110t-116 -54v-5q76 -5 125 -53t49 -122q0 -97 -81 -150t-232 -53zM344 409q181 0 181 116q0 59 -48.5 87.5
t-132.5 28.5q-85 0 -133 -28.5t-48 -87.5q0 -116 181 -116zM344 80q96 0 145.5 32.5t49.5 94.5q0 123 -195 123t-195 -123q0 -62 50 -94.5t145 -32.5z" />
    <glyph glyph-name="nine" unicode="9" horiz-adv-x="729" 
d="M350 -8q-123 0 -202 50.5t-92 141.5h114q11 -50 58.5 -76t119.5 -26q120 0 171 73t48 218l-7 1q-24 -58 -86.5 -89.5t-146.5 -31.5q-135 0 -210 61.5t-75 168.5q0 116 84.5 181t227.5 65q328 0 328 -349q0 -388 -332 -388zM350 335q93 0 145 42.5t52 112.5
q0 71 -53 110.5t-142 39.5q-95 0 -144 -41.5t-49 -113.5q0 -74 50.5 -112t140.5 -38z" />
    <glyph glyph-name="colon" unicode=":" horiz-adv-x="201" 
d="M42 423v106h117v-106h-117zM42 0v105h117v-105h-117z" />
    <glyph glyph-name="semicolon" unicode=";" horiz-adv-x="202" 
d="M43 423v106h117v-106h-117zM31 -159v58l19 1q47 1 47 57v43h-54v105h117v-154q0 -105 -95 -110h-34z" />
    <glyph glyph-name="less" unicode="&#x3c;" horiz-adv-x="757" 
d="M651 91l-544 206v126l544 208v-112l-432 -154v-9l432 -153v-112z" />
    <glyph glyph-name="equal" unicode="=" horiz-adv-x="704" 
d="M103 441v93h498v-93h-498zM103 188v93h498v-93h-498z" />
    <glyph glyph-name="greater" unicode="&#x3e;" horiz-adv-x="757" 
d="M107 91v112l431 153v9l-431 154v112l544 -208v-126z" />
    <glyph glyph-name="question" unicode="?" horiz-adv-x="575" 
d="M234 196v14q0 39 20 73t48 60t56.5 52t48.5 60t20 72q0 58 -38 89t-104 31q-68 0 -106.5 -32.5t-41.5 -88.5h-110q5 102 76.5 157.5t188.5 55.5q120 0 187.5 -55t67.5 -148q0 -50 -21.5 -93t-51.5 -73t-60.5 -56t-52 -54t-21.5 -55v-9h-106zM232 0v109h113v-109h-113z
" />
    <glyph glyph-name="at" unicode="@" horiz-adv-x="963" 
d="M488 -101q-215 0 -335 113t-120 303q0 188 127 305.5t329 117.5q194 0 317.5 -103t123.5 -268q0 -118 -57 -190t-150 -72q-52 0 -86 25.5t-42 67.5h-5q-18 -44 -59 -67.5t-91 -23.5q-76 0 -125.5 50.5t-49.5 139.5q0 98 53 158t138 60q49 0 86.5 -22t51.5 -58h5l11 69h56
l-17 -208q-6 -67 14 -95t62 -28q58 0 92 51.5t34 136.5q0 136 -100 220.5t-261 84.5q-171 0 -272.5 -97.5t-101.5 -251.5q0 -167 101 -256.5t273 -89.5q144 0 237 64l31 -59q-43 -34 -118.5 -55.5t-151.5 -21.5zM454 175q60 0 92 38t37 104q-2 61 -33.5 96t-80.5 35
q-60 1 -92.5 -39.5t-32.5 -108.5q0 -59 30 -92t80 -33z" />
    <glyph glyph-name="A" unicode="A" horiz-adv-x="833" 
d="M6 0l332 729h155l333 -729h-130l-76 167h-409l-75 -167h-130zM247 259h338l-129 282l-38 88h-4l-38 -89z" />
    <glyph glyph-name="B" unicode="B" horiz-adv-x="744" 
d="M64 0v729h406q116 0 174 -49t58 -138q0 -62 -32 -105.5t-91 -56.5v-5q69 -12 106.5 -58t37.5 -114q0 -97 -68 -150t-190 -53h-401zM183 415h269q66 0 99 30t33 82q0 55 -38 85t-104 30h-259v-227zM183 87h264q78 0 116.5 33.5t38.5 92.5q0 57 -37.5 87.5t-107.5 30.5
h-274v-244z" />
    <glyph glyph-name="C" unicode="C" horiz-adv-x="833" 
d="M433 -9q-185 0 -292.5 102t-107.5 271q0 170 108 271.5t292 101.5q153 0 252 -68.5t118 -184.5h-121q-16 71 -84 113.5t-165 42.5q-130 0 -204 -73t-74 -203q0 -129 74 -202t204 -73q99 0 167 43t83 115l120 -1q-16 -116 -118 -185.5t-252 -69.5z" />
    <glyph glyph-name="D" unicode="D" horiz-adv-x="808" 
d="M64 0v729h333q180 0 279 -98.5t99 -266.5q0 -171 -101.5 -267.5t-276.5 -96.5h-333zM183 96h194q136 0 206.5 71.5t70.5 198.5q0 132 -74 199.5t-203 67.5h-194v-537z" />
    <glyph glyph-name="E" unicode="E" horiz-adv-x="692" 
d="M64 0v729h597v-97h-477v-216h428v-91h-428v-227h478v-98h-598z" />
    <glyph glyph-name="F" unicode="F" horiz-adv-x="669" 
d="M64 0v729h583v-97h-463v-230h423v-92h-423v-310h-120z" />
    <glyph glyph-name="G" unicode="G" horiz-adv-x="850" 
d="M429 -9q-182 0 -289 102t-107 271q0 170 108 271.5t292 101.5q152 0 252 -69t117 -184h-121q-17 73 -84 114t-164 41q-130 0 -205 -74t-75 -200q0 -129 75 -203t202 -74q120 0 190.5 57t75.5 156h-279v82h400v-47q0 -162 -108.5 -253.5t-279.5 -91.5z" />
    <glyph glyph-name="H" unicode="H" horiz-adv-x="840" 
d="M64 0v729h120v-311h473v311h120v-729h-120v321h-473v-321h-120z" />
    <glyph glyph-name="I" unicode="I" horiz-adv-x="247" 
d="M64 0v729h120v-729h-120z" />
    <glyph glyph-name="J" unicode="J" horiz-adv-x="437" 
d="M140 -9q-69 0 -107 19v97q29 -18 84 -18q68 0 102.5 33.5t34.5 110.5v496h119v-505q0 -233 -233 -233z" />
    <glyph glyph-name="K" unicode="K" horiz-adv-x="773" 
d="M64 0v729h118v-408l416 408h154l-322 -310l336 -419h-151l-271 338l-162 -157v-181h-118z" />
    <glyph glyph-name="L" unicode="L" horiz-adv-x="599" 
d="M64 0v729h120v-628h398v-101h-518z" />
    <glyph glyph-name="M" unicode="M" horiz-adv-x="970" 
d="M64 0v729h183l236 -582h5l236 582h183v-729h-113v341l2 267h-8l-249 -608h-109l-248 608h-7l2 -268v-340h-113z" />
    <glyph glyph-name="N" unicode="N" horiz-adv-x="842" 
d="M64 0v729h148l446 -576h7l-5 236v340h119v-729h-147l-446 574h-6l4 -228v-346h-120z" />
    <glyph glyph-name="O" unicode="O" horiz-adv-x="863" 
d="M432 -9q-184 0 -291.5 102t-107.5 271q0 170 107.5 271.5t291.5 101.5q183 0 290.5 -101.5t107.5 -271.5t-107.5 -271.5t-290.5 -101.5zM432 89q128 0 202.5 73.5t74.5 201.5q0 129 -74.5 202.5t-202.5 73.5q-129 0 -203 -73.5t-74 -202.5q0 -128 74.5 -201.5
t202.5 -73.5z" />
    <glyph glyph-name="P" unicode="P" horiz-adv-x="724" 
d="M64 0v729h362q135 0 204 -61t69 -170q0 -112 -73 -171.5t-201 -58.5h-241v-268h-120zM413 633h-229v-277h229q81 0 122.5 37t41.5 102q0 68 -42.5 103t-121.5 35z" />
    <glyph glyph-name="Q" unicode="Q" horiz-adv-x="863" 
d="M711 -172l-289 163q-180 3 -284.5 104.5t-104.5 268.5q0 170 107.5 271.5t291.5 101.5q183 0 290.5 -101.5t107.5 -271.5q0 -139 -78 -234t-213 -118l190 -91v-93h-18zM432 89q128 0 202.5 73.5t74.5 201.5q0 129 -74.5 202.5t-202.5 73.5q-129 0 -203 -73.5t-74 -202.5
q0 -128 74.5 -201.5t202.5 -73.5z" />
    <glyph glyph-name="R" unicode="R" horiz-adv-x="757" 
d="M64 0v729h416q117 0 185 -50.5t68 -153.5q0 -68 -34 -115t-98 -64v-7q115 -18 115 -145v-113q0 -53 11 -81h-120q-11 24 -11 82v95q0 59 -28 86.5t-102 27.5h-282v-291h-120zM184 380h273q154 0 154 132q0 123 -154 123h-273v-255z" />
    <glyph glyph-name="S" unicode="S" horiz-adv-x="720" 
d="M368 -9q-168 0 -252 64t-89 174h126q8 -152 219 -152q97 0 147 31.5t50 89.5q0 28 -10.5 48t-25 32t-46.5 21t-58.5 13.5t-77.5 11.5q-61 8 -103.5 16.5t-82.5 23.5t-64 36t-38.5 53t-14.5 75q0 99 83 154t227 55q141 0 221 -56.5t86 -157.5h-122q-9 129 -190 129
q-86 0 -134 -29.5t-48 -81.5q0 -26 9 -43.5t23 -29t44 -20t57.5 -13t78.5 -10.5q63 -8 105.5 -16t84.5 -24t66 -38t39 -57t15 -83q0 -102 -84 -159t-241 -57z" />
    <glyph glyph-name="T" unicode="T" horiz-adv-x="683" 
d="M281 0v631h-262v98h646v-98h-264v-631h-120z" />
    <glyph glyph-name="U" unicode="U" horiz-adv-x="787" 
d="M393 -9q-161 0 -250.5 76t-89.5 238v424h118v-422q0 -106 52.5 -160.5t169.5 -54.5q114 0 168.5 52.5t54.5 162.5v422h118v-424q0 -314 -341 -314z" />
    <glyph glyph-name="V" unicode="V" horiz-adv-x="847" 
d="M345 0l-339 729h132l253 -562l29 -69h6l28 69l254 562h132l-339 -729h-156z" />
    <glyph glyph-name="W" unicode="W" horiz-adv-x="1103" 
d="M221 0l-215 729h131l126 -449l38 -160h9l177 609h134l174 -611h8l40 165l126 446h127l-214 -729h-156l-171 585h-6l-172 -585h-156z" />
    <glyph glyph-name="X" unicode="X" horiz-adv-x="775" 
d="M6 0l304 376l-284 353h148l212 -273h6l213 273h145l-283 -350l301 -379h-151l-229 291h-5l-234 -291h-143z" />
    <glyph glyph-name="Y" unicode="Y" horiz-adv-x="758" 
d="M318 0v285l-312 444h137l233 -342h6l234 342h136l-314 -444v-285h-120z" />
    <glyph glyph-name="Z" unicode="Z" horiz-adv-x="704" 
d="M28 0v95l486 536h-469v98h620v-96l-487 -535h498v-98h-648z" />
    <glyph glyph-name="bracketleft" unicode="[" horiz-adv-x="354" 
d="M64 -167v960h272v-85h-169v-790h169v-85h-272z" />
    <glyph glyph-name="backslash" unicode="\" horiz-adv-x="507" 
d="M388 -81l-382 810h111l383 -810h-112z" />
    <glyph glyph-name="bracketright" unicode="]" horiz-adv-x="354" 
d="M291 793v-960h-273v85h170v790h-170v85h273z" />
    <glyph glyph-name="asciicircum" unicode="^" horiz-adv-x="508" 
d="M33 472l169 257h104l170 -257h-105l-117 173l-117 -173h-104z" />
    <glyph glyph-name="underscore" unicode="_" horiz-adv-x="385" 
d="M-1 -86v86h387v-86h-387z" />
    <glyph glyph-name="grave" unicode="`" horiz-adv-x="500" 
d="M255 741l-87 142h105l60 -142h-78z" />
    <glyph glyph-name="a" unicode="a" horiz-adv-x="686" 
d="M296 -9q-119 0 -191 74.5t-72 198.5q0 126 72 199.5t191 73.5q79 0 134.5 -29t80.5 -78h5l4 99h110v-529h-116v104h-5q-25 -52 -82.5 -82.5t-130.5 -30.5zM328 81q85 0 135.5 48t50.5 118v40q0 67 -50.5 113.5t-135.5 46.5q-81 0 -129.5 -48.5t-48.5 -134.5
q0 -84 48.5 -133.5t129.5 -49.5z" />
    <glyph glyph-name="b" unicode="b" horiz-adv-x="686" 
d="M390 -9q-78 0 -134 29t-81 78h-5l-4 -98h-110v729h116v-304h5q25 52 83 82.5t130 30.5q119 0 191 -74.5t72 -199.5t-72 -199t-191 -74zM358 82q82 0 130.5 48t48.5 134q0 85 -49 134.5t-130 49.5q-85 0 -135.5 -48.5t-50.5 -118.5v-39q0 -67 50.5 -113.5t135.5 -46.5z
" />
    <glyph glyph-name="c" unicode="c" horiz-adv-x="655" 
d="M332 -9q-138 0 -218.5 74t-80.5 200q0 125 83.5 198.5t221.5 73.5q121 0 198 -52.5t86 -139.5h-115q-14 49 -59 75t-110 26q-87 0 -138 -50t-51 -132q0 -85 49.5 -133.5t137.5 -48.5q65 0 113 29.5t60 78.5h117q-10 -89 -93.5 -144t-200.5 -55z" />
    <glyph glyph-name="d" unicode="d" horiz-adv-x="686" 
d="M299 -12q-120 0 -193 75t-73 200t73 200t194 75q73 0 128.5 -30t80.5 -83h5v304h116v-729h-111l-3 101h-5q-25 -52 -80 -82.5t-132 -30.5zM331 78q83 0 133 46.5t50 120.5v36q0 74 -50 120t-133 46q-85 0 -133 -49t-48 -135t48.5 -135.5t132.5 -49.5z" />
    <glyph glyph-name="e" unicode="e" horiz-adv-x="661" 
d="M339 -9q-140 0 -223 73t-83 198q0 127 82 201t221 74q144 0 223 -78.5t70 -216.5h-480q1 -80 53 -124.5t140 -44.5q65 0 112.5 25t60.5 66h111q-13 -78 -92.5 -125.5t-194.5 -47.5zM336 455q-79 0 -128.5 -38t-59.5 -104h365q-4 67 -50.5 104.5t-126.5 37.5z" />
    <glyph glyph-name="f" unicode="f" horiz-adv-x="368" 
d="M113 0v440h-100v89h100v55q0 145 169 145h80v-84h-62q-72 0 -72 -65v-51h128v-89h-128v-440h-115z" />
    <glyph glyph-name="g" unicode="g" horiz-adv-x="666" 
d="M318 -177q-118 0 -187.5 44.5t-77.5 121.5h111q17 -86 155 -86q176 0 176 136v98h-7q-24 -49 -80 -77t-125 -28q-114 0 -182 69t-68 184q0 114 70.5 183.5t183.5 69.5q70 0 123.5 -28t78.5 -77h7l4 96h110v-479q0 -111 -74.5 -169t-217.5 -58zM320 119q79 0 127 41
t48 105v32q0 69 -47.5 112t-125.5 43t-125 -45.5t-47 -121.5q0 -78 46 -122t124 -44z" />
    <glyph glyph-name="h" unicode="h" horiz-adv-x="679" 
d="M56 0v729h116v-309h7q27 55 85.5 86t128.5 31q230 0 230 -247v-290h-116v270q0 90 -36.5 133.5t-114.5 43.5q-82 0 -133 -51t-51 -134v-262h-116z" />
    <glyph glyph-name="i" unicode="i" horiz-adv-x="228" 
d="M56 609v120h116v-120h-116zM56 0v529h116v-529h-116z" />
    <glyph glyph-name="j" unicode="j" horiz-adv-x="230" 
d="M58 609v120h116v-120h-116zM-59 -167v88h42q40 0 57.5 19t17.5 63v526h116v-541q0 -155 -157 -155h-76z" />
    <glyph glyph-name="k" unicode="k" horiz-adv-x="639" 
d="M56 0v729h116v-448l68 59l233 189h149l-253 -206l264 -323h-144l-165 204l-38 51l-114 -90v-165h-116z" />
    <glyph glyph-name="l" unicode="l" horiz-adv-x="228" 
d="M56 0v729h116v-729h-116z" />
    <glyph glyph-name="m" unicode="m" horiz-adv-x="1063" 
d="M56 0v529h112l5 -103h6q25 53 77.5 82t119.5 29q72 0 123 -33t71 -94h8q58 127 211 127q219 0 219 -241v-296h-117v282q0 82 -31.5 123.5t-106.5 41.5t-119 -47t-44 -124v-276h-116v274q0 173 -138 173q-77 0 -120 -47t-43 -124v-276h-117z" />
    <glyph glyph-name="n" unicode="n" horiz-adv-x="679" 
d="M56 0v529h113l3 -109h7q28 55 86 86t128 31q230 0 230 -247v-290h-116v270q0 90 -36.5 133.5t-114.5 43.5q-82 0 -133 -51t-51 -134v-262h-116z" />
    <glyph glyph-name="o" unicode="o" horiz-adv-x="681" 
d="M341 -10q-140 0 -224 73.5t-84 199.5q0 127 84 200.5t224 73.5q139 0 223.5 -74t84.5 -200q0 -125 -84.5 -199t-223.5 -74zM341 82q88 0 140 49t52 132q0 84 -52 133.5t-140 49.5t-140 -49.5t-52 -133.5q0 -83 51.5 -132t140.5 -49z" />
    <glyph glyph-name="p" unicode="p" horiz-adv-x="686" 
d="M56 -167v696h110l4 -99h5q25 49 80.5 78t135.5 29q118 0 190 -73.5t72 -199.5q0 -124 -72 -198.5t-191 -74.5q-73 0 -130 30t-83 83h-5v-271h-116zM358 81q81 0 130 49.5t49 133.5q0 86 -48.5 134.5t-130.5 48.5q-85 0 -135.5 -46.5t-50.5 -113.5v-40q0 -70 50.5 -118
t135.5 -48z" />
    <glyph glyph-name="q" unicode="q" horiz-adv-x="686" 
d="M514 -167v271h-5q-25 -52 -83 -82.5t-130 -30.5q-119 0 -191 74.5t-72 199.5q0 124 72 198t191 74q79 0 135 -29t80 -78h5l4 99h110v-696h-116zM328 81q85 0 135.5 48t50.5 118v39q0 68 -50.5 114.5t-135.5 46.5q-81 0 -129.5 -48t-48.5 -134q0 -85 48.5 -134.5
t129.5 -49.5z" />
    <glyph glyph-name="r" unicode="r" horiz-adv-x="382" 
d="M56 0v529h105l5 -93h4q17 46 58 73t95 27q26 0 48 -4v-106q-21 6 -50 6q-66 0 -106 -36.5t-44 -108.5v-287h-115z" />
    <glyph glyph-name="s" unicode="s" horiz-adv-x="587" 
d="M297 -10q-127 0 -198 47.5t-74 128.5h114q2 -48 44 -75t117 -27q146 0 146 79q0 43 -31.5 59t-125.5 25q-134 13 -189.5 45.5t-55.5 105.5q0 74 67.5 117.5t184.5 43.5q112 0 177 -44.5t73 -123.5h-111q-9 93 -139 93q-140 0 -140 -77q0 -37 34.5 -52.5t121.5 -24.5
q139 -13 194 -45.5t55 -113.5q0 -75 -67 -118t-197 -43z" />
    <glyph glyph-name="t" unicode="t" horiz-adv-x="397" 
d="M252 0q-61 0 -95 29t-34 86v325h-107v89h107v147l114 23v-170h139v-89h-139v-290q0 -28 14 -39t45 -11h80v-100h-124z" />
    <glyph glyph-name="u" unicode="u" horiz-adv-x="671" 
d="M281 -9q-230 0 -230 246v292h115v-271q0 -89 37 -133t115 -44q82 0 133 51.5t51 134.5v262h115v-529h-111l-4 108h-7q-28 -54 -85.5 -85.5t-128.5 -31.5z" />
    <glyph glyph-name="v" unicode="v" horiz-adv-x="634" 
d="M251 0l-244 529h120l156 -354l32 -82h5l32 82l155 354h120l-243 -529h-133z" />
    <glyph glyph-name="w" unicode="w" horiz-adv-x="868" 
d="M173 0l-166 529h111l132 -429h4l121 429h122l122 -430h3l132 430h107l-167 -529h-143l-116 395h-5l-114 -395h-143z" />
    <glyph glyph-name="x" unicode="x" horiz-adv-x="623" 
d="M7 0l231 272l-220 257h138l155 -192h5l155 192h134l-214 -254l226 -275h-137l-166 201h-6l-169 -201h-132z" />
    <glyph glyph-name="y" unicode="y" horiz-adv-x="621" 
d="M55 -167v93h67q48 0 74.5 17t43.5 53l20 42l-252 491h125l145 -304l36 -76h7l34 78l137 302h121l-275 -570q-31 -66 -80.5 -96t-126.5 -30h-76z" />
    <glyph glyph-name="z" unicode="z" horiz-adv-x="594" 
d="M33 0v79l359 361h-344v89h500v-78l-359 -362h372v-89h-528z" />
    <glyph glyph-name="braceleft" unicode="{" horiz-adv-x="434" 
d="M230 -167q-40 0 -60.5 22.5t-20.5 59.5v267q0 38 -18 59.5t-45 21.5h-44v92h44q27 0 45 22.5t18 60.5v273q0 37 20.5 59.5t60.5 22.5h186v-85h-165v-278q0 -52 -22 -81.5t-57 -34.5v-4q38 -10 58.5 -41.5t20.5 -78.5v-273h165v-84h-186z" />
    <glyph glyph-name="bar" unicode="|" horiz-adv-x="234" 
d="M64 -67v796h106v-796h-106z" />
    <glyph glyph-name="braceright" unicode="}" horiz-adv-x="434" 
d="M204 793q40 0 60.5 -22.5t20.5 -59.5v-267q0 -38 18 -59.5t45 -21.5h44v-92h-44q-27 0 -45 -22.5t-18 -60.5v-273q0 -37 -20.5 -59.5t-60.5 -22.5h-186v85h165v278q0 52 22 81.5t57 34.5v4q-38 10 -58.5 41.5t-20.5 78.5v273h-165v84h186z" />
    <glyph glyph-name="asciitilde" unicode="~" horiz-adv-x="626" 
d="M104 285q-6 74 25 113t83 39q36 0 95 -28t93 -28q29 0 45 17t15 45h62q5 -79 -29.5 -116.5t-87.5 -37.5q-44 0 -105 29t-85 29q-26 0 -39 -18t-10 -44h-62z" />
    <glyph glyph-name="uni00A0" unicode="&#xa0;" horiz-adv-x="224" 
 />
    <glyph glyph-name="exclamdown" unicode="&#xa1;" horiz-adv-x="196" 
d="M152 529v-106h-109v106h109zM126 323l27 -284v-239h-109v239l26 284h56z" />
    <glyph glyph-name="cent" unicode="&#xa2;" horiz-adv-x="657" 
d="M290 -85v78q-120 11 -188.5 83.5t-68.5 188.5q0 113 70 185t187 85v77h79v-76q109 -7 177 -58.5t76 -132.5h-115q-14 49 -58.5 75t-110.5 26q-87 0 -138 -50t-51 -132q0 -85 49.5 -133.5t137.5 -48.5q65 0 113 29.5t61 78.5h116q-10 -82 -81 -135.5t-176 -61.5v-78h-79z
" />
    <glyph glyph-name="sterling" unicode="&#xa3;" horiz-adv-x="718" 
d="M40 0v95h99v221h-99v83h99v94q0 120 72.5 182t195.5 62q127 0 198 -62t71 -166v-20h-112v15q0 67 -41 101.5t-112 34.5q-77 0 -115 -39t-38 -109v-93h237v-83h-237v-221h337v103h95v-198h-650z" />
    <glyph glyph-name="currency" unicode="&#xa4;" horiz-adv-x="678" 
d="M114 69l-64 62l109 110q-36 50 -36 113q0 65 37 116l-110 107l64 64l113 -113q50 29 112 29q64 0 111 -29l114 113l64 -64l-109 -107q35 -53 35 -116q0 -65 -35 -113l109 -110l-63 -62l-113 112q-50 -30 -113 -30q-62 0 -114 30zM339 238q53 0 86.5 32.5t33.5 82.5
q0 52 -33.5 84.5t-86.5 32.5t-87 -32.5t-34 -84.5q0 -51 34 -83t87 -32z" />
    <glyph glyph-name="yen" unicode="&#xa5;" horiz-adv-x="717" 
d="M298 0v126h-193v75h193v90h-193v76h141l-240 362h136l213 -343h6l215 343h135l-241 -362h142v-76h-194v-90h194v-75h-194v-126h-120z" />
    <glyph glyph-name="brokenbar" unicode="&#xa6;" horiz-adv-x="234" 
d="M64 401v328h106v-328h-106zM64 -67v328h106v-328h-106z" />
    <glyph glyph-name="dieresis" unicode="&#xa8;" horiz-adv-x="500" 
d="M107 755v128h94v-128h-94zM299 755v128h94v-128h-94z" />
    <glyph glyph-name="copyright" unicode="&#xa9;" horiz-adv-x="928" 
d="M65 364q0 168 110 270.5t289 102.5t289 -102.5t110 -270.5t-110 -271t-289 -103t-289 103t-110 271zM120 364q0 -146 94.5 -235.5t249.5 -89.5t250 89.5t95 235.5q0 145 -95 234.5t-250 89.5q-154 0 -249 -89t-95 -235zM248 364q0 93 61 147.5t162 54.5q88 0 144 -39
t63 -104h-88q-10 35 -41.5 54.5t-77.5 19.5q-62 0 -98 -36.5t-36 -96.5q0 -62 35 -97.5t98 -35.5q46 0 79 21t43 57h89q-7 -66 -68 -107t-147 -41q-100 0 -159 55t-59 148z" />
    <glyph glyph-name="ordfeminine" unicode="&#xaa;" horiz-adv-x="450" 
d="M191 379q-77 0 -124 48.5t-47 129.5q0 82 47 130t124 48q103 0 137 -67h4l3 62h80v-345h-84v65h-4q-16 -32 -53 -51.5t-83 -19.5zM216 444q52 0 83 29.5t31 73.5v24q0 42 -31 70.5t-83 28.5q-51 0 -81 -29.5t-30 -83.5q0 -52 30.5 -82.5t80.5 -30.5z" />
    <glyph glyph-name="guillemotleft" unicode="&#xab;" horiz-adv-x="488" 
d="M157 0l-123 265l123 264h97l-117 -264l117 -265h-97zM358 0l-124 265l124 264h98l-118 -264l118 -265h-98z" />
    <glyph glyph-name="logicalnot" unicode="&#xac;" horiz-adv-x="592" 
d="M444 117v199h-402v93h496v-292h-94z" />
    <glyph glyph-name="registered" unicode="&#xae;" horiz-adv-x="673" 
d="M335 220q-115 0 -193.5 73.5t-78.5 186.5t78 185.5t194 72.5q117 0 196 -72.5t79 -185.5q0 -114 -79 -187t-196 -73zM336 259q98 0 164.5 62.5t66.5 158.5t-66.5 158.5t-164.5 62.5t-164.5 -62.5t-66.5 -159.5q0 -96 66.5 -158t164.5 -62zM233 362v245h123q99 0 99 -75
q0 -23 -13 -39.5t-34 -22.5v-1q41 -7 41 -53v-26q0 -19 4 -28h-58q-5 6 -5 30v21q0 34 -37 34h-62v-85h-58zM346 562h-55v-76h55q49 0 49 39q0 37 -49 37z" />
    <glyph glyph-name="macron" unicode="&#xaf;" horiz-adv-x="386" 
d="M29 765v78h342v-78h-342z" />
    <glyph glyph-name="degree" unicode="&#xb0;" horiz-adv-x="400" 
d="M200 419q-74 0 -122 44t-48 115t48 115.5t122 44.5q73 0 121 -44.5t48 -115.5q0 -70 -48 -114.5t-121 -44.5zM200 490q39 0 65 24.5t26 63.5q0 40 -26 64t-65 24t-65 -24t-26 -64q0 -39 26 -63.5t65 -24.5z" />
    <glyph glyph-name="plusminus" unicode="&#xb1;" horiz-adv-x="648" 
d="M275 187v163h-203v90h203v158h96v-158h205v-90h-205v-163h-96zM72 0v81h504v-81h-504z" />
    <glyph glyph-name="uni00B2" unicode="&#xb2;" horiz-adv-x="396" 
d="M24 326v15q0 45 27 80.5t66 58t77.5 43t65.5 47t27 58.5q0 34 -24.5 52.5t-61.5 18.5q-44 0 -69 -22t-27 -59h-80q4 72 51 109t128 37q78 0 122 -36.5t44 -97.5q0 -40 -22.5 -72t-56 -53t-67 -38.5t-60.5 -37t-33 -40.5h242v-63h-349z" />
    <glyph glyph-name="uni00B3" unicode="&#xb3;" horiz-adv-x="421" 
d="M210 321q-89 0 -137 36.5t-50 103.5h82q1 -38 28.5 -58.5t76.5 -20.5q108 0 108 72q0 66 -96 66h-60v55h56q46 0 69 17t23 47q0 63 -98 63q-45 0 -72.5 -20t-28.5 -57h-80q1 66 51 102t133 36q84 0 131 -29t47 -85q0 -37 -23.5 -63t-63.5 -34v-4q45 -4 70.5 -31.5
t25.5 -69.5q0 -58 -51 -92t-141 -34z" />
    <glyph glyph-name="acute" unicode="&#xb4;" horiz-adv-x="500" 
d="M168 741l60 142h105l-87 -142h-78z" />
    <glyph glyph-name="paragraph" unicode="&#xb6;" horiz-adv-x="761" 
d="M222 -151v519q-98 -1 -150.5 47.5t-52.5 131.5q0 89 56.5 135.5t163.5 46.5h459v-97h-89v-783h-109v783h-169v-783h-109z" />
    <glyph glyph-name="periodcentered" unicode="&#xb7;" horiz-adv-x="300" 
d="M66 277q0 35 24 59t61 24t60 -23.5t23 -59.5t-23 -59.5t-60 -23.5t-61 24t-24 59z" />
    <glyph glyph-name="cedilla" unicode="&#xb8;" horiz-adv-x="500" 
d="M250 -232q-53 0 -87.5 25.5t-33.5 66.5h67q2 -16 15 -26.5t35 -10.5q53 0 53 44q0 43 -52 43h-35v105h62v-67q47 -2 72.5 -23.5t25.5 -61.5q-1 -44 -34.5 -69.5t-87.5 -25.5z" />
    <glyph glyph-name="uni00B9" unicode="&#xb9;" horiz-adv-x="242" 
d="M121 326v299h-109v60h19q41 0 65.5 20t27.5 54h79v-433h-82z" />
    <glyph glyph-name="ordmasculine" unicode="&#xba;" horiz-adv-x="446" 
d="M223 378q-92 0 -147.5 48t-55.5 131t55.5 131t147.5 48t147 -48t55 -131q0 -82 -55 -130.5t-147 -48.5zM223 445q55 0 86.5 30.5t31.5 81.5q0 52 -31.5 82.5t-86.5 30.5t-86.5 -30.5t-31.5 -82.5t31.5 -82t86.5 -30z" />
    <glyph glyph-name="guillemotright" unicode="&#xbb;" horiz-adv-x="488" 
d="M330 529l124 -265l-124 -264h-97l117 264l-117 265h97zM130 529l123 -265l-123 -264h-98l118 264l-118 265h98z" />
    <glyph glyph-name="onequarter" unicode="&#xbc;" horiz-adv-x="687" 
d="M104 333v267h-93v55h17q73 0 80 66h71v-388h-75zM-14 0l581 721h88l-582 -721h-87zM549 0l-1 90h-214v52l197 246h92v-240h55l-1 -58h-54v-90h-74zM409 148h140v171z" />
    <glyph glyph-name="onehalf" unicode="&#xbd;" horiz-adv-x="743" 
d="M104 333v267h-93v55h17q73 0 80 66h71v-388h-75zM-14 0l581 721h88l-582 -721h-87zM419 0v14q0 40 23 71.5t56 52t66 38.5t56 42t23 52q0 31 -19.5 47.5t-53.5 16.5q-37 0 -57 -20t-21 -53h-71q4 64 44 97.5t109 33.5t106.5 -31.5t37.5 -85.5q0 -36 -19 -65.5t-47.5 -48
t-57.5 -34.5t-52 -34t-28 -38q38 2 77 2h130v-57h-302z" />
    <glyph glyph-name="threequarters" unicode="&#xbe;" horiz-adv-x="838" 
d="M181 328q-77 0 -117.5 33.5t-42.5 92.5h74q1 -34 24 -52t63 -18q44 0 67 17t23 47q0 59 -81 59h-51v50h48q77 0 77 57q0 56 -81 56q-80 0 -85 -69h-72q2 59 45 91.5t114 32.5q72 0 113.5 -26t41.5 -76q0 -34 -20.5 -57t-54.5 -31v-2q36 -4 58.5 -28t22.5 -64
q0 -52 -44 -82.5t-122 -30.5zM137 0l581 721h87l-582 -721h-86zM699 0v90h-214v52l196 246h93v-240h55l-1 -58h-54v-90h-75zM560 148h139v171z" />
    <glyph glyph-name="questiondown" unicode="&#xbf;" horiz-adv-x="575" 
d="M343 528v-109h-113v109h113zM341 332v-14q0 -38 -20 -72.5t-48.5 -60t-56.5 -51.5t-48 -60t-20 -73q0 -58 37.5 -89t103.5 -31q68 0 107 33t42 88h109q-4 -102 -75 -157t-189 -55q-120 0 -188 54.5t-68 147.5q0 50 21.5 93t52 73t61 56t52 54t21.5 55v9h106z" />
    <glyph glyph-name="Agrave" unicode="&#xc0;" horiz-adv-x="833" 
d="M379 796l-87 141h105l59 -141h-77zM6 0l332 729h155l333 -729h-130l-76 167h-409l-75 -167h-130zM247 259h338l-129 282l-38 88h-4l-38 -89z" />
    <glyph glyph-name="Aacute" unicode="&#xc1;" horiz-adv-x="833" 
d="M376 796l60 141h105l-87 -141h-78zM6 0l332 729h155l333 -729h-130l-76 167h-409l-75 -167h-130zM247 259h338l-129 282l-38 88h-4l-38 -89z" />
    <glyph glyph-name="Acircumflex" unicode="&#xc2;" horiz-adv-x="833" 
d="M242 796l128 141h93l129 -141h-93l-83 88l-82 -88h-92zM6 0l332 729h155l333 -729h-130l-76 167h-409l-75 -167h-130zM247 259h338l-129 282l-38 88h-4l-38 -89z" />
    <glyph glyph-name="Atilde" unicode="&#xc3;" horiz-adv-x="833" 
d="M475 810q-29 1 -66 17t-56 16q-31 0 -59 -33l-42 28q37 79 104 79q23 0 62 -16.5t62 -16.5q34 0 57 35l44 -28q-36 -81 -106 -81zM6 0l332 729h155l333 -729h-130l-76 167h-409l-75 -167h-130zM247 259h338l-129 282l-38 88h-4l-38 -89z" />
    <glyph glyph-name="Adieresis" unicode="&#xc4;" horiz-adv-x="833" 
d="M274 809v128h93v-128h-93zM465 809v128h94v-128h-94zM6 0l332 729h155l333 -729h-130l-76 167h-409l-75 -167h-130zM247 259h338l-129 282l-38 88h-4l-38 -89z" />
    <glyph glyph-name="Aring" unicode="&#xc5;" horiz-adv-x="833" 
d="M416 789q-56 0 -89.5 29.5t-33.5 78.5q0 50 34 79t89 29q57 0 90.5 -29.5t33.5 -78.5q0 -50 -34.5 -79t-89.5 -29zM416 840q27 0 43 15.5t16 41.5q0 25 -16.5 40.5t-42.5 15.5t-42.5 -15.5t-16.5 -40.5t16.5 -41t42.5 -16zM6 0l332 729h155l333 -729h-130l-76 167h-409
l-75 -167h-130zM247 259h338l-129 282l-38 88h-4l-38 -89z" />
    <glyph glyph-name="AE" unicode="&#xc6;" horiz-adv-x="1046" 
d="M6 0l335 729h674v-97h-477v-216h428v-91h-428v-227h479v-98h-596v167h-210l-75 -167h-130zM247 259h174v370h-7l-38 -89z" />
    <glyph glyph-name="Ccedilla" unicode="&#xc7;" horiz-adv-x="833" 
d="M422 -232q-54 0 -88 25t-34 67h68q1 -16 14.5 -26.5t35.5 -10.5q25 0 39 12t14 32q0 43 -53 43h-34v83q-163 14 -257 114t-94 257q0 170 108 271.5t292 101.5q153 0 252 -68.5t118 -184.5h-121q-16 71 -84 113.5t-165 42.5q-130 0 -204 -73t-74 -203q0 -129 74 -202
t204 -73q99 0 167 43t83 115l120 -1q-16 -113 -114 -182.5t-244 -72.5v-43q47 -2 72.5 -23.5t25.5 -61.5q0 -44 -33.5 -69.5t-87.5 -25.5z" />
    <glyph glyph-name="Egrave" unicode="&#xc8;" horiz-adv-x="692" 
d="M308 796l-87 141h105l60 -141h-78zM64 0v729h597v-97h-477v-216h428v-91h-428v-227h478v-98h-598z" />
    <glyph glyph-name="Eacute" unicode="&#xc9;" horiz-adv-x="692" 
d="M306 796l60 141h104l-86 -141h-78zM64 0v729h597v-97h-477v-216h428v-91h-428v-227h478v-98h-598z" />
    <glyph glyph-name="Ecircumflex" unicode="&#xca;" horiz-adv-x="692" 
d="M171 796l128 141h93l129 -141h-93l-82 88l-83 -88h-92zM64 0v729h597v-97h-477v-216h428v-91h-428v-227h478v-98h-598z" />
    <glyph glyph-name="Edieresis" unicode="&#xcb;" horiz-adv-x="692" 
d="M203 809v128h94v-128h-94zM395 809v128h93v-128h-93zM64 0v729h597v-97h-477v-216h428v-91h-428v-227h478v-98h-598z" />
    <glyph glyph-name="Igrave" unicode="&#xcc;" horiz-adv-x="247" 
d="M86 796l-87 141h105l60 -141h-78zM64 0v729h120v-729h-120z" />
    <glyph glyph-name="Iacute" unicode="&#xcd;" horiz-adv-x="247" 
d="M84 796l60 141h104l-86 -141h-78zM64 0v729h120v-729h-120z" />
    <glyph glyph-name="Icircumflex" unicode="&#xce;" horiz-adv-x="247" 
d="M-51 796l128 141h93l129 -141h-93l-82 88l-83 -88h-92zM64 0v729h120v-729h-120z" />
    <glyph glyph-name="Idieresis" unicode="&#xcf;" horiz-adv-x="247" 
d="M-19 809v128h94v-128h-94zM173 809v128h93v-128h-93zM64 0v729h120v-729h-120z" />
    <glyph glyph-name="Eth" unicode="&#xd0;" horiz-adv-x="808" 
d="M64 0v325h-77v79h77v325h333q180 0 279 -98.5t99 -266.5q0 -171 -101.5 -267.5t-276.5 -96.5h-333zM183 96h194q136 0 206.5 71.5t70.5 198.5q0 132 -74 199.5t-203 67.5h-194v-229h146v-79h-146v-229z" />
    <glyph glyph-name="Eth" unicode="&#xf0;" horiz-adv-x="808" 
d="M64 0v325h-77v79h77v325h333q180 0 279 -98.5t99 -266.5q0 -171 -101.5 -267.5t-276.5 -96.5h-333zM183 96h194q136 0 206.5 71.5t70.5 198.5q0 132 -74 199.5t-203 67.5h-194v-229h146v-79h-146v-229z" />
    <glyph glyph-name="Ntilde" unicode="&#xd1;" horiz-adv-x="842" 
d="M480 810q-29 1 -66 17t-56 16q-33 0 -59 -33l-42 28q37 79 104 79q23 0 62 -16.5t62 -16.5q34 0 57 35l44 -28q-36 -81 -106 -81zM64 0v729h148l446 -576h7l-5 236v340h119v-729h-147l-446 574h-6l4 -228v-346h-120z" />
    <glyph glyph-name="Ograve" unicode="&#xd2;" horiz-adv-x="863" 
d="M393 796l-87 141h105l60 -141h-78zM432 -9q-184 0 -291.5 102t-107.5 271q0 170 107.5 271.5t291.5 101.5q183 0 290.5 -101.5t107.5 -271.5t-107.5 -271.5t-290.5 -101.5zM432 89q128 0 202.5 73.5t74.5 201.5q0 129 -74.5 202.5t-202.5 73.5q-129 0 -203 -73.5
t-74 -202.5q0 -128 74.5 -201.5t202.5 -73.5z" />
    <glyph glyph-name="Oacute" unicode="&#xd3;" horiz-adv-x="863" 
d="M391 796l59 141h105l-87 -141h-77zM432 -9q-184 0 -291.5 102t-107.5 271q0 170 107.5 271.5t291.5 101.5q183 0 290.5 -101.5t107.5 -271.5t-107.5 -271.5t-290.5 -101.5zM432 89q128 0 202.5 73.5t74.5 201.5q0 129 -74.5 202.5t-202.5 73.5q-129 0 -203 -73.5
t-74 -202.5q0 -128 74.5 -201.5t202.5 -73.5z" />
    <glyph glyph-name="Ocircumflex" unicode="&#xd4;" horiz-adv-x="863" 
d="M256 796l128 141h93l129 -141h-93l-82 88l-83 -88h-92zM432 -9q-184 0 -291.5 102t-107.5 271q0 170 107.5 271.5t291.5 101.5q183 0 290.5 -101.5t107.5 -271.5t-107.5 -271.5t-290.5 -101.5zM432 89q128 0 202.5 73.5t74.5 201.5q0 129 -74.5 202.5t-202.5 73.5
q-129 0 -203 -73.5t-74 -202.5q0 -128 74.5 -201.5t202.5 -73.5z" />
    <glyph glyph-name="Otilde" unicode="&#xd5;" horiz-adv-x="863" 
d="M490 810q-28 1 -65.5 17t-57.5 16q-31 0 -59 -33l-42 28q38 79 104 79q23 0 62 -16.5t62 -16.5q33 0 58 35l43 -28q-35 -81 -105 -81zM432 -9q-184 0 -291.5 102t-107.5 271q0 170 107.5 271.5t291.5 101.5q183 0 290.5 -101.5t107.5 -271.5t-107.5 -271.5t-290.5 -101.5
zM432 89q128 0 202.5 73.5t74.5 201.5q0 129 -74.5 202.5t-202.5 73.5q-129 0 -203 -73.5t-74 -202.5q0 -128 74.5 -201.5t202.5 -73.5z" />
    <glyph glyph-name="Odieresis" unicode="&#xd6;" horiz-adv-x="863" 
d="M288 809v128h93v-128h-93zM479 809v128h94v-128h-94zM432 -9q-184 0 -291.5 102t-107.5 271q0 170 107.5 271.5t291.5 101.5q183 0 290.5 -101.5t107.5 -271.5t-107.5 -271.5t-290.5 -101.5zM432 89q128 0 202.5 73.5t74.5 201.5q0 129 -74.5 202.5t-202.5 73.5
q-129 0 -203 -73.5t-74 -202.5q0 -128 74.5 -201.5t202.5 -73.5z" />
    <glyph glyph-name="multiply" unicode="&#xd7;" horiz-adv-x="631" 
d="M155 133l-67 68l160 160l-160 160l67 67l160 -160l161 160l67 -67l-160 -160l160 -160l-67 -68l-161 161z" />
    <glyph glyph-name="Oslash" unicode="&#xd8;" horiz-adv-x="863" 
d="M50 -40l100 124q-117 103 -117 280q0 170 107.5 271.5t291.5 101.5q121 0 211 -46l64 79h104l-100 -124q119 -100 119 -282q0 -170 -107.5 -271.5t-290.5 -101.5q-122 0 -212 46l-63 -77h-107zM155 364q0 -121 66 -193l355 438q-62 31 -144 31q-129 0 -203 -73.5
t-74 -202.5zM432 89q128 0 202.5 73.5t74.5 201.5q0 124 -68 195l-354 -438q62 -32 145 -32z" />
    <glyph glyph-name="Ugrave" unicode="&#xd9;" horiz-adv-x="787" 
d="M356 796l-86 141h104l60 -141h-78zM393 -9q-161 0 -250.5 76t-89.5 238v424h118v-422q0 -106 52.5 -160.5t169.5 -54.5q114 0 168.5 52.5t54.5 162.5v422h118v-424q0 -314 -341 -314z" />
    <glyph glyph-name="Uacute" unicode="&#xda;" horiz-adv-x="787" 
d="M354 796l60 141h104l-86 -141h-78zM393 -9q-161 0 -250.5 76t-89.5 238v424h118v-422q0 -106 52.5 -160.5t169.5 -54.5q114 0 168.5 52.5t54.5 162.5v422h118v-424q0 -314 -341 -314z" />
    <glyph glyph-name="Ucircumflex" unicode="&#xdb;" horiz-adv-x="787" 
d="M219 796l129 141h92l129 -141h-93l-82 88l-82 -88h-93zM393 -9q-161 0 -250.5 76t-89.5 238v424h118v-422q0 -106 52.5 -160.5t169.5 -54.5q114 0 168.5 52.5t54.5 162.5v422h118v-424q0 -314 -341 -314z" />
    <glyph glyph-name="Udieresis" unicode="&#xdc;" horiz-adv-x="787" 
d="M251 809v128h94v-128h-94zM443 809v128h94v-128h-94zM393 -9q-161 0 -250.5 76t-89.5 238v424h118v-422q0 -106 52.5 -160.5t169.5 -54.5q114 0 168.5 52.5t54.5 162.5v422h118v-424q0 -314 -341 -314z" />
    <glyph glyph-name="Yacute" unicode="&#xdd;" horiz-adv-x="758" 
d="M339 796l60 141h105l-87 -141h-78zM318 0v285l-312 444h137l233 -342h6l234 342h136l-314 -444v-285h-120z" />
    <glyph glyph-name="Thorn" unicode="&#xde;" horiz-adv-x="656" 
d="M64 0v729h120v-133h174q135 0 204.5 -61t69.5 -170q0 -112 -73 -171.5t-201 -59.5l-174 1v-135h-120zM346 500h-162v-277h162q82 0 123 36.5t41 102.5q0 68 -42.5 103t-121.5 35z" />
    <glyph glyph-name="germandbls" unicode="&#xdf;" horiz-adv-x="717" 
d="M129 -167v609h-116v87h117q9 102 82.5 156t180.5 54q115 0 181.5 -50t66.5 -137q0 -54 -28 -94t-83 -56v-7q74 -8 117.5 -57.5t43.5 -125.5q0 -99 -67 -155.5t-192 -56.5h-104v88h85q81 0 121 35.5t40 99.5q0 63 -39 95t-108 32h-71v70h38q67 0 103 29.5t36 82.5
q0 56 -38 85t-101 29q-72 0 -110.5 -40t-38.5 -113v-660h-116z" />
    <glyph glyph-name="agrave" unicode="&#xe0;" horiz-adv-x="686" 
d="M308 595l-87 142h105l59 -142h-77zM296 -9q-119 0 -191 74.5t-72 198.5q0 126 72 199.5t191 73.5q79 0 134.5 -29t80.5 -78h5l4 99h110v-529h-116v104h-5q-25 -52 -82.5 -82.5t-130.5 -30.5zM328 81q85 0 135.5 48t50.5 118v40q0 67 -50.5 113.5t-135.5 46.5
q-81 0 -129.5 -48.5t-48.5 -134.5q0 -84 48.5 -133.5t129.5 -49.5z" />
    <glyph glyph-name="aacute" unicode="&#xe1;" horiz-adv-x="686" 
d="M305 595l60 142h105l-87 -142h-78zM296 -9q-119 0 -191 74.5t-72 198.5q0 126 72 199.5t191 73.5q79 0 134.5 -29t80.5 -78h5l4 99h110v-529h-116v104h-5q-25 -52 -82.5 -82.5t-130.5 -30.5zM328 81q85 0 135.5 48t50.5 118v40q0 67 -50.5 113.5t-135.5 46.5
q-81 0 -129.5 -48.5t-48.5 -134.5q0 -84 48.5 -133.5t129.5 -49.5z" />
    <glyph glyph-name="acircumflex" unicode="&#xe2;" horiz-adv-x="686" 
d="M171 595l128 142h93l129 -142h-93l-83 89l-82 -89h-92zM296 -9q-119 0 -191 74.5t-72 198.5q0 126 72 199.5t191 73.5q79 0 134.5 -29t80.5 -78h5l4 99h110v-529h-116v104h-5q-25 -52 -82.5 -82.5t-130.5 -30.5zM328 81q85 0 135.5 48t50.5 118v40q0 67 -50.5 113.5
t-135.5 46.5q-81 0 -129.5 -48.5t-48.5 -134.5q0 -84 48.5 -133.5t129.5 -49.5z" />
    <glyph glyph-name="atilde" unicode="&#xe3;" horiz-adv-x="686" 
d="M404 610q-28 0 -65 16t-57 16q-32 0 -59 -33l-42 28q37 81 104 79q23 0 62.5 -16t61.5 -16q35 0 57 34l44 -27q-36 -83 -106 -81zM296 -9q-119 0 -191 74.5t-72 198.5q0 126 72 199.5t191 73.5q79 0 134.5 -29t80.5 -78h5l4 99h110v-529h-116v104h-5q-25 -52 -82.5 -82.5
t-130.5 -30.5zM328 81q85 0 135.5 48t50.5 118v40q0 67 -50.5 113.5t-135.5 46.5q-81 0 -129.5 -48.5t-48.5 -134.5q0 -84 48.5 -133.5t129.5 -49.5z" />
    <glyph glyph-name="adieresis" unicode="&#xe4;" horiz-adv-x="686" 
d="M203 609v128h93v-128h-93zM394 609v128h94v-128h-94zM296 -9q-119 0 -191 74.5t-72 198.5q0 126 72 199.5t191 73.5q79 0 134.5 -29t80.5 -78h5l4 99h110v-529h-116v104h-5q-25 -52 -82.5 -82.5t-130.5 -30.5zM328 81q85 0 135.5 48t50.5 118v40q0 67 -50.5 113.5
t-135.5 46.5q-81 0 -129.5 -48.5t-48.5 -134.5q0 -84 48.5 -133.5t129.5 -49.5z" />
    <glyph glyph-name="aring" unicode="&#xe5;" horiz-adv-x="686" 
d="M345 589q-56 0 -89.5 29.5t-33.5 78.5q0 50 34 79t89 29q57 0 90.5 -29.5t33.5 -78.5q0 -50 -34 -79t-90 -29zM345 640q27 0 43 15.5t16 41.5q0 25 -16.5 40.5t-42.5 15.5t-42.5 -15.5t-16.5 -40.5q0 -26 16.5 -41.5t42.5 -15.5zM296 -9q-119 0 -191 74.5t-72 198.5
q0 126 72 199.5t191 73.5q79 0 134.5 -29t80.5 -78h5l4 99h110v-529h-116v104h-5q-25 -52 -82.5 -82.5t-130.5 -30.5zM328 81q85 0 135.5 48t50.5 118v40q0 67 -50.5 113.5t-135.5 46.5q-81 0 -129.5 -48.5t-48.5 -134.5q0 -84 48.5 -133.5t129.5 -49.5z" />
    <glyph glyph-name="ae" unicode="&#xe6;" horiz-adv-x="1131" 
d="M288 -9q-115 0 -185 74t-70 199q0 126 70 199.5t185 73.5q77 0 131.5 -29t78.5 -78h5l3 99h85v-99h5q67 107 223 107q144 0 217 -81.5t61 -213.5h-464q3 -80 52.5 -124.5t133.5 -44.5q65 0 110.5 24.5t57.5 66.5h111q-13 -77 -90 -125t-187 -48q-79 0 -138 28t-87 80h-5
v-99h-91l1 99h-6q-24 -50 -79 -79t-128 -29zM633 310h352q-2 72 -48.5 108.5t-123.5 36.5q-76 0 -124 -38t-56 -107zM323 81q80 0 128.5 46.5t48.5 114.5v45q0 67 -48.5 114t-128.5 47q-79 0 -126 -48.5t-47 -135.5q0 -86 47 -134.5t126 -48.5z" />
    <glyph glyph-name="ccedilla" unicode="&#xe7;" horiz-adv-x="655" 
d="M336 -232q-54 0 -88 25t-34 67h68q1 -16 14.5 -26.5t35.5 -10.5q25 0 39 12t14 32q0 43 -53 43h-34v82q-124 10 -194.5 82.5t-70.5 190.5q0 125 83.5 198.5t221.5 73.5q121 0 198 -52.5t86 -139.5h-115q-14 49 -59 75t-110 26q-87 0 -138 -50t-51 -132q0 -85 49.5 -133.5
t137.5 -48.5q65 0 113 29.5t60 78.5h117q-10 -84 -84.5 -138t-182.5 -60v-44q47 -2 72.5 -23.5t25.5 -61.5q0 -44 -33.5 -69.5t-87.5 -25.5z" />
    <glyph glyph-name="egrave" unicode="&#xe8;" horiz-adv-x="661" 
d="M294 595l-86 142h104l60 -142h-78zM339 -9q-140 0 -223 73t-83 198q0 127 82 201t221 74q144 0 223 -78.5t70 -216.5h-480q1 -80 53 -124.5t140 -44.5q65 0 112.5 25t60.5 66h111q-13 -78 -92.5 -125.5t-194.5 -47.5zM336 455q-79 0 -128.5 -38t-59.5 -104h365
q-4 67 -50.5 104.5t-126.5 37.5z" />
    <glyph glyph-name="eacute" unicode="&#xe9;" horiz-adv-x="661" 
d="M292 595l60 142h105l-87 -142h-78zM339 -9q-140 0 -223 73t-83 198q0 127 82 201t221 74q144 0 223 -78.5t70 -216.5h-480q1 -80 53 -124.5t140 -44.5q65 0 112.5 25t60.5 66h111q-13 -78 -92.5 -125.5t-194.5 -47.5zM336 455q-79 0 -128.5 -38t-59.5 -104h365
q-4 67 -50.5 104.5t-126.5 37.5z" />
    <glyph glyph-name="ecircumflex" unicode="&#xea;" horiz-adv-x="661" 
d="M158 595l128 142h93l128 -142h-92l-83 89l-82 -89h-92zM339 -9q-140 0 -223 73t-83 198q0 127 82 201t221 74q144 0 223 -78.5t70 -216.5h-480q1 -80 53 -124.5t140 -44.5q65 0 112.5 25t60.5 66h111q-13 -78 -92.5 -125.5t-194.5 -47.5zM336 455q-79 0 -128.5 -38
t-59.5 -104h365q-4 67 -50.5 104.5t-126.5 37.5z" />
    <glyph glyph-name="edieresis" unicode="&#xeb;" horiz-adv-x="661" 
d="M190 609v128h93v-128h-93zM381 609v128h94v-128h-94zM339 -9q-140 0 -223 73t-83 198q0 127 82 201t221 74q144 0 223 -78.5t70 -216.5h-480q1 -80 53 -124.5t140 -44.5q65 0 112.5 25t60.5 66h111q-13 -78 -92.5 -125.5t-194.5 -47.5zM336 455q-79 0 -128.5 -38
t-59.5 -104h365q-4 67 -50.5 104.5t-126.5 37.5z" />
    <glyph glyph-name="igrave" unicode="&#xec;" horiz-adv-x="228" 
d="M77 595l-87 142h105l60 -142h-78zM56 0v529h116v-529h-116z" />
    <glyph glyph-name="iacute" unicode="&#xed;" horiz-adv-x="228" 
d="M75 595l59 142h105l-87 -142h-77zM56 0v529h116v-529h-116z" />
    <glyph glyph-name="icircumflex" unicode="&#xee;" horiz-adv-x="228" 
d="M-60 595l128 142h93l129 -142h-93l-82 89l-83 -89h-92zM56 0v529h116v-529h-116z" />
    <glyph glyph-name="idieresis" unicode="&#xef;" horiz-adv-x="228" 
d="M-28 609v128h93v-128h-93zM163 609v128h94v-128h-94zM56 0v529h116v-529h-116z" />
    <glyph glyph-name="ntilde" unicode="&#xf1;" horiz-adv-x="679" 
d="M399 610q-28 0 -65.5 16t-57.5 16q-32 0 -59 -33l-42 28q38 81 104 79q24 0 63 -16t61 -16q34 0 58 34l43 -27q-35 -83 -105 -81zM56 0v529h113l3 -109h7q28 55 86 86t128 31q230 0 230 -247v-290h-116v270q0 90 -36.5 133.5t-114.5 43.5q-82 0 -133 -51t-51 -134v-262
h-116z" />
    <glyph glyph-name="ograve" unicode="&#xf2;" horiz-adv-x="681" 
d="M304 595l-87 142h104l60 -142h-77zM341 -10q-140 0 -224 73.5t-84 199.5q0 127 84 200.5t224 73.5q139 0 223.5 -74t84.5 -200q0 -125 -84.5 -199t-223.5 -74zM341 82q88 0 140 49t52 132q0 84 -52 133.5t-140 49.5t-140 -49.5t-52 -133.5q0 -83 51.5 -132t140.5 -49z
" />
    <glyph glyph-name="oacute" unicode="&#xf3;" horiz-adv-x="681" 
d="M301 595l60 142h105l-87 -142h-78zM341 -10q-140 0 -224 73.5t-84 199.5q0 127 84 200.5t224 73.5q139 0 223.5 -74t84.5 -200q0 -125 -84.5 -199t-223.5 -74zM341 82q88 0 140 49t52 132q0 84 -52 133.5t-140 49.5t-140 -49.5t-52 -133.5q0 -83 51.5 -132t140.5 -49z
" />
    <glyph glyph-name="ocircumflex" unicode="&#xf4;" horiz-adv-x="681" 
d="M167 595l128 142h93l128 -142h-92l-83 89l-82 -89h-92zM341 -10q-140 0 -224 73.5t-84 199.5q0 127 84 200.5t224 73.5q139 0 223.5 -74t84.5 -200q0 -125 -84.5 -199t-223.5 -74zM341 82q88 0 140 49t52 132q0 84 -52 133.5t-140 49.5t-140 -49.5t-52 -133.5
q0 -83 51.5 -132t140.5 -49z" />
    <glyph glyph-name="otilde" unicode="&#xf5;" horiz-adv-x="681" 
d="M400 610q-28 0 -65 16t-57 16q-32 0 -59 -33l-42 28q37 81 104 79q23 0 62.5 -16t61.5 -16q35 0 57 34l44 -27q-36 -83 -106 -81zM341 -10q-140 0 -224 73.5t-84 199.5q0 127 84 200.5t224 73.5q139 0 223.5 -74t84.5 -200q0 -125 -84.5 -199t-223.5 -74zM341 82
q88 0 140 49t52 132q0 84 -52 133.5t-140 49.5t-140 -49.5t-52 -133.5q0 -83 51.5 -132t140.5 -49z" />
    <glyph glyph-name="odieresis" unicode="&#xf6;" horiz-adv-x="681" 
d="M199 609v128h93v-128h-93zM390 609v128h94v-128h-94zM341 -10q-140 0 -224 73.5t-84 199.5q0 127 84 200.5t224 73.5q139 0 223.5 -74t84.5 -200q0 -125 -84.5 -199t-223.5 -74zM341 82q88 0 140 49t52 132q0 84 -52 133.5t-140 49.5t-140 -49.5t-52 -133.5
q0 -83 51.5 -132t140.5 -49z" />
    <glyph glyph-name="divide" unicode="&#xf7;" horiz-adv-x="685" 
d="M286 494v94h110v-94h-110zM90 315v92h506v-92h-506zM286 134v94h110v-94h-110z" />
    <glyph glyph-name="oslash" unicode="&#xf8;" horiz-adv-x="681" 
d="M36 -60l93 114q-96 76 -96 209q0 127 84 200.5t224 73.5q89 0 155 -30l66 82h84l-93 -116q96 -75 96 -210q0 -125 -84.5 -199t-223.5 -74q-89 0 -155 30l-64 -80h-86zM149 263q0 -76 46 -127l238 293q-42 17 -92 17q-88 0 -140 -49.5t-52 -133.5zM341 82q88 0 140 49
t52 132q0 79 -47 128l-236 -292q40 -17 91 -17z" />
    <glyph glyph-name="ugrave" unicode="&#xf9;" horiz-adv-x="671" 
d="M296 595l-86 142h104l60 -142h-78zM281 -9q-230 0 -230 246v292h115v-271q0 -89 37 -133t115 -44q82 0 133 51.5t51 134.5v262h115v-529h-111l-4 108h-7q-28 -54 -85.5 -85.5t-128.5 -31.5z" />
    <glyph glyph-name="uacute" unicode="&#xfa;" horiz-adv-x="671" 
d="M294 595l60 142h104l-86 -142h-78zM281 -9q-230 0 -230 246v292h115v-271q0 -89 37 -133t115 -44q82 0 133 51.5t51 134.5v262h115v-529h-111l-4 108h-7q-28 -54 -85.5 -85.5t-128.5 -31.5z" />
    <glyph glyph-name="ucircumflex" unicode="&#xfb;" horiz-adv-x="671" 
d="M159 595l129 142h92l129 -142h-93l-82 89l-82 -89h-93zM281 -9q-230 0 -230 246v292h115v-271q0 -89 37 -133t115 -44q82 0 133 51.5t51 134.5v262h115v-529h-111l-4 108h-7q-28 -54 -85.5 -85.5t-128.5 -31.5z" />
    <glyph glyph-name="udieresis" unicode="&#xfc;" horiz-adv-x="671" 
d="M191 609v128h94v-128h-94zM383 609v128h94v-128h-94zM281 -9q-230 0 -230 246v292h115v-271q0 -89 37 -133t115 -44q82 0 133 51.5t51 134.5v262h115v-529h-111l-4 108h-7q-28 -54 -85.5 -85.5t-128.5 -31.5z" />
    <glyph glyph-name="yacute" unicode="&#xfd;" horiz-adv-x="621" 
d="M271 595l60 142h104l-87 -142h-77zM55 -167v93h67q48 0 74.5 17t43.5 53l20 42l-252 491h125l145 -304l36 -76h7l34 78l137 302h121l-275 -570q-31 -66 -80.5 -96t-126.5 -30h-76z" />
    <glyph glyph-name="thorn" unicode="&#xfe;" horiz-adv-x="686" 
d="M56 -167v896h114v-299h5q25 49 80.5 78t135.5 29q118 0 190 -73.5t72 -199.5q0 -124 -72 -198.5t-191 -74.5q-73 0 -130 30t-83 83h-5v-271h-116zM358 81q81 0 130 49.5t49 133.5q0 86 -48.5 134.5t-130.5 48.5q-85 0 -135.5 -46.5t-50.5 -113.5v-40q0 -70 50.5 -118
t135.5 -48z" />
    <glyph glyph-name="ydieresis" unicode="&#xff;" horiz-adv-x="621" 
d="M168 609v128h93v-128h-93zM359 609v128h94v-128h-94zM55 -167v93h67q48 0 74.5 17t43.5 53l20 42l-252 491h125l145 -304l36 -76h7l34 78l137 302h121l-275 -570q-31 -66 -80.5 -96t-126.5 -30h-76z" />
    <glyph glyph-name="dotlessi" unicode="&#x131;" horiz-adv-x="228" 
d="M56 0v529h116v-529h-116z" />
    <glyph glyph-name="OE" unicode="&#x152;" horiz-adv-x="1264" 
d="M410 0q-179 0 -278 98.5t-99 266.5q0 171 101 267.5t276 96.5h823v-97h-477v-216h428v-91h-428v-227h478v-98h-824zM430 96h206v537h-206q-135 0 -205.5 -71.5t-70.5 -198.5q0 -132 73.5 -199.5t202.5 -67.5z" />
    <glyph glyph-name="oe" unicode="&#x153;" horiz-adv-x="1161" 
d="M341 -10q-140 0 -224 73.5t-84 199.5q0 127 84 200.5t224 73.5q85 0 150 -31t99 -86q36 56 99 86.5t147 30.5q144 0 223 -78.5t69 -216.5h-479v-2q0 -71 50 -119t142 -48q65 0 113 25t61 66h110q-13 -78 -92.5 -125.5t-193.5 -47.5q-85 0 -149.5 31t-99.5 86
q-36 -56 -100 -87t-149 -31zM836 455q-78 0 -126.5 -37.5t-58.5 -107.5h362q-3 69 -50 107t-127 38zM341 82q88 0 140 49t52 132q0 84 -52 133.5t-140 49.5t-140 -49.5t-52 -133.5q0 -83 51.5 -132t140.5 -49z" />
    <glyph glyph-name="Wcircumflex" unicode="&#x174;" horiz-adv-x="1103" 
d="M377 796l128 141h93l128 -141h-92l-83 88l-82 -88h-92zM221 0l-215 729h131l126 -449l38 -160h9l177 609h134l174 -611h8l40 165l126 446h127l-214 -729h-156l-171 585h-6l-172 -585h-156z" />
    <glyph glyph-name="wcircumflex" unicode="&#x175;" horiz-adv-x="868" 
d="M260 595l128 142h93l129 -142h-93l-82 89l-83 -89h-92zM173 0l-166 529h111l132 -429h4l121 429h122l122 -430h3l132 430h107l-167 -529h-143l-116 395h-5l-114 -395h-143z" />
    <glyph glyph-name="Ycircumflex" unicode="&#x176;" horiz-adv-x="758" 
d="M205 796l128 141h93l128 -141h-92l-83 88l-82 -88h-92zM318 0v285l-312 444h137l233 -342h6l234 342h136l-314 -444v-285h-120z" />
    <glyph glyph-name="ycircumflex" unicode="&#x177;" horiz-adv-x="621" 
d="M136 595l128 142h93l129 -142h-93l-82 89l-83 -89h-92zM55 -167v93h67q48 0 74.5 17t43.5 53l20 42l-252 491h125l145 -304l36 -76h7l34 78l137 302h121l-275 -570q-31 -66 -80.5 -96t-126.5 -30h-76z" />
    <glyph glyph-name="Ydieresis" unicode="&#x178;" horiz-adv-x="758" 
d="M237 809v128h93v-128h-93zM428 809v128h94v-128h-94zM318 0v285l-312 444h137l233 -342h6l234 342h136l-314 -444v-285h-120z" />
    <glyph glyph-name="uni0237" unicode="&#x237;" horiz-adv-x="230" 
d="M-59 -167v88h42q40 0 57.5 19t17.5 63v526h116v-541q0 -155 -157 -155h-76z" />
    <glyph glyph-name="circumflex" unicode="&#x2c6;" horiz-adv-x="500" 
d="M75 741l129 142h92l129 -142h-93l-82 89l-82 -89h-93z" />
    <glyph glyph-name="caron" unicode="&#x2c7;" horiz-adv-x="390" 
d="M149 741l-128 142h92l82 -89l83 89h92l-128 -142h-93z" />
    <glyph glyph-name="breve" unicode="&#x2d8;" horiz-adv-x="399" 
d="M200 733q-75 0 -117 39t-43 108h74q0 -41 22.5 -63t63.5 -22q40 0 63.5 22t22.5 63h73q0 -69 -42 -108t-117 -39z" />
    <glyph glyph-name="dotaccent" unicode="&#x2d9;" horiz-adv-x="500" 
d="M199 755v127h103v-127h-103z" />
    <glyph glyph-name="ring" unicode="&#x2da;" horiz-adv-x="500" 
d="M250 735q-56 0 -89.5 29.5t-33.5 78.5q0 50 34 79t89 29q56 0 89.5 -29.5t33.5 -78.5q0 -50 -33.5 -79t-89.5 -29zM250 786q27 0 43 15.5t16 41.5q0 25 -16.5 40.5t-42.5 15.5q-27 0 -43 -15t-16 -41t16.5 -41.5t42.5 -15.5z" />
    <glyph glyph-name="ogonek" unicode="&#x2db;" horiz-adv-x="439" 
d="M242 -179q-58 0 -91 24.5t-33 66.5q0 35 24 62.5t62 37.5l60 -12q-33 -9 -51.5 -27.5t-18.5 -41.5t18 -35.5t49 -12.5q40 0 64 11v-60q-26 -13 -83 -13z" />
    <glyph glyph-name="tilde" unicode="&#x2dc;" horiz-adv-x="500" 
d="M309 756q-29 1 -66 17t-56 16q-33 0 -59 -33l-42 28q37 79 104 79q23 0 62 -16.5t62 -16.5q34 0 57 35l44 -28q-36 -81 -106 -81z" />
    <glyph glyph-name="hungarumlaut" unicode="&#x2dd;" horiz-adv-x="437" 
d="M45 741l61 142h100l-86 -142h-75zM209 741l77 142h106l-102 -142h-81z" />
    <glyph glyph-name="gravecomb" unicode="&#x300;" horiz-adv-x="0" 
d="M255 741l-87 142h105l60 -142h-78z" />
    <glyph glyph-name="acutecomb" unicode="&#x301;" horiz-adv-x="0" 
d="M168 741l60 142h105l-87 -142h-78z" />
    <glyph glyph-name="uni0302" unicode="&#x302;" horiz-adv-x="0" 
d="M75 741l129 142h92l129 -142h-93l-82 89l-82 -89h-93z" />
    <glyph glyph-name="tildecomb" unicode="&#x303;" horiz-adv-x="0" 
d="M309 756q-29 1 -66 17t-56 16q-33 0 -59 -33l-42 28q37 79 104 79q23 0 62 -16.5t62 -16.5q34 0 57 35l44 -28q-36 -81 -106 -81z" />
    <glyph glyph-name="uni0304" unicode="&#x304;" horiz-adv-x="0" 
d="M29 765v78h342v-78h-342z" />
    <glyph glyph-name="uni0306" unicode="&#x306;" horiz-adv-x="0" 
d="M200 733q-75 0 -117 39t-43 108h74q0 -41 22.5 -63t63.5 -22q40 0 63.5 22t22.5 63h73q0 -69 -42 -108t-117 -39z" />
    <glyph glyph-name="uni0307" unicode="&#x307;" horiz-adv-x="0" 
d="M199 755v127h103v-127h-103z" />
    <glyph glyph-name="uni0308" unicode="&#x308;" horiz-adv-x="0" 
d="M107 755v128h94v-128h-94zM299 755v128h94v-128h-94z" />
    <glyph glyph-name="uni030A" unicode="&#x30a;" horiz-adv-x="0" 
d="M250 735q-56 0 -89.5 29.5t-33.5 78.5q0 50 34 79t89 29q56 0 89.5 -29.5t33.5 -78.5q0 -50 -33.5 -79t-89.5 -29zM250 786q27 0 43 15.5t16 41.5q0 25 -16.5 40.5t-42.5 15.5q-27 0 -43 -15t-16 -41t16.5 -41.5t42.5 -15.5z" />
    <glyph glyph-name="uni030B" unicode="&#x30b;" horiz-adv-x="0" 
d="M45 741l61 142h100l-86 -142h-75zM209 741l77 142h106l-102 -142h-81z" />
    <glyph glyph-name="uni030C" unicode="&#x30c;" horiz-adv-x="0" 
d="M149 741l-128 142h92l82 -89l83 89h92l-128 -142h-93z" />
    <glyph glyph-name="uni0327" unicode="&#x327;" horiz-adv-x="0" 
d="M250 -232q-53 0 -87.5 25.5t-33.5 66.5h67q2 -16 15 -26.5t35 -10.5q53 0 53 44q0 43 -52 43h-35v105h62v-67q47 -2 72.5 -23.5t25.5 -61.5q-1 -44 -34.5 -69.5t-87.5 -25.5z" />
    <glyph glyph-name="uni0328" unicode="&#x328;" horiz-adv-x="0" 
d="M242 -179q-58 0 -91 24.5t-33 66.5q0 35 24 62.5t62 37.5l60 -12q-33 -9 -51.5 -27.5t-18.5 -41.5t18 -35.5t49 -12.5q40 0 64 11v-60q-26 -13 -83 -13z" />
    <glyph glyph-name="uni0337" unicode="&#x337;" horiz-adv-x="0" 
d="M89 -60l527 649h83l-524 -649h-86z" />
    <glyph glyph-name="uni0338" unicode="&#x338;" horiz-adv-x="0" 
d="M50 -81l657 810h104l-654 -810h-107z" />
    <glyph glyph-name="uni03BC" unicode="&#x3bc;" horiz-adv-x="671" 
d="M51 -132v661h115v-275q0 -173 157 -173q88 0 133.5 49.5t45.5 136.5v262h115v-529h-112l-3 108h-7q-25 -55 -82 -86t-127 -31q-76 0 -120 38v-161h-115z" />
    <glyph glyph-name="pi" unicode="&#x3c0;" horiz-adv-x="656" 
d="M562 -8q-70 0 -99.5 35t-29.5 103v307h-204v-437h-114v437h-88v92h607v-92h-87v-275q0 -40 11 -57.5t37 -17.5q24 0 38 9v-92q-26 -12 -71 -12z" />
    <glyph glyph-name="Wgrave" unicode="&#x1e80;" horiz-adv-x="1103" 
d="M513 796l-86 141h104l60 -141h-78zM221 0l-215 729h131l126 -449l38 -160h9l177 609h134l174 -611h8l40 165l126 446h127l-214 -729h-156l-171 585h-6l-172 -585h-156z" />
    <glyph glyph-name="wgrave" unicode="&#x1e81;" horiz-adv-x="868" 
d="M397 595l-87 142h105l60 -142h-78zM173 0l-166 529h111l132 -429h4l121 429h122l122 -430h3l132 430h107l-167 -529h-143l-116 395h-5l-114 -395h-143z" />
    <glyph glyph-name="Wacute" unicode="&#x1e82;" horiz-adv-x="1103" 
d="M511 796l60 141h105l-87 -141h-78zM221 0l-215 729h131l126 -449l38 -160h9l177 609h134l174 -611h8l40 165l126 446h127l-214 -729h-156l-171 585h-6l-172 -585h-156z" />
    <glyph glyph-name="wacute" unicode="&#x1e83;" horiz-adv-x="868" 
d="M395 595l60 142h104l-86 -142h-78zM173 0l-166 529h111l132 -429h4l121 429h122l122 -430h3l132 430h107l-167 -529h-143l-116 395h-5l-114 -395h-143z" />
    <glyph glyph-name="Wdieresis" unicode="&#x1e84;" horiz-adv-x="1103" 
d="M409 809v128h93v-128h-93zM600 809v128h94v-128h-94zM221 0l-215 729h131l126 -449l38 -160h9l177 609h134l174 -611h8l40 165l126 446h127l-214 -729h-156l-171 585h-6l-172 -585h-156z" />
    <glyph glyph-name="wdieresis" unicode="&#x1e85;" horiz-adv-x="868" 
d="M292 609v128h94v-128h-94zM484 609v128h93v-128h-93zM173 0l-166 529h111l132 -429h4l121 429h122l122 -430h3l132 430h107l-167 -529h-143l-116 395h-5l-114 -395h-143z" />
    <glyph glyph-name="uni1E9E" unicode="&#x1e9e;" horiz-adv-x="766" 
d="M64 0v729h622v-111l-176 -202v-7h18q102 0 159.5 -52t57.5 -147q0 -99 -67.5 -154.5t-185.5 -55.5h-219v93h190q148 0 148 127q0 126 -149 126h-90v63l192 224h-373v-633h-127z" />
    <glyph glyph-name="Ygrave" unicode="&#x1ef2;" horiz-adv-x="758" 
d="M342 796l-87 141h104l60 -141h-77zM318 0v285l-312 444h137l233 -342h6l234 342h136l-314 -444v-285h-120z" />
    <glyph glyph-name="ygrave" unicode="&#x1ef3;" horiz-adv-x="621" 
d="M273 595l-87 142h105l60 -142h-78zM55 -167v93h67q48 0 74.5 17t43.5 53l20 42l-252 491h125l145 -304l36 -76h7l34 78l137 302h121l-275 -570q-31 -66 -80.5 -96t-126.5 -30h-76z" />
    <glyph glyph-name="endash" unicode="&#x2013;" horiz-adv-x="553" 
d="M42 219v91h469v-91h-469z" />
    <glyph glyph-name="emdash" unicode="&#x2014;" horiz-adv-x="735" 
d="M42 219v91h651v-91h-651z" />
    <glyph glyph-name="quoteleft" unicode="&#x2018;" horiz-adv-x="202" 
d="M171 729v-58l-19 -1q-47 -3 -47 -57v-43h54v-105h-117v153q0 107 95 110z" />
    <glyph glyph-name="quoteright" unicode="&#x2019;" horiz-adv-x="202" 
d="M31 465v58h19q47 3 47 58v43h-54v105h117v-154q0 -107 -95 -110h-34z" />
    <glyph glyph-name="quotesinglbase" unicode="&#x201a;" horiz-adv-x="202" 
d="M31 -159v58l19 1q47 1 47 57v43h-54v105h117v-154q0 -105 -95 -110h-34z" />
    <glyph glyph-name="quotedblleft" unicode="&#x201c;" horiz-adv-x="394" 
d="M363 729v-58l-18 -1q-48 -3 -48 -57v-43h54v-105h-117v153q0 53 25 80.5t71 29.5zM171 729v-58l-19 -1q-47 -3 -47 -57v-43h54v-105h-117v153q0 107 95 110z" />
    <glyph glyph-name="quotedblright" unicode="&#x201d;" horiz-adv-x="394" 
d="M31 465v58h19q47 3 47 58v43h-54v105h117v-154q0 -107 -95 -110h-34zM224 465v58h18q48 3 48 58v43h-54v105h117v-154q0 -53 -25 -80.5t-71 -29.5h-33z" />
    <glyph glyph-name="quotedblbase" unicode="&#x201e;" horiz-adv-x="394" 
d="M31 -159v58l19 1q47 1 47 57v43h-54v105h117v-154q0 -105 -95 -110h-34zM224 -159v58l18 1q48 1 48 57v43h-54v105h117v-154q0 -105 -96 -110h-33z" />
    <glyph glyph-name="bullet" unicode="&#x2022;" horiz-adv-x="369" 
d="M64 277q0 52 34.5 86t86.5 34q54 0 87.5 -34t33.5 -86t-33.5 -85.5t-87.5 -33.5q-52 0 -86.5 34t-34.5 85z" />
    <glyph glyph-name="ellipsis" unicode="&#x2026;" horiz-adv-x="603" 
d="M42 0v105h117v-105h-117zM243 0v105h117v-105h-117zM444 0v105h117v-105h-117z" />
    <glyph glyph-name="perthousand" unicode="&#x2030;" horiz-adv-x="1353" 
d="M156 0l529 729h92l-530 -729h-91zM211 331q-86 0 -137.5 52t-51.5 145q0 94 51.5 145.5t137.5 51.5t137 -52t51 -145q0 -94 -51 -145.5t-137 -51.5zM211 400q104 0 104 128q0 65 -27.5 97t-76.5 32q-103 0 -103 -129q0 -128 103 -128zM723 -5q-87 0 -138 52t-51 145
q0 94 51.5 145.5t137.5 51.5t137 -51.5t51 -145.5t-51 -145.5t-137 -51.5zM1144 -5q-87 0 -138 52t-51 145q0 94 51 145.5t138 51.5q86 0 137 -51.5t51 -145.5t-51 -145.5t-137 -51.5zM722 64q50 0 77.5 32t27.5 96q0 65 -27.5 97t-76.5 32t-76.5 -32t-27.5 -97
q0 -64 27 -96t76 -32zM1143 64q104 0 104 128q0 129 -103 129q-104 0 -104 -129q0 -64 27 -96t76 -32z" />
    <glyph glyph-name="guilsinglleft" unicode="&#x2039;" horiz-adv-x="286" 
d="M157 0l-123 265l123 264h97l-117 -264l117 -265h-97z" />
    <glyph glyph-name="guilsinglright" unicode="&#x203a;" horiz-adv-x="286" 
d="M129 529l124 -265l-124 -264h-97l117 264l-117 265h97z" />
    <glyph glyph-name="fraction" unicode="&#x2044;" horiz-adv-x="213" 
d="M-228 0l581 721h88l-582 -721h-87z" />
    <glyph glyph-name="uni2070" unicode="&#x2070;" horiz-adv-x="484" 
d="M242 320q-98 0 -156.5 58t-58.5 164q0 105 58.5 163t157.5 58q98 0 156.5 -58t58.5 -163t-58.5 -163.5t-157.5 -58.5zM242 388q63 0 97.5 39t34.5 115q0 77 -34.5 115.5t-97.5 38.5t-97.5 -39t-34.5 -115q0 -77 34.5 -115.5t97.5 -38.5z" />
    <glyph glyph-name="uni2074" unicode="&#x2074;" horiz-adv-x="428" 
d="M271 326l-1 101h-250v58l230 274h103v-267h65v-65h-65v-101h-82zM108 492h163v190z" />
    <glyph glyph-name="uni2075" unicode="&#x2075;" horiz-adv-x="425" 
d="M212 321q-86 0 -134.5 37t-50.5 100h82q2 -34 29.5 -54t74.5 -20q52 0 80 23t28 62q0 41 -28 63t-77 22q-76 0 -104 -47h-77l14 252h329v-66h-253l-9 -118l5 -1q15 17 47 28t68 11q80 0 124 -38t44 -106q0 -71 -52.5 -109.5t-139.5 -38.5z" />
    <glyph glyph-name="uni2076" unicode="&#x2076;" horiz-adv-x="441" 
d="M226 321q-199 0 -199 204q0 238 208 238q77 0 122 -32t54 -85h-81q-15 54 -98 54q-67 0 -94.5 -40t-28.5 -117l4 -1q14 30 50.5 48t83.5 18q81 0 126 -37.5t45 -101.5q0 -70 -52 -109t-140 -39zM228 384q52 0 79 22.5t27 61.5q0 40 -28 61t-77 21q-50 0 -79 -23.5
t-29 -60.5q0 -40 29 -61t78 -21z" />
    <glyph glyph-name="uni2077" unicode="&#x2077;" horiz-adv-x="378" 
d="M130 326q0 209 147 366h-203v-80h-63v147h357v-57q-81 -89 -117.5 -174t-36.5 -202h-84z" />
    <glyph glyph-name="uni2078" unicode="&#x2078;" horiz-adv-x="415" 
d="M208 321q-93 0 -142 32.5t-49 90.5q0 42 28.5 71t73.5 33v3q-42 6 -67 31.5t-25 65.5q0 59 49.5 87t131.5 28t132 -28.5t50 -86.5q0 -40 -25 -65t-68 -32v-3q45 -4 73.5 -33t28.5 -71q0 -58 -49.5 -90.5t-141.5 -32.5zM208 575q99 0 99 63q0 64 -99 64t-99 -64
q0 -63 99 -63zM208 383q107 0 107 69q0 68 -107 68t-107 -68q0 -69 107 -69z" />
    <glyph glyph-name="uni2079" unicode="&#x2079;" horiz-adv-x="441" 
d="M212 321q-76 0 -124 30.5t-57 87.5h82q13 -55 98 -55q126 0 121 157l-4 1q-30 -65 -134 -65q-80 0 -125 37t-45 101q0 70 51.5 109t138.5 39q201 0 201 -211q0 -231 -203 -231zM212 534q52 0 80 23t28 62t-29 60.5t-77 21.5q-53 0 -80 -23t-27 -62q0 -40 27.5 -61
t77.5 -21z" />
    <glyph glyph-name="uni2080" unicode="&#x2080;" horiz-adv-x="484" 
d="M242 -36q-98 0 -156.5 58t-58.5 164q0 105 58.5 163t157.5 58q98 0 156.5 -58t58.5 -163t-58.5 -163.5t-157.5 -58.5zM242 32q63 0 97.5 39t34.5 115q0 77 -34.5 115.5t-97.5 38.5t-97.5 -39t-34.5 -115q0 -77 34.5 -115.5t97.5 -38.5z" />
    <glyph glyph-name="uni2081" unicode="&#x2081;" horiz-adv-x="242" 
d="M121 -30v299h-109v60h19q41 0 65.5 20t27.5 54h79v-433h-82z" />
    <glyph glyph-name="uni2082" unicode="&#x2082;" horiz-adv-x="396" 
d="M24 -30v15q0 45 27 80.5t66 58t77.5 43t65.5 47t27 58.5q0 34 -24.5 52.5t-61.5 18.5q-44 0 -69 -22t-27 -59h-80q4 72 51 109t128 37q78 0 122 -36.5t44 -97.5q0 -40 -22.5 -72t-56 -53t-67 -38.5t-60.5 -37t-33 -40.5h242v-63h-349z" />
    <glyph glyph-name="uni2083" unicode="&#x2083;" horiz-adv-x="421" 
d="M210 -35q-89 0 -137 36.5t-50 103.5h82q1 -38 28.5 -58.5t76.5 -20.5q108 0 108 72q0 66 -96 66h-60v55h56q46 0 69 17t23 47q0 63 -98 63q-45 0 -72.5 -20t-28.5 -57h-80q1 66 51 102t133 36q84 0 131 -29t47 -85q0 -37 -23.5 -63t-63.5 -34v-4q45 -4 70.5 -31.5
t25.5 -69.5q0 -58 -51 -92t-141 -34z" />
    <glyph glyph-name="uni2084" unicode="&#x2084;" horiz-adv-x="428" 
d="M271 -30l-1 101h-250v58l230 274h103v-267h65v-65h-65v-101h-82zM108 136h163v190z" />
    <glyph glyph-name="uni2085" unicode="&#x2085;" horiz-adv-x="425" 
d="M212 -35q-86 0 -134.5 37t-50.5 100h82q2 -34 29.5 -54t74.5 -20q52 0 80 23t28 62q0 41 -28 63t-77 22q-76 0 -104 -47h-77l14 252h329v-66h-253l-9 -118l5 -1q15 17 47 28t68 11q80 0 124 -38t44 -106q0 -71 -52.5 -109.5t-139.5 -38.5z" />
    <glyph glyph-name="uni2086" unicode="&#x2086;" horiz-adv-x="441" 
d="M226 -35q-199 0 -199 204q0 238 208 238q77 0 122 -32t54 -85h-81q-15 54 -98 54q-67 0 -94.5 -40t-28.5 -117l4 -1q14 30 50.5 48t83.5 18q81 0 126 -37.5t45 -101.5q0 -70 -52 -109t-140 -39zM228 28q52 0 79 22.5t27 61.5q0 40 -28 61t-77 21q-50 0 -79 -23.5
t-29 -60.5q0 -40 29 -61t78 -21z" />
    <glyph glyph-name="uni2087" unicode="&#x2087;" horiz-adv-x="378" 
d="M130 -30q0 209 147 366h-203v-80h-63v147h357v-57q-81 -89 -117.5 -174t-36.5 -202h-84z" />
    <glyph glyph-name="uni2088" unicode="&#x2088;" horiz-adv-x="415" 
d="M208 -35q-93 0 -142 32.5t-49 90.5q0 42 28.5 71t73.5 33v3q-42 6 -67 31.5t-25 65.5q0 59 49.5 87t131.5 28t132 -28.5t50 -86.5q0 -40 -25 -65t-68 -32v-3q45 -4 73.5 -33t28.5 -71q0 -58 -49.5 -90.5t-141.5 -32.5zM208 219q99 0 99 63q0 64 -99 64t-99 -64
q0 -63 99 -63zM208 27q107 0 107 69q0 68 -107 68t-107 -68q0 -69 107 -69z" />
    <glyph glyph-name="uni2089" unicode="&#x2089;" horiz-adv-x="441" 
d="M212 -35q-76 0 -124 30.5t-57 87.5h82q13 -55 98 -55q126 0 121 157l-4 1q-30 -65 -134 -65q-80 0 -125 37t-45 101q0 70 51.5 109t138.5 39q201 0 201 -211q0 -231 -203 -231zM212 178q52 0 80 23t28 62t-29 60.5t-77 21.5q-53 0 -80 -23t-27 -62q0 -40 27.5 -61
t77.5 -21z" />
    <glyph glyph-name="uni20AA" unicode="&#x20aa;" horiz-adv-x="834" 
d="M390 0q-52 0 -79.5 24t-27.5 84v445h78v-461h301v637h109v-729h-381zM64 0v729h381q53 0 79.5 -24t26.5 -84v-444h-78v461h-301v-638h-108z" />
    <glyph glyph-name="Euro" unicode="&#x20ac;" horiz-adv-x="917" 
d="M33 244v63h86q-4 24 -4 57q0 34 4 58h-86v62h99q34 118 134.5 185.5t249.5 67.5q153 0 252.5 -68.5t117.5 -184.5h-123q-17 71 -84 112.5t-163 41.5q-94 0 -160 -40t-95 -114h306l-9 -62h-314q-4 -24 -4 -58q0 -33 4 -57h297l-9 -63h-271q29 -74 95 -113.5t160 -39.5
q99 0 166 42.5t82 113.5h122q-16 -116 -118 -186t-252 -70q-149 0 -249.5 67.5t-134.5 185.5h-99z" />
    <glyph glyph-name="uni20B9" unicode="&#x20b9;" horiz-adv-x="656" 
d="M443 0q-13 9 -20 46l-24 133q-11 65 -43.5 87.5t-90.5 22.5h-201v81h224q142 0 155 105h-379v61h379q-16 108 -151 108h-228v85h586v-70h-160v-4q32 -14 54.5 -45.5t25.5 -69.5h80v-69h-80q-9 -56 -49.5 -93.5t-103.5 -49.5v-6q92 -20 111 -129l21 -137q5 -35 22 -43v-13
h-128z" />
    <glyph glyph-name="uni20BA" unicode="&#x20ba;" horiz-adv-x="689" 
d="M109 0v279l-98 -33v88l98 34v95l-98 -34v87l98 36v177h116v-132l206 70v-88l-206 -71v-95l206 71v-88l-206 -71v-217q291 0 311 228h123q-14 -172 -132 -254t-318 -82h-100z" />
    <glyph glyph-name="uni20BF" unicode="&#x20bf;" horiz-adv-x="718" 
d="M64 0v729h126v85h87v-85h116v85h87v-87q94 -8 145 -56.5t51 -129.5q0 -59 -31.5 -102.5t-90.5 -58.5v-5q68 -14 105.5 -60.5t37.5 -111.5q0 -85 -55.5 -138t-161.5 -63v-87h-87v85h-116v-85h-88v85h-125zM183 415h239q64 0 96.5 29.5t32.5 81.5q0 55 -35.5 85.5
t-102.5 30.5h-230v-227zM183 87h234q76 0 114.5 34t38.5 92t-37 88t-106 30h-244v-244z" />
    <glyph glyph-name="uni2117" unicode="&#x2117;" horiz-adv-x="928" 
d="M464 -10q-179 0 -289 103t-110 271t110 270.5t289 102.5t289 -102.5t110 -270.5t-110 -271t-289 -103zM464 39q155 0 250 89.5t95 235.5q0 145 -95 234.5t-250 89.5q-154 0 -249 -89t-95 -235t94.5 -235.5t249.5 -89.5zM314 166v397h208q78 0 119 -33t41 -94t-42 -93.5
t-118 -32.5h-121v-144h-87zM506 502h-105v-137h105q89 0 89 69q0 68 -89 68z" />
    <glyph glyph-name="trademark" unicode="&#x2122;" horiz-adv-x="820" 
d="M375 417v312h101l104 -221h4l104 221h102v-312h-73v122l2 101h-3l-105 -223h-58l-105 223h-3l1 -101v-122h-71zM140 417v248h-109v64h296v-64h-112v-248h-75z" />
    <glyph glyph-name="oneeighth" unicode="&#x215b;" horiz-adv-x="751" 
d="M104 333v267h-93v55h17q73 0 80 66h71v-388h-75zM-14 0l581 721h88l-582 -721h-87zM572 -5q-80 0 -122 29t-42 81q0 39 24 64.5t62 29.5v2q-35 6 -56 29t-21 59q0 52 42.5 77.5t112.5 25.5q71 0 114 -25.5t43 -77.5q0 -36 -21 -59t-57 -29v-2q38 -4 62.5 -29.5
t24.5 -64.5q0 -52 -42.5 -81t-123.5 -29zM572 222q83 0 83 57t-83 57q-81 0 -81 -57t81 -57zM572 51q90 0 90 62q0 61 -90 61q-89 0 -89 -61q0 -62 89 -62z" />
    <glyph glyph-name="threeeighths" unicode="&#x215c;" horiz-adv-x="902" 
d="M181 328q-77 0 -117.5 33.5t-42.5 92.5h74q1 -34 24 -52t63 -18q44 0 67 17t23 47q0 59 -81 59h-51v50h48q77 0 77 57q0 56 -81 56q-80 0 -85 -69h-72q2 59 45 91.5t114 32.5q72 0 113.5 -26t41.5 -76q0 -34 -20.5 -57t-54.5 -31v-2q36 -4 58.5 -28t22.5 -64
q0 -52 -44 -82.5t-122 -30.5zM137 0l581 721h87l-582 -721h-86zM723 -5q-80 0 -122.5 29t-42.5 81q0 39 24 64.5t63 29.5v2q-36 6 -57 29t-21 59q0 52 43 77.5t113 25.5q71 0 114 -25.5t43 -77.5q0 -36 -21 -59t-57 -29v-2q38 -4 62.5 -29.5t24.5 -64.5q0 -52 -42.5 -81
t-123.5 -29zM723 222q83 0 83 57t-83 57q-82 0 -82 -57t82 -57zM723 51q90 0 90 62q0 61 -90 61q-89 0 -89 -61q0 -62 89 -62z" />
    <glyph glyph-name="fiveeighths" unicode="&#x215d;" horiz-adv-x="905" 
d="M182 328q-75 0 -116 34t-43 89h74q1 -31 24.5 -48.5t61.5 -17.5q44 0 67.5 21t23.5 56q0 37 -23.5 56t-64.5 19q-63 0 -87 -41h-69l12 225h284v-59h-216l-7 -105l4 -2q30 35 97 35q68 0 106.5 -33.5t38.5 -94.5q0 -64 -45.5 -99t-121.5 -35zM140 0l581 721h87l-582 -721
h-86zM726 -5q-80 0 -122.5 29t-42.5 81q0 39 24 64.5t63 29.5v2q-36 6 -57 29t-21 59q0 52 43 77.5t113 25.5q71 0 114 -25.5t43 -77.5q0 -36 -21.5 -59t-57.5 -29v-2q38 -4 62.5 -29.5t24.5 -64.5q0 -52 -42.5 -81t-122.5 -29zM726 222q83 0 83 57t-83 57q-82 0 -82 -57
t82 -57zM726 51q89 0 89 62q0 61 -89 61q-90 0 -90 -61q0 -62 90 -62z" />
    <glyph glyph-name="seveneighths" unicode="&#x215e;" horiz-adv-x="787" 
d="M111 333q0 183 124 328h-170v-72h-56v132h309v-51q-70 -81 -101 -158.5t-31 -178.5h-75zM22 0l581 721h87l-582 -721h-86zM608 -5q-80 0 -122.5 29t-42.5 81q0 39 24 64.5t63 29.5v2q-36 6 -57 29t-21 59q0 52 43 77.5t113 25.5q71 0 114 -25.5t43 -77.5q0 -36 -21.5 -59
t-57.5 -29v-2q38 -4 62.5 -29.5t24.5 -64.5q0 -52 -42.5 -81t-122.5 -29zM608 222q83 0 83 57t-83 57q-82 0 -82 -57t82 -57zM608 51q89 0 89 62q0 61 -89 61q-90 0 -90 -61q0 -62 90 -62z" />
    <glyph glyph-name="arrowleft" unicode="&#x2190;" horiz-adv-x="678" 
d="M608 416v-102h-420l115 -166h-106l-149 217l149 217h106l-115 -166h420z" />
    <glyph glyph-name="arrowup" unicode="&#x2191;" horiz-adv-x="532" 
d="M215 86v421l-166 -115v106l217 149l216 -149v-106l-165 115v-421h-102z" />
    <glyph glyph-name="arrowright" unicode="&#x2192;" horiz-adv-x="677" 
d="M69 416h421l-115 166h105l150 -217l-150 -217h-105l115 166h-421v102z" />
    <glyph glyph-name="arrowdown" unicode="&#x2193;" horiz-adv-x="532" 
d="M215 643h102v-421l165 115v-106l-216 -149l-217 149v106l166 -115v421z" />
    <glyph glyph-name="arrowboth" unicode="&#x2194;" horiz-adv-x="829" 
d="M204 148l-150 217l150 217h105l-115 -166h441l-115 166h105l150 -217l-150 -217h-105l115 166h-441l115 -166h-105z" />
    <glyph glyph-name="emptyset" unicode="&#x2205;" horiz-adv-x="848" 
d="M424 0q-152 0 -255.5 103t-103.5 263q0 158 103.5 260.5t255.5 102.5t255.5 -103t103.5 -260q0 -160 -103.5 -263t-255.5 -103zM146 225l531 325q-42 62 -108.5 97.5t-144.5 35.5q-129 0 -218.5 -90t-89.5 -227q0 -75 30 -141zM424 46q129 0 218.5 91t89.5 229
q0 76 -31 143l-533 -325q42 -64 109.5 -101t146.5 -37z" />
    <glyph glyph-name="product" unicode="&#x220f;" horiz-adv-x="812" 
d="M64 -151v880h684v-880h-120v775h-444v-775h-120z" />
    <glyph glyph-name="summation" unicode="&#x2211;" horiz-adv-x="729" 
d="M64 -151v113l295 321v13l-295 320v113h601v-105h-248l-199 1v-6l305 -330l-305 -330v-6l199 1h248v-105h-601z" />
    <glyph glyph-name="minus" unicode="&#x2212;" horiz-adv-x="704" 
d="M103 315v92h498v-92h-498z" />
    <glyph glyph-name="radical" unicode="&#x221a;" horiz-adv-x="781" 
d="M279 -151l-163 445h-97v111h194l142 -424h6l269 748h133l-326 -880h-158z" />
    <glyph glyph-name="infinity" unicode="&#x221e;" horiz-adv-x="917" 
d="M243 134q-95 0 -152.5 64t-57.5 165q0 100 58 166.5t153 66.5q121 0 215 -158q93 158 216 158q95 0 152 -66.5t57 -166.5q0 -98 -57 -163.5t-152 -65.5q-127 0 -216 155q-89 -155 -216 -155zM249 234q44 0 81.5 32t77.5 99q-40 66 -76.5 98t-83.5 32q-51 0 -82 -37
t-31 -93q0 -58 31.5 -94.5t82.5 -36.5zM669 234q50 0 82 38t32 93q0 56 -32 93t-82 37q-47 0 -82.5 -32t-76.5 -98q42 -68 77 -99.5t82 -31.5z" />
    <glyph glyph-name="integral" unicode="&#x222b;" horiz-adv-x="485" 
d="M19 -151v91h165v687q0 47 26 74.5t72 27.5h185v-92h-166v-688q0 -46 -24.5 -73t-73.5 -27h-184z" />
    <glyph glyph-name="approxequal" unicode="&#x2248;" horiz-adv-x="710" 
d="M447 399q-44 0 -105 28.5t-85 28.5q-26 0 -39 -17.5t-10 -43.5h-62q-6 73 25 112t83 39q36 0 96 -27.5t93 -27.5q29 0 44.5 16.5t15.5 44.5h62q5 -78 -29.5 -115.5t-88.5 -37.5zM447 180q-44 0 -105 28.5t-85 28.5q-26 0 -39 -18t-10 -43h-62q-6 74 25 112.5t83 38.5
q36 0 96 -27.5t93 -27.5q29 0 44.5 16.5t15.5 44.5h62q5 -79 -30 -116t-88 -37z" />
    <glyph glyph-name="notequal" unicode="&#x2260;" horiz-adv-x="718" 
d="M185 81l53 107h-135v93h175l79 160h-254v93h294l52 107h84l-52 -107h134v-93h-174l-79 -160h253v-93h-293l-52 -107h-85z" />
    <glyph glyph-name="lessequal" unicode="&#x2264;" horiz-adv-x="753" 
d="M648 149l-543 186v124l543 180v-102l-431 -137v-6l431 -143v-102zM105 0v81h543v-81h-543z" />
    <glyph glyph-name="greaterequal" unicode="&#x2265;" horiz-adv-x="753" 
d="M105 149v102l432 143v6l-432 137v102l543 -180v-124zM105 0v81h543v-81h-543z" />
    <glyph glyph-name="uni2639" unicode="&#x2639;" horiz-adv-x="883" 
d="M442 -10q-165 0 -271 104.5t-106 271.5q0 165 106 269t271 104q164 0 270 -104t106 -269q0 -167 -106 -271.5t-270 -104.5zM442 38q143 0 233.5 91t90.5 237q0 145 -90.5 235t-233.5 90q-144 0 -234.5 -89.5t-90.5 -235.5t90.5 -237t234.5 -91zM353 392q-26 0 -40 18.5
t-14 47.5q0 33 14.5 50t39.5 17q26 0 40 -18.5t14 -48.5q0 -66 -54 -66zM532 392q-26 0 -40.5 18.5t-14.5 47.5q0 32 15.5 49.5t39.5 17.5q26 0 40.5 -18.5t14.5 -48.5q0 -33 -15 -49.5t-40 -16.5zM210 171q22 69 84.5 108.5t146.5 39.5t146 -39.5t86 -108.5h-47
q-22 49 -72 77t-113 28q-64 0 -113.5 -28.5t-71.5 -76.5h-46z" />
    <glyph glyph-name="smileface" unicode="&#x263a;" horiz-adv-x="883" 
d="M442 -10q-165 0 -271 104.5t-106 271.5q0 165 106 269t271 104q164 0 270 -104t106 -269q0 -167 -106 -271.5t-270 -104.5zM442 38q143 0 233.5 91t90.5 237q0 145 -90.5 235t-233.5 90q-144 0 -234.5 -89.5t-90.5 -235.5t90.5 -237t234.5 -91zM353 392q-26 0 -40 18.5
t-14 47.5q0 33 14.5 50t39.5 17q26 0 40 -18.5t14 -48.5q0 -66 -54 -66zM532 392q-26 0 -40.5 18.5t-14.5 47.5q0 32 15.5 49.5t39.5 17.5q26 0 40.5 -18.5t14.5 -48.5q0 -33 -15 -49.5t-40 -16.5zM441 113q-96 0 -162 52.5t-79 139.5h-31v24h116v-24h-37
q11 -66 64.5 -105.5t128.5 -39.5q76 0 129 39.5t64 105.5h-36v24h116v-24h-31q-14 -87 -80 -139.5t-162 -52.5z" />
    <glyph glyph-name="uni2713" unicode="&#x2713;" horiz-adv-x="949" 
d="M329 107l-211 268l65 59l154 -199l436 382l58 -69z" />
    <glyph glyph-name="uni2776" unicode="&#x2776;" 
d="M451 -10q-179 0 -289.5 103t-110.5 271t110.5 270.5t289.5 102.5t289 -102.5t110 -270.5t-110 -271t-289 -103zM443 166h72v397h-68q-8 -67 -82 -67h-17v-53h95v-277z" />
    <glyph glyph-name="uni2777" unicode="&#x2777;" 
d="M451 -10q-179 0 -289.5 103t-110.5 271t110.5 270.5t289.5 102.5t289 -102.5t110 -270.5t-110 -271t-289 -103zM298 164h306v54h-134q-63 0 -81 -1q5 20 28.5 38.5t53.5 35t60 36t50 49.5t20 67q0 56 -38.5 89t-106.5 33q-71 0 -111.5 -34t-44.5 -99h68q2 35 24 56.5
t62 21.5q32 0 53.5 -18t21.5 -51q0 -30 -24 -54.5t-57.5 -43.5t-67.5 -39.5t-58 -52.5t-24 -73v-14z" />
    <glyph glyph-name="uni2778" unicode="&#x2778;" 
d="M451 -10q-179 0 -289.5 103t-110.5 271t110.5 270.5t289.5 102.5t289 -102.5t110 -270.5t-110 -271t-289 -103zM449 161q79 0 123.5 31.5t44.5 84.5q0 39 -23 64t-63 29v3q36 7 57 31t21 59q0 51 -42 77.5t-113 26.5q-74 0 -117 -32.5t-44 -93.5h68q2 35 25.5 54t64.5 19
q86 0 86 -59q0 -61 -81 -61h-48v-49h51q85 0 85 -62q0 -32 -24.5 -50.5t-70.5 -18.5q-42 0 -67 19t-26 56h-70q1 -60 43 -94t120 -34z" />
    <glyph glyph-name="uni2779" unicode="&#x2779;" 
d="M51 364q0 168 110.5 270.5t289.5 102.5t289 -102.5t110 -270.5t-110 -271t-289 -103t-289.5 103t-110.5 271zM269 260h220v-94h71v94h57v56h-57v247h-89l-202 -253v-50zM341 316l148 178v-178h-148z" />
    <glyph glyph-name="uni277A" unicode="&#x277a;" 
d="M451 -10q-179 0 -289.5 103t-110.5 271t110.5 270.5t289.5 102.5t289 -102.5t110 -270.5t-110 -271t-289 -103zM447 163q76 0 122.5 35.5t46.5 100.5q0 62 -38.5 97t-108.5 35q-31 0 -59 -10.5t-43 -26.5l-4 1l8 113h222v57h-287l-13 -230h67q23 44 91 44
q44 0 68.5 -20.5t24.5 -59.5q0 -38 -25 -60t-71 -22q-41 0 -65.5 19.5t-25.5 52.5h-72q3 -59 45.5 -92.5t116.5 -33.5z" />
    <glyph glyph-name="uni277B" unicode="&#x277b;" 
d="M451 -10q-179 0 -289.5 103t-110.5 271t110.5 270.5t289.5 102.5t289 -102.5t110 -270.5t-110 -271t-289 -103zM455 161q76 0 121.5 36t45.5 100q0 59 -39.5 93t-110.5 34q-41 0 -73 -17t-44 -46l-4 1q1 74 25.5 112.5t83.5 38.5q74 0 86 -53h70q-8 51 -48 79t-106 28
q-181 0 -181 -220q0 -186 174 -186zM456 216q-43 0 -68.5 20t-25.5 58q0 35 25.5 58t69.5 23q43 0 68.5 -20.5t25.5 -58.5q0 -37 -24.5 -58.5t-70.5 -21.5z" />
    <glyph glyph-name="uni277C" unicode="&#x277c;" 
d="M451 -10q-179 0 -289.5 103t-110.5 271t110.5 270.5t289.5 102.5t289 -102.5t110 -270.5t-110 -271t-289 -103zM401 166h72q0 103 31.5 183.5t103.5 164.5v49h-313v-133h54v75h180q-128 -148 -128 -339z" />
    <glyph glyph-name="uni277D" unicode="&#x277d;" 
d="M51 364q0 168 110.5 270.5t289.5 102.5t289 -102.5t110 -270.5t-110 -271t-289 -103t-289.5 103t-110.5 271zM284 273q0 -53 43.5 -82.5t123.5 -29.5q81 0 124.5 29.5t43.5 82.5q0 40 -25 66.5t-64 29.5v3q36 6 58 29.5t22 60.5q0 53 -43.5 79t-115.5 26
q-71 0 -114.5 -26t-43.5 -79q0 -37 22 -60.5t59 -29.5v-3q-39 -3 -64.5 -29.5t-25.5 -66.5zM364 453q0 61 87 61t87 -61q0 -60 -87 -60t-87 60zM357 281q0 64 94 64q95 0 95 -64q0 -32 -25 -49.5t-70 -17.5q-94 0 -94 67z" />
    <glyph glyph-name="uni277E" unicode="&#x277e;" 
d="M451 -10q-179 0 -289.5 103t-110.5 271t110.5 270.5t289.5 102.5t289 -102.5t110 -270.5t-110 -271t-289 -103zM445 161q177 0 177 213q0 193 -175 193q-76 0 -121 -36t-45 -100q0 -59 39 -92.5t110 -33.5q41 0 73 16t44 46l4 -1q3 -150 -107 -150q-74 0 -87 52h-69
q7 -51 49.5 -79t107.5 -28zM445 354q-43 0 -68 20t-25 59q0 36 24 58t70 22q43 0 68.5 -20.5t25.5 -57.5t-25 -59t-70 -22z" />
    <glyph glyph-name="uni2780" unicode="&#x2780;" 
d="M450 -10q-179 0 -289 103t-110 271t110 270.5t289 102.5t289 -102.5t110 -270.5t-110 -271t-289 -103zM450 39q155 0 250 89.5t95 235.5t-95 235t-250 89q-154 0 -249 -89.5t-95 -234.5q0 -146 95 -235.5t249 -89.5zM443 166v277h-95v53h17q74 0 82 67h68v-397h-72z" />
    <glyph glyph-name="uni2781" unicode="&#x2781;" 
d="M450 -10q-179 0 -289 103t-110 271t110 270.5t289 102.5t289 -102.5t110 -270.5t-110 -271t-289 -103zM450 39q155 0 250 89.5t95 235.5t-95 235t-250 89q-154 0 -249 -89.5t-95 -234.5q0 -146 95 -235.5t249 -89.5zM298 164v14q0 41 24 73t58 52.5t67.5 39.5t57.5 43.5
t24 54.5q0 33 -21.5 51t-53.5 18q-40 0 -62 -21.5t-24 -56.5h-68q3 65 44 99t112 34q68 0 106.5 -33t38.5 -89q0 -37 -20 -67t-50 -49.5t-60 -36t-53.5 -35t-28.5 -38.5q17 1 81 1h134v-54h-306z" />
    <glyph glyph-name="uni2782" unicode="&#x2782;" 
d="M450 -10q-179 0 -289 103t-110 271t110 270.5t289 102.5t289 -102.5t110 -270.5t-110 -271t-289 -103zM450 39q155 0 250 89.5t95 235.5t-95 235t-250 89q-154 0 -249 -89.5t-95 -234.5q0 -146 95 -235.5t249 -89.5zM449 161q-78 0 -120 34t-43 94h70q1 -37 26 -56
t67 -19q46 0 70.5 18.5t24.5 50.5q0 62 -85 62h-52v49h49q81 0 81 61q0 59 -86 59q-41 0 -64.5 -19t-25.5 -54h-68q1 60 44 93t116 33q72 0 114 -26.5t42 -77.5q0 -35 -21 -59t-57 -31v-3q40 -4 63 -29t23 -64q0 -53 -44.5 -84.5t-123.5 -31.5z" />
    <glyph glyph-name="uni2783" unicode="&#x2783;" 
d="M51 364q0 168 110 270.5t289 102.5t289 -102.5t110 -270.5t-110 -271t-289 -103t-289 103t-110 271zM106 364q0 -146 95 -235.5t249 -89.5q155 0 250 89.5t95 235.5t-95 235t-250 89q-154 0 -249 -89.5t-95 -234.5zM263 260v50l203 253h89v-247h57l-1 -56h-56v-94h-72v94
h-220zM335 316h148v178z" />
    <glyph glyph-name="uni2784" unicode="&#x2784;" 
d="M450 -10q-179 0 -289 103t-110 271t110 270.5t289 102.5t289 -102.5t110 -270.5t-110 -271t-289 -103zM450 39q155 0 250 89.5t95 235.5t-95 235t-250 89q-154 0 -249 -89.5t-95 -234.5q0 -146 95 -235.5t249 -89.5zM447 163q-74 0 -116.5 33.5t-45.5 92.5h72
q1 -33 25.5 -52.5t65.5 -19.5q46 0 71 22t25 60q0 39 -24.5 59.5t-68.5 20.5q-68 0 -91 -44h-67l13 230h287v-57h-222l-8 -113l4 -1q14 16 42.5 26.5t58.5 10.5q70 0 109 -35t39 -97q0 -65 -46.5 -100.5t-122.5 -35.5z" />
    <glyph glyph-name="uni2785" unicode="&#x2785;" 
d="M450 -10q-179 0 -289 103t-110 271t110 270.5t289 102.5t289 -102.5t110 -270.5t-110 -271t-289 -103zM450 39q155 0 250 89.5t95 235.5t-95 235t-250 89q-154 0 -249 -89.5t-95 -234.5q0 -146 95 -235.5t249 -89.5zM455 161q-174 0 -174 186q0 220 181 220q66 0 106 -28
t48 -79h-70q-12 53 -86 53q-59 0 -83.5 -38t-25.5 -113l4 -1q12 29 44 46t73 17q71 0 110.5 -34t39.5 -93q0 -64 -45.5 -100t-121.5 -36zM456 216q46 0 70.5 21.5t24.5 58.5q0 38 -25.5 58.5t-68.5 20.5q-44 0 -70 -23t-26 -58q0 -38 26 -58t69 -20z" />
    <glyph glyph-name="uni2786" unicode="&#x2786;" 
d="M450 -10q-179 0 -289 103t-110 271t110 270.5t289 102.5t289 -102.5t110 -270.5t-110 -271t-289 -103zM450 39q155 0 250 89.5t95 235.5t-95 235t-250 89q-154 0 -249 -89.5t-95 -234.5q0 -146 95 -235.5t249 -89.5zM401 166q0 191 127 339h-179v-75h-54v133h312v-49
q-72 -85 -103.5 -165t-31.5 -183h-71z" />
    <glyph glyph-name="uni2787" unicode="&#x2787;" 
d="M450 -10q-179 0 -289 103t-110 271t110 270.5t289 102.5t289 -102.5t110 -270.5t-110 -271t-289 -103zM450 39q155 0 250 89.5t95 235.5t-95 235t-250 89q-154 0 -249 -89.5t-95 -234.5q0 -146 95 -235.5t249 -89.5zM451 161q-81 0 -124 29.5t-43 82.5q0 40 25.5 66.5
t64.5 29.5v3q-37 6 -59 29.5t-22 60.5q0 53 43.5 79t114.5 26q72 0 115.5 -26t43.5 -79q0 -36 -22.5 -60t-58.5 -30v-3q39 -3 64 -29.5t25 -66.5q0 -53 -43 -82.5t-124 -29.5zM450 393q88 0 88 60q0 61 -88 61q-87 0 -87 -61q0 -60 87 -60zM450 214q45 0 70.5 17.5
t25.5 49.5q0 64 -96 64q-94 0 -94 -64q0 -32 24.5 -49.5t69.5 -17.5z" />
    <glyph glyph-name="uni2788" unicode="&#x2788;" 
d="M450 -10q-179 0 -289 103t-110 271t110 270.5t289 102.5t289 -102.5t110 -270.5t-110 -271t-289 -103zM450 39q155 0 250 89.5t95 235.5t-95 235t-250 89q-154 0 -249 -89.5t-95 -234.5q0 -146 95 -235.5t249 -89.5zM445 161q-65 0 -107.5 28t-49.5 79h69q12 -52 87 -52
q110 0 107 150l-4 1q-27 -62 -117 -62q-71 0 -110 33.5t-39 92.5q0 64 45 100t121 36q175 0 175 -193q0 -213 -177 -213zM445 354q45 0 70 22t25 59t-25.5 57.5t-68.5 20.5q-46 0 -70 -22t-24 -58q0 -39 24.5 -59t68.5 -20z" />
    <glyph glyph-name="G.ss01" horiz-adv-x="885" 
d="M404 -9q-167 0 -269 101t-102 267q0 174 110 276t296 102q148 0 247.5 -64t118.5 -175h-122q-17 65 -82 104t-162 39q-136 0 -210.5 -76t-74.5 -204q0 -127 73.5 -201t199.5 -74q114 0 189 55.5t75 144.5v20h-281v85h404v-391h-95l-7 141h-7q-30 -69 -112 -109.5
t-189 -40.5z" />
    <glyph glyph-name="a.ss01" horiz-adv-x="602" 
d="M224 -9q-89 0 -143 40.5t-54 111.5q0 93 66.5 130t186.5 37h157v38q0 107 -138 107q-130 0 -141 -91h-111q7 85 73.5 129.5t178.5 44.5q253 0 253 -192v-235q0 -83 14 -111h-108q-9 20 -11 92h-5q-19 -46 -77 -73.5t-141 -27.5zM266 68q80 0 125.5 30t45.5 89v59h-140
q-76 0 -115 -20t-39 -71q0 -41 31.5 -64t91.5 -23z" />
    <glyph glyph-name="aacute.ss01" horiz-adv-x="628" 
d="M273 595l59 142h105l-87 -142h-77zM224 -9q-89 0 -143 40.5t-54 111.5q0 93 66.5 130t186.5 37h157v38q0 107 -138 107q-130 0 -141 -91h-111q7 85 73.5 129.5t178.5 44.5q253 0 253 -192v-235q0 -83 14 -111h-108q-9 20 -11 92h-5q-19 -46 -77 -73.5t-141 -27.5zM266 68
q80 0 125.5 30t45.5 89v59h-140q-76 0 -115 -20t-39 -71q0 -41 31.5 -64t91.5 -23z" />
    <glyph glyph-name="acircumflex.ss01" horiz-adv-x="628" 
d="M138 595l128 142h93l129 -142h-93l-82 89l-83 -89h-92zM224 -9q-89 0 -143 40.5t-54 111.5q0 93 66.5 130t186.5 37h157v38q0 107 -138 107q-130 0 -141 -91h-111q7 85 73.5 129.5t178.5 44.5q253 0 253 -192v-235q0 -83 14 -111h-108q-9 20 -11 92h-5q-19 -46 -77 -73.5
t-141 -27.5zM266 68q80 0 125.5 30t45.5 89v59h-140q-76 0 -115 -20t-39 -71q0 -41 31.5 -64t91.5 -23z" />
    <glyph glyph-name="adieresis.ss01" horiz-adv-x="628" 
d="M170 609v128h93v-128h-93zM361 609v128h94v-128h-94zM224 -9q-89 0 -143 40.5t-54 111.5q0 93 66.5 130t186.5 37h157v38q0 107 -138 107q-130 0 -141 -91h-111q7 85 73.5 129.5t178.5 44.5q253 0 253 -192v-235q0 -83 14 -111h-108q-9 20 -11 92h-5q-19 -46 -77 -73.5
t-141 -27.5zM266 68q80 0 125.5 30t45.5 89v59h-140q-76 0 -115 -20t-39 -71q0 -41 31.5 -64t91.5 -23z" />
    <glyph glyph-name="agrave.ss01" horiz-adv-x="628" 
d="M275 595l-87 142h105l60 -142h-78zM224 -9q-89 0 -143 40.5t-54 111.5q0 93 66.5 130t186.5 37h157v38q0 107 -138 107q-130 0 -141 -91h-111q7 85 73.5 129.5t178.5 44.5q253 0 253 -192v-235q0 -83 14 -111h-108q-9 20 -11 92h-5q-19 -46 -77 -73.5t-141 -27.5zM266 68
q80 0 125.5 30t45.5 89v59h-140q-76 0 -115 -20t-39 -71q0 -41 31.5 -64t91.5 -23z" />
    <glyph glyph-name="aring.ss01" horiz-adv-x="628" 
d="M313 589q-57 0 -90.5 29.5t-33.5 78.5q0 50 34.5 79t89.5 29q56 0 89.5 -29.5t33.5 -78.5q0 -50 -34 -79t-89 -29zM313 640q26 0 42.5 16t16.5 41t-16.5 40.5t-42.5 15.5q-27 0 -43 -15t-16 -41t16.5 -41.5t42.5 -15.5zM224 -9q-89 0 -143 40.5t-54 111.5q0 93 66.5 130
t186.5 37h157v38q0 107 -138 107q-130 0 -141 -91h-111q7 85 73.5 129.5t178.5 44.5q253 0 253 -192v-235q0 -83 14 -111h-108q-9 20 -11 92h-5q-19 -46 -77 -73.5t-141 -27.5zM266 68q80 0 125.5 30t45.5 89v59h-140q-76 0 -115 -20t-39 -71q0 -41 31.5 -64t91.5 -23z" />
    <glyph glyph-name="atilde.ss01" horiz-adv-x="628" 
d="M372 610q-28 0 -65.5 16t-57.5 16q-32 0 -59 -33l-42 28q38 81 104 79q24 0 63 -16t61 -16q34 0 58 34l43 -27q-35 -83 -105 -81zM224 -9q-89 0 -143 40.5t-54 111.5q0 93 66.5 130t186.5 37h157v38q0 107 -138 107q-130 0 -141 -91h-111q7 85 73.5 129.5t178.5 44.5
q253 0 253 -192v-235q0 -83 14 -111h-108q-9 20 -11 92h-5q-19 -46 -77 -73.5t-141 -27.5zM266 68q80 0 125.5 30t45.5 89v59h-140q-76 0 -115 -20t-39 -71q0 -41 31.5 -64t91.5 -23z" />
    <glyph glyph-name="g.ss01" horiz-adv-x="653" 
d="M222 -168q-202 0 -202 118q0 44 32 73t85 37v6q-32 7 -53 29t-21 50q0 36 30.5 61t72.5 31v7q-41 19 -64 53t-23 75q0 77 66.5 122t182.5 45q52 0 102 -14q20 57 72 88t127 29v-83q-48 3 -87 -11.5t-56 -42.5q43 -17 68 -53.5t25 -85.5q0 -74 -65 -117t-183 -43
q-56 0 -103 11q-33 -2 -50 -15t-17 -32q0 -37 87 -37h185q94 0 141.5 -34.5t47.5 -108.5q0 -80 -58 -119t-163 -39h-179zM331 279q64 0 100 23.5t36 66.5q0 47 -37 71.5t-101 24.5q-65 0 -101.5 -24t-36.5 -69t38 -69t102 -24zM238 -106h164q103 0 103 69q0 36 -23.5 50
t-71.5 14h-211q-36 -4 -56 -22t-20 -44q0 -37 29.5 -52t85.5 -15z" />
    <glyph glyph-name="zero.tf" horiz-adv-x="720" 
d="M362 -10q-151 0 -236.5 97t-85.5 273q0 180 86.5 274.5t235.5 94.5q150 0 234 -97t84 -272q0 -179 -86 -274.5t-232 -95.5zM160 360q0 -56 8 -95l367 256q-49 112 -174 112q-98 0 -149.5 -71t-51.5 -202zM362 86q97 0 148.5 71.5t51.5 202.5q0 57 -8 93l-367 -254
q50 -113 175 -113z" />
    <glyph glyph-name="one.tf" horiz-adv-x="720" 
d="M72 0v91h248v407h-204v86h33q80 0 125 37t50 100h112v-630h212v-91h-576z" />
    <glyph glyph-name="two.tf" horiz-adv-x="720" 
d="M73 0v24q0 55 25 100.5t64.5 77t87.5 59.5t95.5 53.5t87 52.5t64.5 62.5t25 77.5q0 63 -44.5 97t-114.5 34q-82 0 -128 -40t-48 -108h-113q6 117 83 178.5t210 61.5q128 0 200 -59.5t72 -159.5q0 -69 -41 -124t-100.5 -91t-119.5 -66.5t-106.5 -66t-53.5 -74.5h430v-89
h-575z" />
    <glyph glyph-name="three.tf" horiz-adv-x="720" 
d="M354 -9q-146 0 -224 62t-80 170h115q1 -71 51.5 -107.5t139.5 -36.5q96 0 146 35t50 96q0 121 -174 121h-99v79h91q85 0 126.5 31.5t41.5 86.5q0 57 -47.5 85.5t-130.5 28.5t-133 -37.5t-52 -104.5h-112q1 108 83 168.5t217 60.5q136 0 214.5 -48t78.5 -141
q0 -64 -41 -107.5t-109 -55.5v-6q75 -8 119.5 -53t44.5 -118q0 -97 -83.5 -153t-232.5 -56z" />
    <glyph glyph-name="four.tf" horiz-adv-x="720" 
d="M460 0v174h-428v84l396 463h149v-455h112l-1 -92h-111v-174h-117zM157 266h303v349z" />
    <glyph glyph-name="five.tf" horiz-adv-x="720" 
d="M353 -9q-141 0 -221 62t-82 167h115q1 -65 53 -102t137 -37q97 0 147.5 42t50.5 114q0 76 -51 115.5t-143 39.5q-65 0 -114 -22t-72 -60h-109l23 411h541v-92h-435l-14 -221l6 -2q29 32 84.5 51.5t117.5 19.5q136 0 210 -63t74 -176q0 -118 -87 -182.5t-231 -64.5z" />
    <glyph glyph-name="six.tf" horiz-adv-x="720" 
d="M367 -8q-327 0 -327 335q0 402 341 402q126 0 200.5 -53t86.5 -139h-114q-10 50 -57 76t-119 26q-65 0 -109 -20.5t-68 -61t-34 -90.5t-11 -119l6 -1q23 55 87 88t147 33q135 0 209.5 -61t74.5 -170q0 -116 -84.5 -180.5t-228.5 -64.5zM370 81q94 0 143.5 41.5
t49.5 113.5q0 73 -51 111.5t-140 38.5q-91 0 -144 -43.5t-53 -111.5q0 -73 52.5 -111.5t142.5 -38.5z" />
    <glyph glyph-name="seven.tf" horiz-adv-x="720" 
d="M270 0q0 354 265 627h-388v-141h-90v235h607v-80q-149 -155 -213 -304.5t-64 -336.5h-117z" />
    <glyph glyph-name="eight.tf" horiz-adv-x="720" 
d="M360 -8q-151 0 -232 53t-81 150q0 74 49 121.5t125 53.5v5q-73 11 -115.5 54t-42.5 110q0 97 81.5 143.5t215.5 46.5t215.5 -47t81.5 -143q0 -67 -42.5 -110t-115.5 -54v-5q76 -5 125.5 -53t49.5 -122q0 -97 -81.5 -150t-232.5 -53zM360 409q181 0 181 116
q0 59 -48.5 87.5t-132.5 28.5q-85 0 -133 -28.5t-48 -87.5q0 -116 181 -116zM360 80q95 0 145 32.5t50 94.5q0 123 -195 123t-195 -123q0 -62 50 -94.5t145 -32.5z" />
    <glyph glyph-name="nine.tf" horiz-adv-x="720" 
d="M348 -8q-123 0 -201.5 50.5t-91.5 141.5h114q10 -50 57.5 -76t119.5 -26q120 0 171 73t48 218l-7 1q-24 -58 -86 -89.5t-147 -31.5q-134 0 -209.5 61.5t-75.5 168.5q0 116 85 181t227 65q328 0 328 -349q0 -388 -332 -388zM349 335q93 0 144.5 42t51.5 113t-52.5 110.5
t-141.5 39.5q-95 0 -144 -41.5t-49 -113.5q0 -74 50.5 -112t140.5 -38z" />
    <glyph glyph-name="zero.tf.ss03" horiz-adv-x="720" 
d="M362 -10q-151 0 -236.5 97t-85.5 273q0 180 86.5 274.5t235.5 94.5q150 0 234 -97t84 -272q0 -179 -86 -274.5t-232 -95.5zM361 633q-92 0 -143 -62t-57 -177h400q-7 118 -58 178.5t-142 60.5zM362 86q90 0 141 62t58 177h-400q6 -118 58 -178.5t143 -60.5z" />
    <glyph glyph-name="zero.dnom" horiz-adv-x="418" 
d="M210 -5q-86 0 -136.5 52t-50.5 146q0 95 50.5 147t136.5 52q85 0 135 -52.5t50 -146.5t-50 -146t-135 -52zM209 56q53 0 82.5 34.5t29.5 102.5q0 69 -29.5 103.5t-81.5 34.5q-53 0 -82.5 -34.5t-29.5 -103.5q0 -68 29 -102.5t82 -34.5z" />
    <glyph glyph-name="one.dnom" horiz-adv-x="214" 
d="M104 0v267h-93v54h17q36 0 56.5 18t23.5 49h71v-388h-75z" />
    <glyph glyph-name="two.dnom" horiz-adv-x="344" 
d="M21 0v14q0 40 23 71.5t56 52t66 38.5t56 42t23 52q0 31 -20 47.5t-53 16.5q-37 0 -57 -20t-22 -53h-71q4 64 44.5 97.5t109.5 33.5t106.5 -31.5t37.5 -85.5q0 -36 -19 -65.5t-47.5 -48t-57.5 -34.5t-52 -34t-28 -38q38 2 77 2h130v-57h-302z" />
    <glyph glyph-name="three.dnom" horiz-adv-x="365" 
d="M181 -5q-77 0 -117.5 33t-42.5 93h74q1 -35 24 -53t63 -18q44 0 67 17.5t23 47.5q0 59 -81 59h-51v49h48q38 0 57.5 15.5t19.5 42.5q0 56 -81 56q-80 0 -85 -70h-72q2 60 45 92.5t114 32.5q72 0 113.5 -26t41.5 -77q0 -33 -20.5 -56t-54.5 -31v-3q36 -4 58.5 -27.5
t22.5 -63.5q0 -52 -44 -82.5t-122 -30.5z" />
    <glyph glyph-name="four.dnom" horiz-adv-x="372" 
d="M233 0v90h-214v52l196 246h93v-240h55l-1 -58h-54v-90h-75zM94 148h139v171z" />
    <glyph glyph-name="five.dnom" horiz-adv-x="367" 
d="M182 -5q-75 0 -116 34t-43 89h74q1 -31 24.5 -48.5t61.5 -17.5q44 0 67.5 20.5t23.5 55.5q0 37 -23.5 56.5t-64.5 19.5q-63 0 -87 -42h-69l12 226h284v-59h-216l-7 -106l4 -1q30 35 97 35q68 0 106.5 -34t38.5 -95q0 -64 -45.5 -98.5t-121.5 -34.5z" />
    <glyph glyph-name="six.dnom" horiz-adv-x="381" 
d="M196 -4q-173 0 -173 182q0 214 179 214q68 0 106.5 -29t46.5 -77h-73q-12 49 -81 49q-56 0 -79.5 -36t-24.5 -104l4 -1q11 26 42 42t72 16q69 0 107.5 -33t38.5 -91q0 -62 -45 -97t-120 -35zM197 52q43 0 66 20.5t23 55.5t-23.5 54t-64.5 19q-42 0 -66 -21.5t-24 -54.5
q0 -35 24 -54t65 -19z" />
    <glyph glyph-name="seven.dnom" horiz-adv-x="326" 
d="M111 0q0 184 124 327h-170v-72h-56v133h309v-51q-70 -82 -101 -159t-31 -178h-75z" />
    <glyph glyph-name="eight.dnom" horiz-adv-x="358" 
d="M179 -5q-80 0 -122.5 29t-42.5 81q0 39 24 64.5t63 29.5v2q-36 6 -57 29t-21 59q0 52 43 77.5t113 25.5q71 0 114 -25.5t43 -77.5q0 -36 -21 -59t-57 -29v-2q38 -4 62.5 -29.5t24.5 -64.5q0 -52 -42.5 -81t-123.5 -29zM179 222q83 0 83 57t-83 57q-82 0 -82 -57t82 -57z
M179 51q90 0 90 62q0 61 -90 61q-89 0 -89 -61q0 -62 89 -62z" />
    <glyph glyph-name="nine.dnom" horiz-adv-x="381" 
d="M183 -4q-65 0 -107 27t-50 78h74q12 -48 82 -48q106 0 101 140l-4 1q-12 -28 -42.5 -43.5t-70.5 -15.5q-69 0 -107.5 33t-38.5 90q0 64 44.5 99t120.5 35q173 0 173 -189q0 -207 -175 -207zM183 186q43 0 66.5 21t23.5 55q0 35 -24 54t-65 19q-44 0 -67 -20t-23 -55
q0 -36 24 -55t65 -19z" />
    <glyph glyph-name="zero.numr" horiz-adv-x="418" 
d="M210 328q-86 0 -136.5 52.5t-50.5 146.5t50.5 146t136.5 52q85 0 135 -52t50 -146q0 -95 -50 -147t-135 -52zM209 389q53 0 82.5 35t29.5 103t-29.5 103t-81.5 35q-53 0 -82.5 -35t-29.5 -103t29 -103t82 -35z" />
    <glyph glyph-name="one.numr" horiz-adv-x="214" 
d="M104 333v267h-93v55h17q73 0 80 66h71v-388h-75z" />
    <glyph glyph-name="two.numr" horiz-adv-x="344" 
d="M21 333v14q0 40 23 72t56 52t66 38.5t56 42t23 52.5q0 31 -20 47t-53 16q-37 0 -57 -19.5t-22 -53.5h-71q4 64 44.5 97.5t109.5 33.5t106.5 -31.5t37.5 -85.5q0 -44 -29.5 -78.5t-65.5 -52.5t-69.5 -41.5t-39.5 -46.5q19 1 77 1h130v-57h-302z" />
    <glyph glyph-name="three.numr" horiz-adv-x="365" 
d="M181 328q-77 0 -117.5 33.5t-42.5 92.5h74q1 -34 24 -52t63 -18q44 0 67 17t23 47q0 59 -81 59h-51v50h48q77 0 77 57q0 56 -81 56q-80 0 -85 -69h-72q2 59 45 91.5t114 32.5q72 0 113.5 -26t41.5 -76q0 -34 -20.5 -57t-54.5 -31v-2q36 -4 58.5 -28t22.5 -64
q0 -52 -44 -82.5t-122 -30.5z" />
    <glyph glyph-name="four.numr" horiz-adv-x="372" 
d="M233 333v91h-214v52l196 245h93v-239h55l-1 -58h-54v-91h-75zM94 482h139v170z" />
    <glyph glyph-name="five.numr" horiz-adv-x="367" 
d="M182 328q-75 0 -116 34t-43 89h74q1 -31 24.5 -48.5t61.5 -17.5q44 0 67.5 21t23.5 56q0 37 -23.5 56t-64.5 19q-63 0 -87 -41h-69l12 225h284v-59h-216l-7 -105l4 -2q30 35 97 35q68 0 106.5 -33.5t38.5 -94.5q0 -64 -45.5 -99t-121.5 -35z" />
    <glyph glyph-name="six.numr" horiz-adv-x="381" 
d="M196 329q-173 0 -173 183q0 213 179 213q68 0 106.5 -29t46.5 -76h-73q-12 48 -81 48q-56 0 -79.5 -35.5t-24.5 -103.5l4 -1q11 26 42 42t72 16q69 0 107.5 -33t38.5 -91q0 -63 -45 -98t-120 -35zM197 386q43 0 66 20t23 55q0 36 -23.5 55t-64.5 19q-42 0 -66 -21.5
t-24 -54.5q0 -36 23.5 -54.5t65.5 -18.5z" />
    <glyph glyph-name="seven.numr" horiz-adv-x="326" 
d="M111 333q0 183 124 328h-170v-72h-56v132h309v-51q-70 -81 -101 -158.5t-31 -178.5h-75z" />
    <glyph glyph-name="eight.numr" horiz-adv-x="358" 
d="M179 328q-80 0 -122.5 29.5t-42.5 81.5q0 38 24 63.5t63 29.5v3q-35 5 -56.5 28t-21.5 59q0 53 42.5 78t113.5 25t114 -25t43 -78q0 -35 -21 -58t-57 -29v-3q38 -3 62.5 -28.5t24.5 -64.5q0 -52 -42.5 -81.5t-123.5 -29.5zM179 556q83 0 83 57t-83 57q-82 0 -82 -57
t82 -57zM179 384q90 0 90 63q0 60 -90 60q-89 0 -89 -60q0 -63 89 -63z" />
    <glyph glyph-name="nine.numr" horiz-adv-x="381" 
d="M183 329q-65 0 -107 27.5t-50 78.5h74q12 -49 82 -49q106 0 101 140l-4 1q-12 -28 -42.5 -43.5t-70.5 -15.5q-69 0 -107.5 33t-38.5 90q0 63 44.5 98.5t120.5 35.5q173 0 173 -189q0 -207 -175 -207zM183 520q43 0 66.5 21t23.5 55q0 35 -24 54t-65 19q-44 0 -67 -20.5
t-23 -55.5q0 -36 23.5 -54.5t65.5 -18.5z" />
    <glyph glyph-name="parenleft.case" horiz-adv-x="316" 
d="M214 -63q-76 69 -120.5 185t-44.5 243t44.5 243t120.5 185h94q-70 -71 -110.5 -187.5t-40.5 -240.5q0 -126 41.5 -242t109.5 -186h-94z" />
    <glyph glyph-name="parenright.case" horiz-adv-x="316" 
d="M8 -63q68 70 109.5 186t41.5 242q0 124 -40.5 240.5t-110.5 187.5h94q76 -68 120.5 -184.5t44.5 -243.5t-44.5 -243.5t-120.5 -184.5h-94z" />
    <glyph glyph-name="braceleft.case" horiz-adv-x="426" 
d="M226 -63q-40 0 -61 23t-21 59v219q0 38 -18 59.5t-45 21.5h-39v92h39q27 0 45 22t18 61v217q0 36 21 59t61 23h182v-80h-162v-224q0 -54 -22 -84t-56 -35v-4q78 -20 78 -124v-225h162v-80h-182z" />
    <glyph glyph-name="braceright.case" horiz-adv-x="425" 
d="M18 -63v80h161v225q0 104 79 124v4q-35 5 -57 35.5t-22 83.5v224h-161v80h182q40 0 61 -23t21 -59v-217q0 -39 18 -61t45 -22h38v-92h-38q-27 0 -45 -21.5t-18 -59.5v-219q0 -36 -21 -59t-61 -23h-182z" />
    <glyph glyph-name="bracketleft.case" horiz-adv-x="354" 
d="M64 -63v856h272v-84h-169v-688h169v-84h-272z" />
    <glyph glyph-name="bracketright.case" horiz-adv-x="354" 
d="M18 -63v84h169v688h-169v84h272v-856h-272z" />
    <glyph glyph-name="a.ss01.BRACKET.varAlt01" horiz-adv-x="628" 
d="M230 -9q-89 0 -143 40t-54 112q0 93 66.5 130t185.5 37h158v38q0 107 -138 107q-130 0 -141 -91h-111q7 85 73.5 129.5t177.5 44.5q254 0 254 -192v-239q0 -38 30 -38q16 0 29 9v-73q-20 -13 -67 -13q-45 0 -71.5 22t-26.5 61v17h-4q-19 -46 -77.5 -73.5t-140.5 -27.5z
M271 68q80 0 126 30.5t46 88.5v59h-140q-76 0 -115 -20t-39 -71q0 -41 31.5 -64t90.5 -23z" />
    <glyph glyph-name="aacute.ss01.BRACKET.varAlt01" horiz-adv-x="628" 
d="M273 595l59 142h105l-87 -142h-77zM230 -9q-89 0 -143 40t-54 112q0 93 66.5 130t185.5 37h158v38q0 107 -138 107q-130 0 -141 -91h-111q7 85 73.5 129.5t177.5 44.5q254 0 254 -192v-239q0 -38 30 -38q16 0 29 9v-73q-20 -13 -67 -13q-45 0 -71.5 22t-26.5 61v17h-4
q-19 -46 -77.5 -73.5t-140.5 -27.5zM271 68q80 0 126 30.5t46 88.5v59h-140q-76 0 -115 -20t-39 -71q0 -41 31.5 -64t90.5 -23z" />
    <glyph glyph-name="acircumflex.ss01.BRACKET.varAlt01" horiz-adv-x="628" 
d="M138 595l128 142h93l129 -142h-93l-82 89l-83 -89h-92zM230 -9q-89 0 -143 40t-54 112q0 93 66.5 130t185.5 37h158v38q0 107 -138 107q-130 0 -141 -91h-111q7 85 73.5 129.5t177.5 44.5q254 0 254 -192v-239q0 -38 30 -38q16 0 29 9v-73q-20 -13 -67 -13
q-45 0 -71.5 22t-26.5 61v17h-4q-19 -46 -77.5 -73.5t-140.5 -27.5zM271 68q80 0 126 30.5t46 88.5v59h-140q-76 0 -115 -20t-39 -71q0 -41 31.5 -64t90.5 -23z" />
    <glyph glyph-name="adieresis.ss01.BRACKET.varAlt01" horiz-adv-x="628" 
d="M170 609v128h93v-128h-93zM361 609v128h94v-128h-94zM230 -9q-89 0 -143 40t-54 112q0 93 66.5 130t185.5 37h158v38q0 107 -138 107q-130 0 -141 -91h-111q7 85 73.5 129.5t177.5 44.5q254 0 254 -192v-239q0 -38 30 -38q16 0 29 9v-73q-20 -13 -67 -13q-45 0 -71.5 22
t-26.5 61v17h-4q-19 -46 -77.5 -73.5t-140.5 -27.5zM271 68q80 0 126 30.5t46 88.5v59h-140q-76 0 -115 -20t-39 -71q0 -41 31.5 -64t90.5 -23z" />
    <glyph glyph-name="agrave.ss01.BRACKET.varAlt01" horiz-adv-x="628" 
d="M275 595l-87 142h105l60 -142h-78zM230 -9q-89 0 -143 40t-54 112q0 93 66.5 130t185.5 37h158v38q0 107 -138 107q-130 0 -141 -91h-111q7 85 73.5 129.5t177.5 44.5q254 0 254 -192v-239q0 -38 30 -38q16 0 29 9v-73q-20 -13 -67 -13q-45 0 -71.5 22t-26.5 61v17h-4
q-19 -46 -77.5 -73.5t-140.5 -27.5zM271 68q80 0 126 30.5t46 88.5v59h-140q-76 0 -115 -20t-39 -71q0 -41 31.5 -64t90.5 -23z" />
    <glyph glyph-name="aring.ss01.BRACKET.varAlt01" horiz-adv-x="628" 
d="M313 589q-57 0 -90.5 29.5t-33.5 78.5q0 50 34.5 79t89.5 29q56 0 89.5 -29.5t33.5 -78.5q0 -50 -34 -79t-89 -29zM313 640q26 0 42.5 16t16.5 41t-16.5 40.5t-42.5 15.5q-27 0 -43 -15t-16 -41t16.5 -41.5t42.5 -15.5zM230 -9q-89 0 -143 40t-54 112q0 93 66.5 130
t185.5 37h158v38q0 107 -138 107q-130 0 -141 -91h-111q7 85 73.5 129.5t177.5 44.5q254 0 254 -192v-239q0 -38 30 -38q16 0 29 9v-73q-20 -13 -67 -13q-45 0 -71.5 22t-26.5 61v17h-4q-19 -46 -77.5 -73.5t-140.5 -27.5zM271 68q80 0 126 30.5t46 88.5v59h-140
q-76 0 -115 -20t-39 -71q0 -41 31.5 -64t90.5 -23z" />
    <glyph glyph-name="atilde.ss01.BRACKET.varAlt01" horiz-adv-x="628" 
d="M372 610q-28 0 -65.5 16t-57.5 16q-32 0 -59 -33l-42 28q38 81 104 79q24 0 63 -16t61 -16q34 0 58 34l43 -27q-35 -83 -105 -81zM230 -9q-89 0 -143 40t-54 112q0 93 66.5 130t185.5 37h158v38q0 107 -138 107q-130 0 -141 -91h-111q7 85 73.5 129.5t177.5 44.5
q254 0 254 -192v-239q0 -38 30 -38q16 0 29 9v-73q-20 -13 -67 -13q-45 0 -71.5 22t-26.5 61v17h-4q-19 -46 -77.5 -73.5t-140.5 -27.5zM271 68q80 0 126 30.5t46 88.5v59h-140q-76 0 -115 -20t-39 -71q0 -41 31.5 -64t90.5 -23z" />
    <glyph glyph-name="cent.BRACKET.varAlt01" horiz-adv-x="657" 
d="M290 -85v78q-120 11 -188.5 83.5t-68.5 188.5q0 113 70 185t187 85v77h79v-76q109 -7 177 -58.5t76 -132.5h-115q-26 87 -138 100v-361q55 8 93 36t48 70h116q-10 -82 -81 -135.5t-176 -61.5v-78h-79zM149 264q0 -73 37 -119.5t104 -58.5v356q-66 -14 -103.5 -61
t-37.5 -117z" />
    <glyph glyph-name="dollar.BRACKET.varAlt01" horiz-adv-x="689" 
d="M303 -85v78q-137 9 -205 71t-71 165h124q7 -133 152 -150v250q-133 20 -195.5 62t-62.5 138q0 91 69 145t189 62v78h82v-78q114 -10 179 -65.5t71 -147.5h-121q-7 108 -129 127v-228q71 -10 116.5 -22t85 -36t57.5 -63t18 -97q0 -94 -73.5 -149t-203.5 -63v-77h-82z
M168 541q0 -51 30.5 -73t104.5 -34v218q-66 -7 -100.5 -36t-34.5 -75zM538 196q0 59 -35.5 83.5t-117.5 37.5v-239q153 12 153 118z" />
    </font>
</defs>
</svg>
