<?xml version="1.0" standalone="no"?>
<!DOCTYPE svg PUBLIC "-//W3C//DTD SVG 1.1//EN" "http://www.w3.org/Graphics/SVG/1.1/DTD/svg11.dtd" >
<svg xmlns="http://www.w3.org/2000/svg" xmlns:xlink="http://www.w3.org/1999/xlink" version="1.1">
<metadata>
Created by FontForge 20190801 at Fri Sep  1 09:11:10 2023
 By www-data
Copyright 2022 The Mona Sans Project Authors (https://github.com/github/mona-sans), with Reserved Font Name "Mona"
</metadata>
<defs>
<font id="MonaSansExpandedLight" horiz-adv-x="902" >
  <font-face 
    font-family="MonaSansExpandedLight"
    font-weight="300"
    font-stretch="expanded"
    units-per-em="1000"
    panose-1="0 0 0 0 0 0 0 0 0 0"
    ascent="800"
    descent="-200"
    x-height="521"
    cap-height="729"
    bbox="-210 -218 1302 1000"
    underline-thickness="50"
    underline-position="-125"
    unicode-range="U+0020-FB02"
  />
<missing-glyph horiz-adv-x="865" 
d="M432 738q160 0 271.5 -112t111.5 -270q0 -126 -72.5 -226.5t-187.5 -137.5q-12 -3 -19.5 2t-7.5 16v105q0 49 -26 71q37 4 64.5 13t54.5 29t41.5 57t14.5 91q0 59 -40 101q19 47 -4 102q-31 11 -104 -40q-45 14 -97 14q-51 0 -96 -14q-32 23 -58 33t-36 8l-10 -1
q-23 -55 -4 -102q-40 -42 -40 -101q0 -53 14.5 -90t41.5 -57t54.5 -29.5t64.5 -13.5q-20 -19 -26 -52q-74 -32 -109 31q-22 38 -60 41q-4 0 -8 -1t-8.5 -6t15.5 -17q24 -11 40 -56q1 -3 3.5 -7t12 -15.5t23 -17t37 -10.5t54.5 4v-70q0 -11 -7 -16t-18 -2q-116 37 -189 137
t-73 227q0 158 111.5 270t270.5 112zM196 189q-1 -4 -8 -2q-4 3 -3 5q0 8 6 0q5 0 5 -3zM209 171q-1 -1 -7 1q-2 2 -2.5 4.5t0.5 3.5q5 3 9 -1q2 -7 0 -8zM227 148q-6 -4 -11 3q-2 2 -2 5.5t2 4.5q5 3 11 -3q2 -7 0 -10zM246 127q-1 -2 -4.5 -1t-4.5 3q-6 6 -3 10q5 3 10 -2
q5 -7 2 -10zM274 115q-2 -5 -10 -3q-5 2 -5 8q2 6 10 3q5 -3 5 -8zM334 118q3 -5 -7 -7q-8 0 -8 4q-2 2 0.5 4.5t6.5 2.5q8 2 8 -4zM305 114q0 -6 -7 -9q-7 0 -7 9q0 4 7 4t7 -4z" />
    <glyph glyph-name="fl" unicode="fl" horiz-adv-x="551" 
d="M119 0v470h-105v51h105v76q0 132 138 132h63v-49h-53q-45 0 -65 -21t-20 -67v-71h244v208h63v-729h-63v470h-244v-470h-63z" />
    <glyph glyph-name="f_f.liga" unicode="ff" horiz-adv-x="616" 
d="M119 0v470h-105v51h105v76q0 132 138 132h63v-49h-53q-45 0 -65 -21t-20 -67v-71h229v76q0 132 139 132h62v-49h-52q-45 0 -65.5 -21t-20.5 -67v-71h134v-51h-134v-470h-63v470h-229v-470h-63z" />
    <glyph glyph-name="t_t.liga" unicode="tt" horiz-adv-x="651" 
d="M239 0q-111 0 -111 98v372h-114v51h114v158l63 14v-172h233v158l63 14v-172h143v-51h-143v-357q0 -32 16.5 -44t50.5 -12h76v-57h-95q-111 0 -111 98v372h-233v-357q0 -32 16.5 -44t50.5 -12h76v-57h-95z" />
    <glyph glyph-name=".notdef" horiz-adv-x="865" 
d="M432 738q160 0 271.5 -112t111.5 -270q0 -126 -72.5 -226.5t-187.5 -137.5q-12 -3 -19.5 2t-7.5 16v105q0 49 -26 71q37 4 64.5 13t54.5 29t41.5 57t14.5 91q0 59 -40 101q19 47 -4 102q-31 11 -104 -40q-45 14 -97 14q-51 0 -96 -14q-32 23 -58 33t-36 8l-10 -1
q-23 -55 -4 -102q-40 -42 -40 -101q0 -53 14.5 -90t41.5 -57t54.5 -29.5t64.5 -13.5q-20 -19 -26 -52q-74 -32 -109 31q-22 38 -60 41q-4 0 -8 -1t-8.5 -6t15.5 -17q24 -11 40 -56q1 -3 3.5 -7t12 -15.5t23 -17t37 -10.5t54.5 4v-70q0 -11 -7 -16t-18 -2q-116 37 -189 137
t-73 227q0 158 111.5 270t270.5 112zM196 189q-1 -4 -8 -2q-4 3 -3 5q0 8 6 0q5 0 5 -3zM209 171q-1 -1 -7 1q-2 2 -2.5 4.5t0.5 3.5q5 3 9 -1q2 -7 0 -8zM227 148q-6 -4 -11 3q-2 2 -2 5.5t2 4.5q5 3 11 -3q2 -7 0 -10zM246 127q-1 -2 -4.5 -1t-4.5 3q-6 6 -3 10q5 3 10 -2
q5 -7 2 -10zM274 115q-2 -5 -10 -3q-5 2 -5 8q2 6 10 3q5 -3 5 -8zM334 118q3 -5 -7 -7q-8 0 -8 4q-2 2 0.5 4.5t6.5 2.5q8 2 8 -4zM305 114q0 -6 -7 -9q-7 0 -7 9q0 4 7 4t7 -4z" />
    <glyph glyph-name=".null" horiz-adv-x="0" 
 />
    <glyph glyph-name="nonmarkingreturn" horiz-adv-x="333" 
 />
    <glyph glyph-name="space" unicode=" " horiz-adv-x="234" 
 />
    <glyph glyph-name="exclam" unicode="!" horiz-adv-x="160" 
d="M64 193l-15 299v237h62v-237l-15 -299h-32zM47 0v76h67v-76h-67z" />
    <glyph glyph-name="quotedbl" unicode="&#x22;" horiz-adv-x="368" 
d="M112 437h-30l-12 160v132h54v-132zM286 437h-29l-13 160v132h54v-132z" />
    <glyph glyph-name="numbersign" unicode="#" horiz-adv-x="721" 
d="M184 0v215h-153v46h153v228h-153v45h153v195h54v-195h250v195h54v-195h147v-45h-147v-228h147v-46h-147v-215h-54v215h-250v-215h-54zM238 261h250v228h-250v-228z" />
    <glyph glyph-name="dollar" unicode="$" horiz-adv-x="670" 
d="M310 -85v77q-138 6 -205.5 67.5t-71.5 166.5h68q8 -172 209 -182v308q-51 7 -85 14.5t-70 21.5t-56.5 33t-34 50t-13.5 72q0 88 70 138.5t189 55.5v77h48v-78q118 -6 182.5 -61.5t68.5 -147.5h-67q-4 72 -51.5 112t-132.5 46v-280q54 -7 88.5 -14.5t74.5 -22.5t62.5 -36
t38 -56t15.5 -82q0 -93 -74.5 -145t-204.5 -57v-77h-48zM119 548q0 -67 44.5 -94t146.5 -42v274q-94 -3 -142.5 -40t-48.5 -98zM568 191q0 33 -10 57.5t-26.5 40t-45 26.5t-57 17.5t-71.5 12.5v-302q210 7 210 148z" />
    <glyph glyph-name="percent" unicode="%" horiz-adv-x="910" 
d="M162 0l529 729h58l-530 -729h-57zM204 323q-83 0 -132.5 52.5t-49.5 148.5t49 148.5t132 52.5q82 0 131 -52.5t49 -148.5t-48.5 -148.5t-130.5 -52.5zM203 366q61 0 95 40.5t34 117.5t-34 117.5t-95 40.5t-94.5 -40.5t-33.5 -117.5t33.5 -117.5t94.5 -40.5zM709 -5
q-83 0 -132.5 52.5t-49.5 148.5t49.5 148.5t131.5 52.5t131 -52.5t49 -148.5t-48.5 -148.5t-130.5 -52.5zM708 38q61 0 95 40.5t34 117.5t-34 117.5t-95 40.5t-94.5 -40.5t-33.5 -117.5t33.5 -117.5t94.5 -40.5z" />
    <glyph glyph-name="ampersand" unicode="&#x26;" horiz-adv-x="780" 
d="M268 -10q-102 0 -165 53t-63 142q0 74 47 132.5t139 88.5q-58 53 -81.5 90t-23.5 81q0 72 53.5 117t137.5 45q85 0 136.5 -42.5t51.5 -115.5q0 -64 -47 -111.5t-130 -73.5v-3l202 -186q28 79 28 176h159v-49h-110q-7 -88 -36 -165l180 -169h-84l-133 124
q-39 -66 -107.5 -100t-153.5 -34zM283 426h5q72 18 113 59t41 92q0 53 -34.5 82.5t-92.5 29.5q-60 0 -96 -31t-36 -81q0 -40 25 -75t75 -76zM104 195q0 -73 49.5 -114t130.5 -39q151 6 206 118l-229 213q-79 -25 -118 -71t-39 -107z" />
    <glyph glyph-name="quotesingle" unicode="'" horiz-adv-x="194" 
d="M112 437h-30l-12 160v132h54v-132z" />
    <glyph glyph-name="parenleft" unicode="(" horiz-adv-x="308" 
d="M240 -167q-87 79 -136 208.5t-49 271.5t49 271.5t136 208.5h56q-84 -79 -132 -209t-48 -271q0 -144 49.5 -273.5t130.5 -206.5h-56z" />
    <glyph glyph-name="parenright" unicode=")" horiz-adv-x="308" 
d="M68 793q87 -79 136 -208.5t49 -271.5t-49 -271.5t-136 -208.5h-56q84 79 132 209t48 271q0 144 -49.5 273.5t-130.5 206.5h56z" />
    <glyph glyph-name="asterisk" unicode="*" horiz-adv-x="352" 
d="M156 439v58l11 71l-56 -44l-52 -29l-19 32l51 30l63 27l-63 28l-50 27l18 33l52 -28l56 -41l-11 69v57h38v-57l-10 -69l58 41l52 28l17 -33l-51 -27l-62 -28l62 -27l51 -30l-17 -32l-52 29l-58 44l10 -71v-58h-38z" />
    <glyph glyph-name="plus" unicode="+" horiz-adv-x="642" 
d="M293 112v223h-221v52h221v224h56v-224h222v-52h-222v-223h-56z" />
    <glyph glyph-name="comma" unicode="," horiz-adv-x="166" 
d="M36 -150v37l11 1q35 3 35 56v56h-32v76h69v-138q0 -82 -66 -88h-17z" />
    <glyph glyph-name="hyphen" unicode="-" horiz-adv-x="395" 
d="M49 235v51h297v-51h-297z" />
    <glyph glyph-name="period" unicode="." horiz-adv-x="163" 
d="M47 0v76h69v-76h-69z" />
    <glyph glyph-name="slash" unicode="/" horiz-adv-x="488" 
d="M12 -81l402 810h61l-400 -810h-63z" />
    <glyph glyph-name="zero" unicode="0" horiz-adv-x="781" 
d="M392 -10q-154 0 -246 96t-92 274t91 273.5t246 95.5q152 0 244 -95.5t92 -273.5t-91 -274t-244 -96zM391 45q129 0 200 82t71 233t-70.5 232.5t-200.5 81.5q-131 0 -201.5 -81.5t-70.5 -232.5t70 -233t202 -82z" />
    <glyph glyph-name="one" unicode="1" horiz-adv-x="336" 
d="M198 0v558h-174v48h33q131 0 141 115h64v-721h-64z" />
    <glyph glyph-name="two" unicode="2" horiz-adv-x="639" 
d="M48 0v19q0 62 35.5 112t88.5 81t115.5 64.5t115.5 62.5t88.5 75t35.5 102q0 78 -55 120t-148 42q-100 0 -156.5 -48t-57.5 -129h-61q1 109 76.5 169t201.5 60q123 0 193.5 -57.5t70.5 -152.5q0 -54 -25.5 -99.5t-66 -77t-90 -59.5t-99.5 -53t-91 -50.5t-68 -58.5t-29 -72
h481v-50h-555z" />
    <glyph glyph-name="three" unicode="3" horiz-adv-x="677" 
d="M337 -8q-138 0 -214.5 62t-77.5 167h62q1 -87 63 -133t168 -46q116 0 176.5 42.5t60.5 116.5q0 148 -207 148h-99v48h88q203 0 203 143q0 71 -58 105t-159 34q-100 0 -161 -47.5t-62 -128.5h-60q-4 102 76.5 164t207.5 62q128 0 204.5 -46t76.5 -138q0 -67 -44 -111.5
t-116 -56.5v-5q81 -8 128 -53.5t47 -121.5q0 -96 -81 -150.5t-222 -54.5z" />
    <glyph glyph-name="four" unicode="4" horiz-adv-x="689" 
d="M483 0v189h-455v52l427 480h91v-480h123v-52h-123v-189h-63zM97 241h386v429z" />
    <glyph glyph-name="five" unicode="5" horiz-adv-x="694" 
d="M346 -8q-133 0 -212 62.5t-80 165.5h62q0 -80 63.5 -128.5t167.5 -48.5q118 0 180 51.5t62 139.5q0 94 -61.5 142.5t-175.5 48.5q-76 0 -134 -26t-86 -70h-61l21 392h523v-51h-465l-17 -281l5 -1q32 39 93 62.5t132 23.5q141 0 215.5 -63.5t74.5 -174.5
q0 -115 -83.5 -179.5t-223.5 -64.5z" />
    <glyph glyph-name="six" unicode="6" horiz-adv-x="713" 
d="M367 -8q-163 0 -238 83t-75 240q0 216 80.5 315t245.5 99q116 0 189 -50t83 -132h-62q-10 63 -67 97t-144 34q-80 0 -133 -26t-80.5 -78t-38 -113t-11.5 -149h5q23 69 93.5 110.5t165.5 41.5q134 0 209.5 -61t75.5 -170q0 -113 -81 -177t-217 -64zM369 43q113 0 172.5 51
t59.5 139q0 89 -61.5 136t-167.5 47q-109 0 -173.5 -54t-64.5 -136q0 -89 63.5 -136t171.5 -47z" />
    <glyph glyph-name="seven" unicode="7" horiz-adv-x="604" 
d="M236 0q0 367 272 669h-434v-158h-51v210h558v-43q-153 -171 -216.5 -334.5t-63.5 -343.5h-65z" />
    <glyph glyph-name="eight" unicode="8" horiz-adv-x="674" 
d="M337 -8q-142 0 -221.5 52t-79.5 148q0 78 53 126t134 53v4q-80 11 -125.5 54.5t-45.5 114.5q0 94 78.5 139.5t206.5 45.5t207 -46t79 -139q0 -71 -46 -114.5t-126 -54.5v-4q81 -4 134 -52.5t53 -126.5q0 -96 -79.5 -148t-221.5 -52zM337 396q222 0 222 140q0 72 -60 107
t-162 35q-103 0 -162.5 -34.5t-59.5 -107.5q0 -140 222 -140zM337 43q117 0 176.5 40t59.5 116q0 148 -236 148t-236 -148q0 -76 60 -116t176 -40z" />
    <glyph glyph-name="nine" unicode="9" horiz-adv-x="714" 
d="M341 -8q-116 0 -190.5 49t-84.5 133h62q10 -62 67 -96.5t145 -34.5q148 0 205 90.5t54 275.5h-5q-25 -74 -93.5 -113t-165.5 -39q-134 0 -210 61t-76 170q0 113 81 177t217 64q163 0 238.5 -87t75.5 -256q0 -206 -80 -300t-240 -94zM343 305q112 0 174.5 52t62.5 138
t-63.5 134.5t-170.5 48.5q-114 0 -173 -51t-59 -139q0 -89 61.5 -136t167.5 -47z" />
    <glyph glyph-name="colon" unicode=":" horiz-adv-x="163" 
d="M47 445v76h69v-76h-69zM47 0v76h69v-76h-69z" />
    <glyph glyph-name="semicolon" unicode=";" horiz-adv-x="166" 
d="M50 445v76h69v-76h-69zM36 -150v37l11 1q35 3 35 56v56h-32v76h69v-138q0 -82 -66 -88h-17z" />
    <glyph glyph-name="less" unicode="&#x3c;" horiz-adv-x="756" 
d="M646 108l-536 216v73l536 217v-63l-471 -187v-6l471 -187v-63z" />
    <glyph glyph-name="equal" unicode="=" horiz-adv-x="703" 
d="M104 456v53h496v-53h-496zM104 214v52h496v-52h-496z" />
    <glyph glyph-name="greater" unicode="&#x3e;" horiz-adv-x="756" 
d="M110 108v63l471 187v6l-471 187v63l536 -217v-73z" />
    <glyph glyph-name="question" unicode="?" horiz-adv-x="550" 
d="M243 175v12q0 40 21.5 76t52.5 64t61.5 57t52 68.5t21.5 86.5q0 70 -47 108.5t-128 38.5q-84 0 -132 -40t-52 -109h-60q6 96 72.5 149t175.5 53q108 0 172 -53.5t64 -143.5q0 -52 -22 -96.5t-53.5 -75.5t-63.5 -59t-54 -59.5t-22 -64.5v-12h-59zM241 0v76h67v-76h-67z
" />
    <glyph glyph-name="at" unicode="@" horiz-adv-x="970" 
d="M487 -101q-211 0 -330 112.5t-119 301.5q0 190 125.5 307.5t327.5 117.5q192 0 316 -103t124 -268q0 -118 -54.5 -190t-143.5 -72q-56 0 -89 30t-36 80h-3q-19 -54 -63.5 -81.5t-98.5 -27.5q-74 0 -125 49.5t-51 141.5q0 98 53 158.5t139 60.5q54 0 95 -27t55 -71h3
l10 86h41l-18 -227q-6 -71 17.5 -101t71.5 -30q67 0 107.5 60t40.5 158q0 147 -109 238t-283 91q-181 0 -290.5 -105t-109.5 -273q0 -177 107 -274t288 -97q154 0 247 66l20 -38q-45 -34 -119.5 -53.5t-145.5 -19.5zM449 149q73 0 112 46t44 126q-2 70 -39.5 112t-97.5 42
q-72 1 -111.5 -47.5t-39.5 -130.5q0 -70 36 -109t96 -39z" />
    <glyph glyph-name="A" unicode="A" horiz-adv-x="812" 
d="M12 0l352 729h83l352 -729h-70l-92 189h-463l-91 -189h-71zM198 242h417l-165 337l-42 91h-3l-44 -93z" />
    <glyph glyph-name="B" unicode="B" horiz-adv-x="727" 
d="M69 0v729h395q105 0 162.5 -50t57.5 -136q0 -63 -32 -107t-94 -58v-4q70 -12 108 -59t38 -114q0 -94 -65 -147.5t-177 -53.5h-393zM134 399h334q73 0 112 36.5t39 98.5q0 67 -44.5 105t-120.5 38h-320v-278zM134 53h322q88 0 134.5 41.5t46.5 111.5q0 67 -43.5 104.5
t-122.5 37.5h-337v-295z" />
    <glyph glyph-name="C" unicode="C" horiz-adv-x="818" 
d="M426 -8q-176 0 -282 102t-106 270t106 270t282 102q144 0 240 -66t117 -179h-66q-19 86 -97.5 137.5t-193.5 51.5q-149 0 -234.5 -85.5t-85.5 -230.5t86 -230.5t234 -85.5q118 0 196 52.5t95 140.5l66 -1q-17 -114 -114.5 -181t-242.5 -67z" />
    <glyph glyph-name="D" unicode="D" horiz-adv-x="795" 
d="M69 0v729h316q173 0 272 -99t99 -266q0 -168 -100 -266t-271 -98h-316zM134 57h244q148 0 230 83t82 225q0 146 -84 227t-228 81h-244v-616z" />
    <glyph glyph-name="E" unicode="E" horiz-adv-x="677" 
d="M69 0v729h576v-56h-511v-273h463v-53h-463v-290h511v-57h-576z" />
    <glyph glyph-name="F" unicode="F" horiz-adv-x="663" 
d="M69 0v729h570v-56h-505v-283h465v-54h-465v-336h-65z" />
    <glyph glyph-name="G" unicode="G" horiz-adv-x="840" 
d="M424 -8q-175 0 -280.5 102t-105.5 270t106.5 270t281.5 102q143 0 240 -67t116 -179h-66q-19 87 -97.5 138t-192.5 51q-147 0 -235 -85.5t-88 -228.5q0 -145 87.5 -231t234.5 -86q140 0 224.5 73.5t84.5 199.5h-324v51h391v-33q0 -161 -104 -254t-273 -93z" />
    <glyph glyph-name="H" unicode="H" horiz-adv-x="819" 
d="M69 0v729h65v-331h552v331h65v-729h-65v342h-552v-342h-65z" />
    <glyph glyph-name="I" unicode="I" horiz-adv-x="202" 
d="M69 0v729h65v-729h-65z" />
    <glyph glyph-name="J" unicode="J" horiz-adv-x="423" 
d="M140 -8q-65 0 -102 20v57q34 -21 94 -21q78 0 117.5 38.5t39.5 125.5v517h65v-525q0 -109 -56.5 -160.5t-157.5 -51.5z" />
    <glyph glyph-name="K" unicode="K" horiz-adv-x="721" 
d="M69 0v729h63v-461l483 461h84l-331 -315l340 -414h-82l-305 371l-189 -180v-191h-63z" />
    <glyph glyph-name="L" unicode="L" horiz-adv-x="587" 
d="M69 0v729h65v-671h433v-58h-498z" />
    <glyph glyph-name="M" unicode="M" horiz-adv-x="936" 
d="M69 0v729h104l293 -647h3l295 647h104v-729h-63v394l2 266h-7l-301 -660h-64l-299 660h-6l2 -267v-393h-63z" />
    <glyph glyph-name="N" unicode="N" horiz-adv-x="816" 
d="M69 0v729h84l528 -649h6l-4 252v397h65v-729h-84l-528 649h-5l3 -243v-406h-65z" />
    <glyph glyph-name="O" unicode="O" horiz-adv-x="849" 
d="M425 -8q-176 0 -281.5 102t-105.5 270q0 169 105.5 270.5t281.5 101.5t281 -102t105 -270t-105.5 -270t-280.5 -102zM425 48q147 0 233 86t86 230q0 145 -86.5 230.5t-232.5 85.5q-148 0 -233.5 -85.5t-85.5 -230.5q0 -144 86 -230t233 -86z" />
    <glyph glyph-name="P" unicode="P" horiz-adv-x="706" 
d="M69 0v729h349q125 0 192.5 -59t67.5 -165q0 -105 -69.5 -164.5t-191.5 -58.5l-283 1v-283h-65zM412 672h-278v-336l278 -1q97 0 148 45.5t51 123.5q0 81 -51.5 124.5t-147.5 43.5z" />
    <glyph glyph-name="Q" unicode="Q" horiz-adv-x="849" 
d="M683 -169l-263 161q-173 1 -277.5 103t-104.5 269q0 169 105.5 270.5t281.5 101.5t281 -102t105 -270q0 -149 -86 -246.5t-231 -116.5l200 -113v-57h-11zM425 48q147 0 233 86t86 230q0 145 -86.5 230.5t-232.5 85.5q-148 0 -233.5 -85.5t-85.5 -230.5q0 -144 86 -230
t233 -86z" />
    <glyph glyph-name="R" unicode="R" horiz-adv-x="729" 
d="M69 0v729h402q109 0 170 -50t61 -144q0 -68 -33.5 -114.5t-97.5 -64.5v-7q61 -10 88 -45.5t27 -100.5v-127q0 -49 11 -76h-65q-11 23 -11 79v113q0 68 -31.5 98.5t-116.5 30.5h-339v-321h-65zM134 374h326q176 0 176 154q0 74 -46.5 110t-129.5 36h-326v-300z" />
    <glyph glyph-name="S" unicode="S" horiz-adv-x="701" 
d="M361 -8q-162 0 -242 62t-86 172h70q9 -183 259 -183q118 0 178 39.5t60 110.5q0 35 -13 60t-31.5 40t-56 26.5t-67.5 17t-85 12.5q-58 7 -94.5 14t-78.5 21t-65 33.5t-38.5 51t-15.5 74.5q0 92 79 143t212 51q138 0 213.5 -56t79.5 -154h-67q-4 79 -64 119t-165 40
q-104 0 -162.5 -37t-58.5 -101q0 -26 6.5 -46t23.5 -34t33.5 -23t49.5 -16.5t57.5 -11.5t71.5 -10q37 -5 61.5 -9t56.5 -10.5t52.5 -14t44 -18.5t38 -25.5t27 -33.5t18.5 -44t6 -55q0 -97 -79 -151t-228 -54z" />
    <glyph glyph-name="T" unicode="T" horiz-adv-x="675" 
d="M306 0v672h-283v57h631v-57h-283v-672h-65z" />
    <glyph glyph-name="U" unicode="U" horiz-adv-x="771" 
d="M385 -8q-327 0 -327 306v431h64v-428q0 -125 63 -188t200 -63q138 0 201 62.5t63 188.5v428h64v-431q0 -306 -328 -306z" />
    <glyph glyph-name="V" unicode="V" horiz-adv-x="831" 
d="M371 0l-359 729h72l299 -610l28 -61h6l28 62l300 609h72l-360 -729h-86z" />
    <glyph glyph-name="W" unicode="W" horiz-adv-x="1080" 
d="M238 0l-226 729h71l154 -505l43 -155h8l213 660h79l207 -662h8l45 157l158 505h69l-230 -729h-88l-207 656h-5l-212 -656h-87z" />
    <glyph glyph-name="X" unicode="X" horiz-adv-x="725" 
d="M12 0l307 375l-287 354h79l249 -310l5 1l250 309h78l-288 -353l307 -376h-83l-266 329h-3l-270 -329h-78z" />
    <glyph glyph-name="Y" unicode="Y" horiz-adv-x="716" 
d="M325 0v295l-313 434h76l268 -375h5l268 375h75l-314 -434v-295h-65z" />
    <glyph glyph-name="Z" unicode="Z" horiz-adv-x="696" 
d="M29 0v53l541 619h-526v57h612v-53l-542 -619h554v-57h-639z" />
    <glyph glyph-name="bracketleft" unicode="[" horiz-adv-x="333" 
d="M69 -167v960h243v-50h-185v-860h185v-50h-243z" />
    <glyph glyph-name="backslash" unicode="\" horiz-adv-x="488" 
d="M412 -81l-400 810h61l402 -810h-63z" />
    <glyph glyph-name="bracketright" unicode="]" horiz-adv-x="333" 
d="M265 793v-960h-244v50h186v860h-186v50h244z" />
    <glyph glyph-name="asciicircum" unicode="^" horiz-adv-x="473" 
d="M41 475l165 254h60l166 -254h-65l-131 203l-131 -203h-64z" />
    <glyph glyph-name="underscore" unicode="_" horiz-adv-x="364" 
d="M-1 -50v50h366v-50h-366z" />
    <glyph glyph-name="grave" unicode="`" horiz-adv-x="500" 
d="M269 744l-82 138h63l64 -138h-45z" />
    <glyph glyph-name="a" unicode="a" horiz-adv-x="659" 
d="M301 -9q-119 0 -191 73.5t-72 196.5q0 124 72 196.5t191 72.5q84 0 144 -33t85 -88h4l3 112h60v-521h-64v121h-4q-24 -59 -86.5 -94.5t-141.5 -35.5zM314 44q99 0 159 57t60 137v54q0 76 -60 130.5t-159 54.5q-96 0 -153.5 -57.5t-57.5 -158.5q0 -99 58 -158t153 -59z
" />
    <glyph glyph-name="b" unicode="b" horiz-adv-x="659" 
d="M359 -9q-84 0 -144 33t-85 88h-5l-2 -112h-60v729h63v-329h4q25 59 87 94.5t142 35.5q118 0 190 -73.5t72 -196.5t-72 -196t-190 -73zM345 44q97 0 154.5 57.5t57.5 158.5q0 99 -58 158t-154 59q-100 0 -159.5 -57.5t-59.5 -137.5v-53q0 -76 60 -130.5t159 -54.5z" />
    <glyph glyph-name="c" unicode="c" horiz-adv-x="632" 
d="M324 -8q-132 0 -209 72t-77 196q0 121 80 195t210 74q109 0 182 -49t85 -129h-63q-18 61 -72.5 92.5t-131.5 31.5q-103 0 -164.5 -59t-61.5 -157t59 -156t164 -58q80 0 138 37t72 97h65q-13 -83 -91 -135t-185 -52z" />
    <glyph glyph-name="d" unicode="d" horiz-adv-x="659" 
d="M306 -14q-121 0 -194.5 74.5t-73.5 197.5t73.5 197.5t194.5 74.5q81 0 140 -35t83 -95h4v329h64v-729h-62l-1 116h-4q-25 -59 -84 -94.5t-140 -35.5zM318 39q98 0 156.5 54t58.5 141v48q0 87 -58.5 141t-156.5 54q-101 0 -158 -59t-57 -160t57 -160t158 -59z" />
    <glyph glyph-name="e" unicode="e" horiz-adv-x="639" 
d="M329 -8q-132 0 -211.5 72.5t-79.5 194.5q0 123 78 196.5t210 73.5q134 0 208.5 -74.5t67.5 -203.5h-500q2 -98 63.5 -153.5t164.5 -55.5q78 0 134 31t70 83h62q-14 -74 -88.5 -119t-178.5 -45zM326 479q-95 0 -154 -48.5t-69 -130.5h434q-3 85 -60 132t-151 47z" />
    <glyph glyph-name="f" unicode="f" horiz-adv-x="324" 
d="M119 0v470h-105v51h105v76q0 132 139 132h62v-52h-52q-46 0 -66 -20.5t-20 -64.5v-71h134v-51h-134v-470h-63z" />
    <glyph glyph-name="g" unicode="g" horiz-adv-x="642" 
d="M309 -177q-108 0 -174.5 42.5t-74.5 117.5h61q10 -54 60 -82.5t129 -28.5q207 0 207 164v112h-6q-24 -54 -84.5 -86.5t-135.5 -32.5q-117 0 -185 68.5t-68 182.5q0 112 72 181t186 69q76 0 132 -32t84 -88h5l2 111h61v-483q0 -105 -69.5 -160t-201.5 -55zM306 80
q94 0 152.5 48t58.5 124v42q0 82 -57 133.5t-151 51.5q-93 0 -149.5 -54.5t-56.5 -144.5q0 -94 55 -147t148 -53z" />
    <glyph glyph-name="h" unicode="h" horiz-adv-x="651" 
d="M63 0v729h63v-331h6q29 62 91 96.5t138 34.5q228 0 228 -244v-285h-63v275q0 105 -45 153t-135 48q-98 0 -159 -60t-61 -158v-258h-63z" />
    <glyph glyph-name="i" unicode="i" horiz-adv-x="188" 
d="M63 614v115h63v-115h-63zM63 0v521h63v-521h-63z" />
    <glyph glyph-name="j" unicode="j" horiz-adv-x="191" 
d="M65 614v115h64v-115h-64zM-67 -167v52h45q46 0 66.5 21.5t20.5 71.5v543h64v-554q0 -134 -137 -134h-59z" />
    <glyph glyph-name="k" unicode="k" horiz-adv-x="588" 
d="M63 0v729h63v-488l69 57l283 223h87l-253 -200l267 -321h-79l-191 231l-42 53l-141 -108v-176h-63z" />
    <glyph glyph-name="l" unicode="l" horiz-adv-x="188" 
d="M63 0v729h63v-729h-63z" />
    <glyph glyph-name="m" unicode="m" horiz-adv-x="1032" 
d="M63 0v521h62l2 -114h5q25 58 79.5 90t124.5 32q75 0 127 -36t70 -100h7q27 66 83.5 101t131.5 35q215 0 215 -233v-296h-64v288q0 94 -38.5 141t-126.5 47t-140.5 -55.5t-52.5 -146.5v-274h-64v276q0 200 -163 200q-92 0 -143 -55t-51 -147v-274h-64z" />
    <glyph glyph-name="n" unicode="n" horiz-adv-x="651" 
d="M63 0v521h62l1 -123h6q29 62 91 96.5t138 34.5q228 0 228 -244v-285h-63v275q0 105 -45 153t-135 48q-98 0 -159 -60t-61 -158v-258h-63z" />
    <glyph glyph-name="o" unicode="o" horiz-adv-x="663" 
d="M332 -10q-132 0 -213 73.5t-81 195.5q0 123 81 196.5t213 73.5t212.5 -73.5t80.5 -196.5q0 -121 -80.5 -195t-212.5 -74zM332 44q104 0 166.5 58.5t62.5 156.5q0 99 -62.5 157.5t-166.5 58.5q-105 0 -167.5 -58.5t-62.5 -157.5q0 -98 62.5 -156.5t167.5 -58.5z" />
    <glyph glyph-name="p" unicode="p" horiz-adv-x="659" 
d="M63 -167v688h60l2 -112h5q25 55 85 88t144 33q118 0 190 -73t72 -196t-72 -196.5t-190 -73.5q-80 0 -142 35.5t-87 94.5h-4v-288h-63zM345 44q96 0 154 59t58 158q0 101 -57.5 158.5t-154.5 57.5q-99 0 -159 -54.5t-60 -130.5v-54q0 -80 60 -137t159 -57z" />
    <glyph glyph-name="q" unicode="q" horiz-adv-x="659" 
d="M533 -167v288h-3q-25 -59 -87.5 -94.5t-141.5 -35.5q-119 0 -191 73.5t-72 196.5q0 124 72 196.5t191 72.5q84 0 144.5 -33t84.5 -88h4l3 112h60v-688h-64zM314 44q99 0 159 57t60 137v53q0 76 -60 131t-159 55q-96 0 -153.5 -57.5t-57.5 -158.5q0 -99 58 -158t153 -59z
" />
    <glyph glyph-name="r" unicode="r" horiz-adv-x="342" 
d="M63 0v521h56l4 -100h3q16 49 59.5 78t100.5 29q30 0 50 -6v-59q-18 6 -50 6q-67 0 -111 -39.5t-50 -109.5v-320h-62z" />
    <glyph glyph-name="s" unicode="s" horiz-adv-x="549" 
d="M279 -10q-118 0 -185.5 46.5t-68.5 125.5h63q0 -58 51.5 -91.5t140.5 -33.5q179 0 179 99q0 53 -38 73t-147 32q-124 12 -177 43t-53 99q0 69 63 108.5t169 39.5q108 0 167.5 -43t65.5 -120h-62q-5 59 -50.5 87.5t-120.5 28.5q-77 0 -123.5 -24.5t-46.5 -72.5
q0 -46 40 -65.5t138 -29.5q132 -14 185 -44t53 -108q0 -69 -62 -109.5t-181 -40.5z" />
    <glyph glyph-name="t" unicode="t" horiz-adv-x="355" 
d="M239 0q-111 0 -111 98v372h-114v51h114v158l63 14v-172h143v-51h-143v-357q0 -32 16.5 -44t50.5 -12h76v-57h-95z" />
    <glyph glyph-name="u" unicode="u" horiz-adv-x="641" 
d="M285 -8q-228 0 -228 242v287h63v-276q0 -104 45 -152.5t136 -48.5q97 0 158 60.5t61 159.5v257h63v-521h-61l-2 123h-6q-29 -62 -90.5 -96.5t-138.5 -34.5z" />
    <glyph glyph-name="v" unicode="v" horiz-adv-x="598" 
d="M266 0l-256 521h68l184 -383l37 -83h3l37 83l181 383h68l-254 -521h-68z" />
    <glyph glyph-name="w" unicode="w" horiz-adv-x="831" 
d="M189 0l-179 521h63l157 -463h3l145 463h74l149 -463h2l157 463h61l-179 -521h-83l-142 441h-4l-139 -441h-85z" />
    <glyph glyph-name="x" unicode="x" horiz-adv-x="571" 
d="M10 0l236 267l-224 254h78l185 -215h5l184 215h75l-219 -252l232 -269h-78l-195 226h-5l-200 -226h-74z" />
    <glyph glyph-name="y" unicode="y" horiz-adv-x="583" 
d="M48 -167v54h62q48 0 76.5 20t49.5 62l32 64l-257 488h69l172 -336l44 -86h6l42 88l161 334h67l-282 -574q-55 -114 -179 -114h-63z" />
    <glyph glyph-name="z" unicode="z" horiz-adv-x="581" 
d="M36 0v46l410 424h-397v51h482v-46l-409 -424h422v-51h-508z" />
    <glyph glyph-name="braceleft" unicode="{" horiz-adv-x="416" 
d="M213 -167q-27 0 -40.5 15.5t-13.5 40.5v311q0 39 -18.5 61.5t-44.5 22.5h-47v55h47q26 0 44.5 23t18.5 62v313q0 25 13.5 40.5t40.5 15.5h182v-50h-178v-322q0 -46 -21.5 -75t-51.5 -31v-4q32 -5 52.5 -35t20.5 -74v-320h178v-49h-182z" />
    <glyph glyph-name="bar" unicode="|" horiz-adv-x="197" 
d="M69 -67v796h59v-796h-59z" />
    <glyph glyph-name="braceright" unicode="}" horiz-adv-x="416" 
d="M203 793q27 0 40.5 -15.5t13.5 -40.5v-311q0 -39 18.5 -61.5t44.5 -22.5h47v-55h-47q-26 0 -44.5 -23t-18.5 -62v-313q0 -25 -13.5 -40.5t-40.5 -15.5h-182v50h178v322q0 46 21.5 75t51.5 31v4q-32 5 -52.5 35t-20.5 74v320h-178v49h182z" />
    <glyph glyph-name="asciitilde" unicode="~" horiz-adv-x="578" 
d="M104 296q-4 58 20.5 88.5t67.5 30.5q31 0 90 -25.5t92 -25.5q28 0 43.5 16.5t14.5 47.5h42q4 -59 -24.5 -89.5t-75.5 -30.5q-36 0 -96 26t-85 26t-37.5 -17.5t-9.5 -46.5h-42z" />
    <glyph glyph-name="uni00A0" unicode="&#xa0;" horiz-adv-x="234" 
 />
    <glyph glyph-name="exclamdown" unicode="&#xa1;" horiz-adv-x="160" 
d="M113 521v-76h-66v76h66zM97 328l15 -299v-237h-62v237l15 299h32z" />
    <glyph glyph-name="cent" unicode="&#xa2;" horiz-adv-x="636" 
d="M295 -85v78q-119 8 -188 79t-69 188q0 113 70.5 185.5t186.5 82.5v77h49v-76q103 -4 172 -52.5t80 -125.5h-64q-17 57 -67 89t-121 35v-429q73 4 125.5 40.5t66.5 92.5h65q-13 -79 -85 -130.5t-172 -56.5v-77h-49zM102 259q0 -91 51 -147.5t142 -64.5v427
q-89 -10 -141 -67.5t-52 -147.5z" />
    <glyph glyph-name="sterling" unicode="&#xa3;" horiz-adv-x="685" 
d="M39 0v56h101v278h-101v50h101v115q0 117 67.5 177t184.5 60q118 0 184.5 -60t66.5 -162v-18h-62v16q0 83 -50.5 126t-137.5 43q-188 0 -188 -183v-114h267v-50h-267v-278h395v129h56v-185h-617z" />
    <glyph glyph-name="currency" unicode="&#xa4;" horiz-adv-x="639" 
d="M80 78l-37 34l115 117q-44 52 -44 122q0 69 45 126l-116 113l37 37l116 -117q53 38 124 38q72 0 122 -38l117 117l37 -37l-115 -113q42 -57 42 -126q0 -73 -43 -122l116 -117l-36 -34l-117 117q-53 -39 -123 -39t-125 38zM320 205q65 0 107.5 41.5t42.5 104.5
q0 64 -42.5 105t-107.5 41q-66 0 -109 -41t-43 -105t42.5 -105t109.5 -41z" />
    <glyph glyph-name="yen" unicode="&#xa5;" horiz-adv-x="676" 
d="M304 0v148h-200v47h200v104h-200v47h167l-259 383h76l248 -375h4l249 375h75l-261 -383h169v-47h-202v-104h202v-47h-202v-148h-66z" />
    <glyph glyph-name="brokenbar" unicode="&#xa6;" horiz-adv-x="197" 
d="M69 412v317h59v-317h-59zM69 -67v317h59v-317h-59z" />
    <glyph glyph-name="dieresis" unicode="&#xa8;" horiz-adv-x="500" 
d="M135 765v117h57v-117h-57zM308 765v117h57v-117h-57z" />
    <glyph glyph-name="copyright" unicode="&#xa9;" horiz-adv-x="937" 
d="M75 363q0 168 108.5 270.5t285.5 102.5t285 -102.5t108 -270.5t-108 -270.5t-285 -102.5t-285.5 102.5t-108.5 270.5zM118 363q0 -150 96.5 -242t254.5 -92t254.5 92t96.5 242t-96.5 242t-254.5 92t-254.5 -92t-96.5 -242zM263 363q0 91 58.5 146.5t154.5 55.5
q80 0 134 -37t62 -98h-53q-12 44 -50.5 67.5t-92.5 23.5q-73 0 -116.5 -43.5t-43.5 -114.5q0 -73 42 -115t116 -42q56 0 96 26.5t51 70.5h55q-10 -63 -67.5 -102.5t-136.5 -39.5q-96 0 -152.5 54.5t-56.5 147.5z" />
    <glyph glyph-name="ordfeminine" unicode="&#xaa;" horiz-adv-x="434" 
d="M194 383q-77 0 -124 48t-47 128q0 81 47 128.5t124 47.5q53 0 91 -20t54 -56h4l2 70h50v-340h-53v75h-3q-16 -36 -55.5 -58.5t-89.5 -22.5zM207 426q62 0 98.5 35t36.5 85v32q0 47 -37 80.5t-98 33.5q-59 0 -94.5 -35t-35.5 -98q0 -61 35.5 -97t94.5 -36z" />
    <glyph glyph-name="guillemotleft" unicode="&#xab;" horiz-adv-x="414" 
d="M159 0l-121 261l121 260h55l-117 -260l117 -261h-55zM323 0l-122 261l122 260h55l-117 -260l117 -261h-55z" />
    <glyph glyph-name="logicalnot" unicode="&#xac;" horiz-adv-x="610" 
d="M496 118v219h-447v53h499v-272h-52z" />
    <glyph glyph-name="registered" unicode="&#xae;" horiz-adv-x="681" 
d="M339 227q-114 0 -190.5 72.5t-76.5 183.5t76.5 183t190.5 72q115 0 192.5 -72t77.5 -183t-77.5 -183.5t-192.5 -72.5zM340 259q99 0 166 63.5t67 160.5t-67.5 161t-165.5 64q-99 0 -166 -64t-67 -162q0 -97 67 -160t166 -63zM242 361v249h120q46 0 69.5 -20t23.5 -54
q0 -50 -48 -64v-1q42 -9 42 -55v-29q0 -17 3 -26h-43q-5 6 -5 30v25q0 19 -8.5 28t-31.5 9h-79v-92h-43zM354 575h-69v-90h69q56 0 56 47q0 43 -56 43z" />
    <glyph glyph-name="macron" unicode="&#xaf;" horiz-adv-x="358" 
d="M24 775v48h330v-48h-330z" />
    <glyph glyph-name="degree" unicode="&#xb0;" horiz-adv-x="397" 
d="M198 435q-68 0 -113 42t-45 109t45 109t113 42t113 -42t45 -109t-45 -109t-113 -42zM198 482q46 0 77 29t31 75t-31 75t-77 29t-76.5 -29t-30.5 -75t30.5 -75t76.5 -29z" />
    <glyph glyph-name="plusminus" unicode="&#xb1;" horiz-adv-x="645" 
d="M294 177v183h-221v53h221v176h55v-176h223v-53h-223v-183h-55zM73 0v50h499v-50h-499z" />
    <glyph glyph-name="uni00B2" unicode="&#xb2;" horiz-adv-x="387" 
d="M27 326v12q0 44 29 78.5t70 56.5t82 43t70 50.5t29 66.5q0 43 -30.5 66t-80.5 23q-55 0 -86 -26.5t-32 -71.5h-50q2 67 47.5 103.5t123.5 36.5q75 0 117.5 -35t42.5 -94q0 -43 -26.5 -76.5t-65 -55.5t-77.5 -41t-67.5 -43.5t-30.5 -52.5h273v-40h-338z" />
    <glyph glyph-name="uni00B3" unicode="&#xb3;" horiz-adv-x="410" 
d="M205 321q-84 0 -131 36.5t-48 102.5h51q0 -47 33.5 -73t94.5 -26q65 0 98.5 23.5t33.5 64.5q0 82 -116 82h-59v37h53q57 0 85 21t28 57q0 77 -120 77q-55 0 -89 -25.5t-35 -70.5h-50q-1 63 48 99.5t127 36.5q79 0 125 -28t46 -83q0 -40 -25.5 -66.5t-67.5 -33.5v-3
q49 -4 75.5 -32t26.5 -72q0 -58 -49 -91t-135 -33z" />
    <glyph glyph-name="acute" unicode="&#xb4;" horiz-adv-x="500" 
d="M187 744l64 138h63l-82 -138h-45z" />
    <glyph glyph-name="paragraph" unicode="&#xb6;" horiz-adv-x="682" 
d="M216 -151v545q-95 -1 -144 44.5t-49 124.5q0 82 52.5 124t146.5 42h392v-52h-86v-828h-57v828h-198v-828h-57z" />
    <glyph glyph-name="periodcentered" unicode="&#xb7;" horiz-adv-x="313" 
d="M80 277q0 32 21.5 53.5t55.5 21.5q35 0 55.5 -21t20.5 -54t-20.5 -54t-55.5 -21q-34 0 -55.5 21.5t-21.5 53.5z" />
    <glyph glyph-name="cedilla" unicode="&#xb8;" horiz-adv-x="500" 
d="M250 -217q-44 0 -71.5 20t-27.5 52h43q2 -16 17 -26t37 -10q57 0 57 47q0 45 -56 45h-36v96h42v-67q95 -2 95 -76q-1 -38 -28.5 -59.5t-71.5 -21.5z" />
    <glyph glyph-name="uni00B9" unicode="&#xb9;" horiz-adv-x="214" 
d="M120 326v324h-107v38h20q82 0 87 71h51v-433h-51z" />
    <glyph glyph-name="ordmasculine" unicode="&#xba;" horiz-adv-x="435" 
d="M218 382q-88 0 -141.5 48t-53.5 128q0 81 53.5 129t141.5 48q87 0 140 -48t53 -129q0 -79 -53 -127.5t-140 -48.5zM218 426q64 0 102 36t38 96q0 61 -38 97t-102 36t-102.5 -36t-38.5 -97q0 -60 38.5 -96t102.5 -36z" />
    <glyph glyph-name="guillemotright" unicode="&#xbb;" horiz-adv-x="414" 
d="M255 521l121 -261l-121 -260h-55l117 260l-117 261h55zM91 521l121 -261l-121 -260h-55l117 260l-117 261h55z" />
    <glyph glyph-name="onequarter" unicode="&#xbc;" horiz-adv-x="657" 
d="M104 327v293h-92v36h18q69 0 76 65h47v-394h-49zM-19 0l581 721h57l-582 -721h-56zM537 0v99h-230v36l215 259h63v-256h62l-1 -39h-61v-99h-48zM358 138h179v214z" />
    <glyph glyph-name="onehalf" unicode="&#xbd;" horiz-adv-x="706" 
d="M104 327v293h-92v36h18q69 0 76 65h47v-394h-49zM-19 0l581 721h57l-582 -721h-56zM390 0v12q0 40 25 71t60 51t70.5 39t60.5 45.5t25 60.5q0 39 -25.5 60t-68.5 21q-46 0 -72.5 -24.5t-27.5 -64.5h-45q1 61 40.5 94t106.5 33t104 -31.5t37 -84.5q0 -39 -23 -70t-56 -51
t-66.5 -37.5t-58.5 -39.5t-27 -48q36 2 90 2h146v-38h-295z" />
    <glyph glyph-name="threequarters" unicode="&#xbe;" horiz-adv-x="825" 
d="M178 322q-74 0 -114 34t-41 93h48q0 -44 29 -67t79 -23q55 0 83.5 21.5t28.5 58.5q0 74 -99 74h-51v35h47q96 0 96 71q0 69 -102 69q-48 0 -76.5 -23t-29.5 -65h-46q0 58 42.5 91.5t110.5 33.5q69 0 109.5 -25.5t40.5 -75.5q0 -37 -22 -60.5t-59 -31.5v-2q40 -4 64 -28.5
t24 -66.5q0 -52 -43 -82.5t-119 -30.5zM149 0l581 721h56l-582 -721h-55zM704 0v99h-229v36l214 259h64v-256h61l-1 -39h-60v-99h-49zM526 138h178v214z" />
    <glyph glyph-name="questiondown" unicode="&#xbf;" horiz-adv-x="550" 
d="M310 521v-77h-67v77h67zM307 345v-12q0 -40 -21.5 -75.5t-52 -63.5t-61 -57t-52 -68.5t-21.5 -86.5q0 -70 47 -109t127 -39q83 0 131.5 40.5t52.5 108.5h60q-5 -95 -71.5 -148t-175.5 -53q-108 0 -172.5 53t-64.5 144q0 52 22 96.5t53.5 75.5t63.5 59t54 59.5t22 64.5v11
h59z" />
    <glyph glyph-name="Agrave" unicode="&#xc0;" horiz-adv-x="812" 
d="M386 801l-82 137h63l63 -137h-44zM12 0l352 729h83l352 -729h-70l-92 189h-463l-91 -189h-71zM198 242h417l-165 337l-42 91h-3l-44 -93z" />
    <glyph glyph-name="Aacute" unicode="&#xc1;" horiz-adv-x="812" 
d="M382 801l63 137h63l-81 -137h-45zM12 0l352 729h83l352 -729h-70l-92 189h-463l-91 -189h-71zM198 242h417l-165 337l-42 91h-3l-44 -93z" />
    <glyph glyph-name="Acircumflex" unicode="&#xc2;" horiz-adv-x="812" 
d="M255 801l127 137h48l128 -137h-60l-92 99l-92 -99h-59zM12 0l352 729h83l352 -729h-70l-92 189h-463l-91 -189h-71zM198 242h417l-165 337l-42 91h-3l-44 -93z" />
    <glyph glyph-name="Atilde" unicode="&#xc3;" horiz-adv-x="812" 
d="M463 825q-28 1 -65.5 15t-56.5 14q-32 0 -56 -30l-26 17q34 60 87 60q20 0 61 -15t62 -15q34 0 56 32l27 -18q-32 -60 -89 -60zM12 0l352 729h83l352 -729h-70l-92 189h-463l-91 -189h-71zM198 242h417l-165 337l-42 91h-3l-44 -93z" />
    <glyph glyph-name="Adieresis" unicode="&#xc4;" horiz-adv-x="812" 
d="M291 821v117h57v-117h-57zM464 821v117h57v-117h-57zM12 0l352 729h83l352 -729h-70l-92 189h-463l-91 -189h-71zM198 242h417l-165 337l-42 91h-3l-44 -93z" />
    <glyph glyph-name="Aring" unicode="&#xc5;" horiz-adv-x="812" 
d="M406 796q-51 0 -82 28t-31 74t31.5 74t81.5 28t81.5 -28t31.5 -74q0 -47 -31.5 -74.5t-81.5 -27.5zM406 831q31 0 50 18.5t19 48.5q0 29 -19 47t-50 18t-50 -18t-19 -47q0 -30 19 -48.5t50 -18.5zM12 0l352 729h83l352 -729h-70l-92 189h-463l-91 -189h-71zM198 242h417
l-165 337l-42 91h-3l-44 -93z" />
    <glyph glyph-name="AE" unicode="&#xc6;" horiz-adv-x="1018" 
d="M12 0l356 729h618v-56h-511v-273h463v-53h-463v-290h512v-57h-576v189h-237l-91 -189h-71zM198 242h213v428h-6l-44 -93z" />
    <glyph glyph-name="Ccedilla" unicode="&#xc7;" horiz-adv-x="818" 
d="M423 -217q-44 0 -71.5 20t-28.5 52h44q2 -16 17 -26t37 -10q57 0 57 47q0 45 -57 45h-35v82q-160 12 -254 112.5t-94 258.5q0 168 106 270t282 102q144 0 240 -66t117 -179h-66q-19 86 -97.5 137.5t-193.5 51.5q-149 0 -234.5 -85.5t-85.5 -230.5t86 -230.5t234 -85.5
q118 0 196 52.5t95 140.5l66 -1q-17 -114 -114 -181t-242 -67v-52q95 -2 95 -76q0 -38 -27.5 -59.5t-71.5 -21.5z" />
    <glyph glyph-name="Egrave" unicode="&#xc8;" horiz-adv-x="677" 
d="M315 801l-82 137h63l63 -137h-44zM69 0v729h576v-56h-511v-273h463v-53h-463v-290h511v-57h-576z" />
    <glyph glyph-name="Eacute" unicode="&#xc9;" horiz-adv-x="677" 
d="M311 801l64 137h62l-81 -137h-45zM69 0v729h576v-56h-511v-273h463v-53h-463v-290h511v-57h-576z" />
    <glyph glyph-name="Ecircumflex" unicode="&#xca;" horiz-adv-x="677" 
d="M184 801l127 137h48l128 -137h-60l-92 99l-92 -99h-59zM69 0v729h576v-56h-511v-273h463v-53h-463v-290h511v-57h-576z" />
    <glyph glyph-name="Edieresis" unicode="&#xcb;" horiz-adv-x="677" 
d="M220 821v117h57v-117h-57zM393 821v117h57v-117h-57zM69 0v729h576v-56h-511v-273h463v-53h-463v-290h511v-57h-576z" />
    <glyph glyph-name="Igrave" unicode="&#xcc;" horiz-adv-x="202" 
d="M81 801l-82 137h63l63 -137h-44zM69 0v729h65v-729h-65z" />
    <glyph glyph-name="Iacute" unicode="&#xcd;" horiz-adv-x="202" 
d="M77 801l64 137h62l-81 -137h-45zM69 0v729h65v-729h-65z" />
    <glyph glyph-name="Icircumflex" unicode="&#xce;" horiz-adv-x="202" 
d="M-50 801l127 137h48l128 -137h-60l-92 99l-92 -99h-59zM69 0v729h65v-729h-65z" />
    <glyph glyph-name="Idieresis" unicode="&#xcf;" horiz-adv-x="202" 
d="M-14 821v117h57v-117h-57zM159 821v117h57v-117h-57zM69 0v729h65v-729h-65z" />
    <glyph glyph-name="Eth" unicode="&#xd0;" horiz-adv-x="795" 
d="M69 0v340h-85v49h85v340h316q173 0 272 -99t99 -266q0 -168 -100 -266t-271 -98h-316zM134 57h244q148 0 230 83t82 225q0 146 -84 227t-228 81h-244v-284h180v-49h-180v-283z" />
    <glyph glyph-name="Eth" unicode="&#xf0;" horiz-adv-x="795" 
d="M69 0v340h-85v49h85v340h316q173 0 272 -99t99 -266q0 -168 -100 -266t-271 -98h-316zM134 57h244q148 0 230 83t82 225q0 146 -84 227t-228 81h-244v-284h180v-49h-180v-283z" />
    <glyph glyph-name="Ntilde" unicode="&#xd1;" horiz-adv-x="816" 
d="M465 825q-28 1 -65.5 15t-56.5 14q-33 0 -56 -30l-26 17q34 60 87 60q20 0 61 -15t62 -15q34 0 56 32l27 -18q-32 -60 -89 -60zM69 0v729h84l528 -649h6l-4 252v397h65v-729h-84l-528 649h-5l3 -243v-406h-65z" />
    <glyph glyph-name="Ograve" unicode="&#xd2;" horiz-adv-x="849" 
d="M402 801l-81 137h63l63 -137h-45zM425 -8q-176 0 -281.5 102t-105.5 270q0 169 105.5 270.5t281.5 101.5t281 -102t105 -270t-105.5 -270t-280.5 -102zM425 48q147 0 233 86t86 230q0 145 -86.5 230.5t-232.5 85.5q-148 0 -233.5 -85.5t-85.5 -230.5q0 -144 86 -230
t233 -86z" />
    <glyph glyph-name="Oacute" unicode="&#xd3;" horiz-adv-x="849" 
d="M399 801l63 137h63l-82 -137h-44zM425 -8q-176 0 -281.5 102t-105.5 270q0 169 105.5 270.5t281.5 101.5t281 -102t105 -270t-105.5 -270t-280.5 -102zM425 48q147 0 233 86t86 230q0 145 -86.5 230.5t-232.5 85.5q-148 0 -233.5 -85.5t-85.5 -230.5q0 -144 86 -230
t233 -86z" />
    <glyph glyph-name="Ocircumflex" unicode="&#xd4;" horiz-adv-x="849" 
d="M272 801l127 137h48l128 -137h-60l-92 99l-92 -99h-59zM425 -8q-176 0 -281.5 102t-105.5 270q0 169 105.5 270.5t281.5 101.5t281 -102t105 -270t-105.5 -270t-280.5 -102zM425 48q147 0 233 86t86 230q0 145 -86.5 230.5t-232.5 85.5q-148 0 -233.5 -85.5t-85.5 -230.5
q0 -144 86 -230t233 -86z" />
    <glyph glyph-name="Otilde" unicode="&#xd5;" horiz-adv-x="849" 
d="M480 825q-28 1 -65.5 15t-56.5 14q-33 0 -56 -30l-26 17q34 60 87 60q20 0 61 -15t62 -15q34 0 56 32l27 -18q-32 -60 -89 -60zM425 -8q-176 0 -281.5 102t-105.5 270q0 169 105.5 270.5t281.5 101.5t281 -102t105 -270t-105.5 -270t-280.5 -102zM425 48q147 0 233 86
t86 230q0 145 -86.5 230.5t-232.5 85.5q-148 0 -233.5 -85.5t-85.5 -230.5q0 -144 86 -230t233 -86z" />
    <glyph glyph-name="Odieresis" unicode="&#xd6;" horiz-adv-x="849" 
d="M308 821v117h56v-117h-56zM480 821v117h58v-117h-58zM425 -8q-176 0 -281.5 102t-105.5 270q0 169 105.5 270.5t281.5 101.5t281 -102t105 -270t-105.5 -270t-280.5 -102zM425 48q147 0 233 86t86 230q0 145 -86.5 230.5t-232.5 85.5q-148 0 -233.5 -85.5t-85.5 -230.5
q0 -144 86 -230t233 -86z" />
    <glyph glyph-name="multiply" unicode="&#xd7;" horiz-adv-x="618" 
d="M138 151l-39 39l172 171l-172 171l39 39l171 -172l172 172l38 -39l-171 -171l171 -171l-38 -39l-172 172z" />
    <glyph glyph-name="Oslash" unicode="&#xd8;" horiz-adv-x="849" 
d="M63 -40l97 119q-122 103 -122 285q0 169 105.5 270.5t281.5 101.5q129 0 222 -56l73 90h62l-95 -119q124 -102 124 -287q0 -168 -105.5 -270t-280.5 -102q-132 0 -224 58l-73 -90h-65zM106 364q0 -152 93 -237l410 506q-78 47 -184 47q-148 0 -233.5 -85.5t-85.5 -230.5z
M425 48q147 0 233 86t86 230q0 152 -96 239l-409 -506q77 -49 186 -49z" />
    <glyph glyph-name="Ugrave" unicode="&#xd9;" horiz-adv-x="771" 
d="M365 801l-81 137h63l63 -137h-45zM385 -8q-327 0 -327 306v431h64v-428q0 -125 63 -188t200 -63q138 0 201 62.5t63 188.5v428h64v-431q0 -306 -328 -306z" />
    <glyph glyph-name="Uacute" unicode="&#xda;" horiz-adv-x="771" 
d="M362 801l63 137h63l-81 -137h-45zM385 -8q-327 0 -327 306v431h64v-428q0 -125 63 -188t200 -63q138 0 201 62.5t63 188.5v428h64v-431q0 -306 -328 -306z" />
    <glyph glyph-name="Ucircumflex" unicode="&#xdb;" horiz-adv-x="771" 
d="M235 801l127 137h48l128 -137h-60l-92 99l-92 -99h-59zM385 -8q-327 0 -327 306v431h64v-428q0 -125 63 -188t200 -63q138 0 201 62.5t63 188.5v428h64v-431q0 -306 -328 -306z" />
    <glyph glyph-name="Udieresis" unicode="&#xdc;" horiz-adv-x="771" 
d="M271 821v117h57v-117h-57zM444 821v117h57v-117h-57zM385 -8q-327 0 -327 306v431h64v-428q0 -125 63 -188t200 -63q138 0 201 62.5t63 188.5v428h64v-431q0 -306 -328 -306z" />
    <glyph glyph-name="Yacute" unicode="&#xdd;" horiz-adv-x="716" 
d="M334 801l64 137h63l-82 -137h-45zM325 0v295l-313 434h76l268 -375h5l268 375h75l-314 -434v-295h-65z" />
    <glyph glyph-name="Thorn" unicode="&#xde;" horiz-adv-x="615" 
d="M69 0v729h65v-140h193q125 0 193 -59t68 -165q0 -105 -70 -164.5t-191 -59.5l-193 1v-142h-65zM321 532h-187v-336l187 -1q98 0 149 45t51 124q0 80 -51.5 124t-148.5 44z" />
    <glyph glyph-name="germandbls" unicode="&#xdf;" horiz-adv-x="678" 
d="M130 -167v636h-116v52h116q3 105 70 161.5t170 56.5q106 0 168.5 -48.5t62.5 -133.5q0 -53 -29 -94.5t-86 -59.5v-5q76 -9 120.5 -59t44.5 -128q0 -99 -65.5 -155t-183.5 -56h-113v53h105q97 0 145 43.5t48 119.5t-47 114.5t-129 38.5h-80v45h46q78 0 120 35.5t42 97.5
q0 68 -45.5 103t-122.5 35q-85 0 -131 -47.5t-46 -131.5v-673h-64z" />
    <glyph glyph-name="agrave" unicode="&#xe0;" horiz-adv-x="659" 
d="M313 592l-82 138h63l63 -138h-44zM301 -9q-119 0 -191 73.5t-72 196.5q0 124 72 196.5t191 72.5q84 0 144 -33t85 -88h4l3 112h60v-521h-64v121h-4q-24 -59 -86.5 -94.5t-141.5 -35.5zM314 44q99 0 159 57t60 137v54q0 76 -60 130.5t-159 54.5q-96 0 -153.5 -57.5
t-57.5 -158.5q0 -99 58 -158t153 -59z" />
    <glyph glyph-name="aacute" unicode="&#xe1;" horiz-adv-x="659" 
d="M309 592l63 138h63l-81 -138h-45zM301 -9q-119 0 -191 73.5t-72 196.5q0 124 72 196.5t191 72.5q84 0 144 -33t85 -88h4l3 112h60v-521h-64v121h-4q-24 -59 -86.5 -94.5t-141.5 -35.5zM314 44q99 0 159 57t60 137v54q0 76 -60 130.5t-159 54.5q-96 0 -153.5 -57.5
t-57.5 -158.5q0 -99 58 -158t153 -59z" />
    <glyph glyph-name="acircumflex" unicode="&#xe2;" horiz-adv-x="659" 
d="M182 592l127 138h48l128 -138h-60l-92 100l-92 -100h-59zM301 -9q-119 0 -191 73.5t-72 196.5q0 124 72 196.5t191 72.5q84 0 144 -33t85 -88h4l3 112h60v-521h-64v121h-4q-24 -59 -86.5 -94.5t-141.5 -35.5zM314 44q99 0 159 57t60 137v54q0 76 -60 130.5t-159 54.5
q-96 0 -153.5 -57.5t-57.5 -158.5q0 -99 58 -158t153 -59z" />
    <glyph glyph-name="atilde" unicode="&#xe3;" horiz-adv-x="659" 
d="M390 617q-29 0 -66.5 14.5t-55.5 14.5q-32 0 -56 -30l-26 17q34 60 87 60q20 0 61 -15t62 -15q34 0 56 32l27 -18q-32 -60 -89 -60zM301 -9q-119 0 -191 73.5t-72 196.5q0 124 72 196.5t191 72.5q84 0 144 -33t85 -88h4l3 112h60v-521h-64v121h-4q-24 -59 -86.5 -94.5
t-141.5 -35.5zM314 44q99 0 159 57t60 137v54q0 76 -60 130.5t-159 54.5q-96 0 -153.5 -57.5t-57.5 -158.5q0 -99 58 -158t153 -59z" />
    <glyph glyph-name="adieresis" unicode="&#xe4;" horiz-adv-x="659" 
d="M218 613v117h57v-117h-57zM391 613v117h57v-117h-57zM301 -9q-119 0 -191 73.5t-72 196.5q0 124 72 196.5t191 72.5q84 0 144 -33t85 -88h4l3 112h60v-521h-64v121h-4q-24 -59 -86.5 -94.5t-141.5 -35.5zM314 44q99 0 159 57t60 137v54q0 76 -60 130.5t-159 54.5
q-96 0 -153.5 -57.5t-57.5 -158.5q0 -99 58 -158t153 -59z" />
    <glyph glyph-name="aring" unicode="&#xe5;" horiz-adv-x="659" 
d="M333 588q-51 0 -82 28t-31 74t31.5 74t81.5 28t81.5 -28t31.5 -74q0 -47 -31.5 -74.5t-81.5 -27.5zM333 623q31 0 50 18.5t19 48.5q0 29 -19 47t-50 18t-50 -18t-19 -47q0 -30 19 -48.5t50 -18.5zM301 -9q-119 0 -191 73.5t-72 196.5q0 124 72 196.5t191 72.5
q84 0 144 -33t85 -88h4l3 112h60v-521h-64v121h-4q-24 -59 -86.5 -94.5t-141.5 -35.5zM314 44q99 0 159 57t60 137v54q0 76 -60 130.5t-159 54.5q-96 0 -153.5 -57.5t-57.5 -158.5q0 -99 58 -158t153 -59z" />
    <glyph glyph-name="ae" unicode="&#xe6;" horiz-adv-x="1094" 
d="M289 -8q-113 0 -182 73t-69 196q0 124 69 196.5t182 72.5q81 0 139 -33t82 -88h4l2 112h52v-112h3q30 57 89 88.5t135 31.5q137 0 204.5 -78.5t55.5 -199.5h-476q4 -99 62 -154t156 -55q76 0 129 30.5t67 83.5h62q-14 -74 -86 -119t-172 -45q-78 0 -137 31t-88 91h-4
v-114h-56l1 114h-4q-24 -56 -82 -89t-138 -33zM580 296h415q-1 93 -56.5 138t-146.5 45t-147.5 -48.5t-64.5 -134.5zM306 44q93 0 149.5 55t56.5 131v62q0 76 -56.5 131t-149.5 55t-148 -57.5t-55 -159.5t55 -159.5t148 -57.5z" />
    <glyph glyph-name="ccedilla" unicode="&#xe7;" horiz-adv-x="632" 
d="M335 -217q-44 0 -71.5 20t-28.5 52h44q2 -16 17 -26t37 -10q57 0 57 47q0 45 -57 45h-35v82q-120 7 -190 78.5t-70 188.5q0 121 80 195t210 74q109 0 182 -49t85 -129h-63q-18 61 -72.5 92.5t-131.5 31.5q-103 0 -164.5 -59t-61.5 -157t59 -156t164 -58q80 0 138 37
t72 97h65q-13 -80 -86 -131.5t-175 -55.5v-52q95 -2 95 -76q0 -38 -27.5 -59.5t-71.5 -21.5z" />
    <glyph glyph-name="egrave" unicode="&#xe8;" horiz-adv-x="639" 
d="M300 592l-81 138h62l64 -138h-45zM329 -8q-132 0 -211.5 72.5t-79.5 194.5q0 123 78 196.5t210 73.5q134 0 208.5 -74.5t67.5 -203.5h-500q2 -98 63.5 -153.5t164.5 -55.5q78 0 134 31t70 83h62q-14 -74 -88.5 -119t-178.5 -45zM326 479q-95 0 -154 -48.5t-69 -130.5h434
q-3 85 -60 132t-151 47z" />
    <glyph glyph-name="eacute" unicode="&#xe9;" horiz-adv-x="639" 
d="M297 592l63 138h63l-82 -138h-44zM329 -8q-132 0 -211.5 72.5t-79.5 194.5q0 123 78 196.5t210 73.5q134 0 208.5 -74.5t67.5 -203.5h-500q2 -98 63.5 -153.5t164.5 -55.5q78 0 134 31t70 83h62q-14 -74 -88.5 -119t-178.5 -45zM326 479q-95 0 -154 -48.5t-69 -130.5h434
q-3 85 -60 132t-151 47z" />
    <glyph glyph-name="ecircumflex" unicode="&#xea;" horiz-adv-x="639" 
d="M170 592l127 138h48l127 -138h-59l-92 100l-92 -100h-59zM329 -8q-132 0 -211.5 72.5t-79.5 194.5q0 123 78 196.5t210 73.5q134 0 208.5 -74.5t67.5 -203.5h-500q2 -98 63.5 -153.5t164.5 -55.5q78 0 134 31t70 83h62q-14 -74 -88.5 -119t-178.5 -45zM326 479
q-95 0 -154 -48.5t-69 -130.5h434q-3 85 -60 132t-151 47z" />
    <glyph glyph-name="edieresis" unicode="&#xeb;" horiz-adv-x="639" 
d="M206 613v117h56v-117h-56zM378 613v117h58v-117h-58zM329 -8q-132 0 -211.5 72.5t-79.5 194.5q0 123 78 196.5t210 73.5q134 0 208.5 -74.5t67.5 -203.5h-500q2 -98 63.5 -153.5t164.5 -55.5q78 0 134 31t70 83h62q-14 -74 -88.5 -119t-178.5 -45zM326 479
q-95 0 -154 -48.5t-69 -130.5h434q-3 85 -60 132t-151 47z" />
    <glyph glyph-name="igrave" unicode="&#xec;" horiz-adv-x="188" 
d="M74 592l-81 138h63l63 -138h-45zM63 0v521h63v-521h-63z" />
    <glyph glyph-name="iacute" unicode="&#xed;" horiz-adv-x="188" 
d="M71 592l63 138h63l-82 -138h-44zM63 0v521h63v-521h-63z" />
    <glyph glyph-name="icircumflex" unicode="&#xee;" horiz-adv-x="188" 
d="M-56 592l127 138h48l128 -138h-60l-92 100l-92 -100h-59zM63 0v521h63v-521h-63z" />
    <glyph glyph-name="idieresis" unicode="&#xef;" horiz-adv-x="188" 
d="M-20 613v117h56v-117h-56zM152 613v117h58v-117h-58zM63 0v521h63v-521h-63z" />
    <glyph glyph-name="ntilde" unicode="&#xf1;" horiz-adv-x="651" 
d="M383 617q-29 0 -66.5 14.5t-55.5 14.5q-33 0 -56 -30l-26 17q34 60 87 60q20 0 61 -15t62 -15q34 0 56 32l27 -18q-32 -60 -89 -60zM63 0v521h62l1 -123h6q29 62 91 96.5t138 34.5q228 0 228 -244v-285h-63v275q0 105 -45 153t-135 48q-98 0 -159 -60t-61 -158v-258h-63z
" />
    <glyph glyph-name="ograve" unicode="&#xf2;" horiz-adv-x="663" 
d="M312 592l-82 138h63l63 -138h-44zM332 -10q-132 0 -213 73.5t-81 195.5q0 123 81 196.5t213 73.5t212.5 -73.5t80.5 -196.5q0 -121 -80.5 -195t-212.5 -74zM332 44q104 0 166.5 58.5t62.5 156.5q0 99 -62.5 157.5t-166.5 58.5q-105 0 -167.5 -58.5t-62.5 -157.5
q0 -98 62.5 -156.5t167.5 -58.5z" />
    <glyph glyph-name="oacute" unicode="&#xf3;" horiz-adv-x="663" 
d="M308 592l64 138h63l-82 -138h-45zM332 -10q-132 0 -213 73.5t-81 195.5q0 123 81 196.5t213 73.5t212.5 -73.5t80.5 -196.5q0 -121 -80.5 -195t-212.5 -74zM332 44q104 0 166.5 58.5t62.5 156.5q0 99 -62.5 157.5t-166.5 58.5q-105 0 -167.5 -58.5t-62.5 -157.5
q0 -98 62.5 -156.5t167.5 -58.5z" />
    <glyph glyph-name="ocircumflex" unicode="&#xf4;" horiz-adv-x="663" 
d="M182 592l126 138h49l127 -138h-59l-93 100l-92 -100h-58zM332 -10q-132 0 -213 73.5t-81 195.5q0 123 81 196.5t213 73.5t212.5 -73.5t80.5 -196.5q0 -121 -80.5 -195t-212.5 -74zM332 44q104 0 166.5 58.5t62.5 156.5q0 99 -62.5 157.5t-166.5 58.5q-105 0 -167.5 -58.5
t-62.5 -157.5q0 -98 62.5 -156.5t167.5 -58.5z" />
    <glyph glyph-name="otilde" unicode="&#xf5;" horiz-adv-x="663" 
d="M389 617q-29 0 -66.5 14.5t-55.5 14.5q-32 0 -55 -30l-26 17q33 60 86 60q20 0 61 -15t63 -15q34 0 55 32l28 -18q-33 -60 -90 -60zM332 -10q-132 0 -213 73.5t-81 195.5q0 123 81 196.5t213 73.5t212.5 -73.5t80.5 -196.5q0 -121 -80.5 -195t-212.5 -74zM332 44
q104 0 166.5 58.5t62.5 156.5q0 99 -62.5 157.5t-166.5 58.5q-105 0 -167.5 -58.5t-62.5 -157.5q0 -98 62.5 -156.5t167.5 -58.5z" />
    <glyph glyph-name="odieresis" unicode="&#xf6;" horiz-adv-x="663" 
d="M218 613v117h56v-117h-56zM390 613v117h57v-117h-57zM332 -10q-132 0 -213 73.5t-81 195.5q0 123 81 196.5t213 73.5t212.5 -73.5t80.5 -196.5q0 -121 -80.5 -195t-212.5 -74zM332 44q104 0 166.5 58.5t62.5 156.5q0 99 -62.5 157.5t-166.5 58.5q-105 0 -167.5 -58.5
t-62.5 -157.5q0 -98 62.5 -156.5t167.5 -58.5z" />
    <glyph glyph-name="divide" unicode="&#xf7;" horiz-adv-x="685" 
d="M305 486v67h74v-67h-74zM93 335v52h499v-52h-499zM305 169v67h74v-67h-74z" />
    <glyph glyph-name="oslash" unicode="&#xf8;" horiz-adv-x="663" 
d="M44 -60l90 111q-96 74 -96 208q0 123 81 196.5t213 73.5q92 0 161 -37l72 89h55l-91 -113q96 -74 96 -209q0 -121 -80.5 -195t-212.5 -74q-91 0 -160 36l-70 -86h-58zM102 259q0 -104 69 -162l285 350q-50 28 -124 28q-105 0 -167.5 -58.5t-62.5 -157.5zM332 44
q104 0 166.5 58.5t62.5 156.5q0 104 -69 164l-284 -351q54 -28 124 -28z" />
    <glyph glyph-name="ugrave" unicode="&#xf9;" horiz-adv-x="641" 
d="M299 592l-81 138h63l63 -138h-45zM285 -8q-228 0 -228 242v287h63v-276q0 -104 45 -152.5t136 -48.5q97 0 158 60.5t61 159.5v257h63v-521h-61l-2 123h-6q-29 -62 -90.5 -96.5t-138.5 -34.5z" />
    <glyph glyph-name="uacute" unicode="&#xfa;" horiz-adv-x="641" 
d="M296 592l63 138h63l-81 -138h-45zM285 -8q-228 0 -228 242v287h63v-276q0 -104 45 -152.5t136 -48.5q97 0 158 60.5t61 159.5v257h63v-521h-61l-2 123h-6q-29 -62 -90.5 -96.5t-138.5 -34.5z" />
    <glyph glyph-name="ucircumflex" unicode="&#xfb;" horiz-adv-x="641" 
d="M169 592l127 138h48l128 -138h-60l-92 100l-92 -100h-59zM285 -8q-228 0 -228 242v287h63v-276q0 -104 45 -152.5t136 -48.5q97 0 158 60.5t61 159.5v257h63v-521h-61l-2 123h-6q-29 -62 -90.5 -96.5t-138.5 -34.5z" />
    <glyph glyph-name="udieresis" unicode="&#xfc;" horiz-adv-x="641" 
d="M205 613v117h57v-117h-57zM378 613v117h57v-117h-57zM285 -8q-228 0 -228 242v287h63v-276q0 -104 45 -152.5t136 -48.5q97 0 158 60.5t61 159.5v257h63v-521h-61l-2 123h-6q-29 -62 -90.5 -96.5t-138.5 -34.5z" />
    <glyph glyph-name="yacute" unicode="&#xfd;" horiz-adv-x="583" 
d="M268 592l63 138h63l-82 -138h-44zM48 -167v54h62q48 0 76.5 20t49.5 62l32 64l-257 488h69l172 -336l44 -86h6l42 88l161 334h67l-282 -574q-55 -114 -179 -114h-63z" />
    <glyph glyph-name="thorn" unicode="&#xfe;" horiz-adv-x="659" 
d="M63 -167v896h62v-320h5q25 55 85 88t144 33q118 0 190 -73t72 -196t-72 -196.5t-190 -73.5q-80 0 -142 35.5t-87 94.5h-4v-288h-63zM345 44q96 0 154 59t58 158q0 101 -57.5 158.5t-154.5 57.5q-99 0 -159 -54.5t-60 -130.5v-54q0 -80 60 -137t159 -57z" />
    <glyph glyph-name="ydieresis" unicode="&#xff;" horiz-adv-x="583" 
d="M177 613v117h56v-117h-56zM349 613v117h57v-117h-57zM48 -167v54h62q48 0 76.5 20t49.5 62l32 64l-257 488h69l172 -336l44 -86h6l42 88l161 334h67l-282 -574q-55 -114 -179 -114h-63z" />
    <glyph glyph-name="dotlessi" unicode="&#x131;" horiz-adv-x="188" 
d="M63 0v521h63v-521h-63z" />
    <glyph glyph-name="OE" unicode="&#x152;" horiz-adv-x="1275" 
d="M409 0q-173 0 -272 99t-99 266q0 168 100 266t271 98h835v-56h-511v-273h462v-53h-462v-290h511v-57h-835zM416 56h251v616h-251q-147 0 -229 -83t-82 -225q0 -146 83.5 -227t227.5 -81z" />
    <glyph glyph-name="oe" unicode="&#x153;" horiz-adv-x="1162" 
d="M332 -10q-132 0 -213 73.5t-81 195.5q0 123 81 196.5t213 73.5q92 0 161 -39t99 -106q31 68 98 106.5t159 38.5q134 0 208.5 -74.5t66.5 -203.5h-499v-3q0 -86 58.5 -146t168.5 -60q77 0 133.5 31t71.5 83h61q-14 -74 -88 -119t-178 -45q-93 0 -161 38t-98 106
q-33 -68 -101 -107t-160 -39zM849 479q-96 0 -155.5 -49t-67.5 -134h434q-1 86 -58.5 134.5t-152.5 48.5zM332 44q104 0 166.5 58.5t62.5 156.5q0 99 -62.5 157.5t-166.5 58.5q-105 0 -167.5 -58.5t-62.5 -157.5q0 -98 62.5 -156.5t167.5 -58.5z" />
    <glyph glyph-name="Wcircumflex" unicode="&#x174;" horiz-adv-x="1080" 
d="M389 801l127 137h48l127 -137h-59l-92 99l-92 -99h-59zM238 0l-226 729h71l154 -505l43 -155h8l213 660h79l207 -662h8l45 157l158 505h69l-230 -729h-88l-207 656h-5l-212 -656h-87z" />
    <glyph glyph-name="wcircumflex" unicode="&#x175;" horiz-adv-x="831" 
d="M265 592l127 138h48l128 -138h-60l-92 100l-92 -100h-59zM189 0l-179 521h63l157 -463h3l145 463h74l149 -463h2l157 463h61l-179 -521h-83l-142 441h-4l-139 -441h-85z" />
    <glyph glyph-name="Ycircumflex" unicode="&#x176;" horiz-adv-x="716" 
d="M208 801l126 137h49l127 -137h-59l-93 99l-92 -99h-58zM325 0v295l-313 434h76l268 -375h5l268 375h75l-314 -434v-295h-65z" />
    <glyph glyph-name="ycircumflex" unicode="&#x177;" horiz-adv-x="583" 
d="M141 592l126 138h49l127 -138h-59l-92 100l-93 -100h-58zM48 -167v54h62q48 0 76.5 20t49.5 62l32 64l-257 488h69l172 -336l44 -86h6l42 88l161 334h67l-282 -574q-55 -114 -179 -114h-63z" />
    <glyph glyph-name="Ydieresis" unicode="&#x178;" horiz-adv-x="716" 
d="M244 821v117h56v-117h-56zM416 821v117h57v-117h-57zM325 0v295l-313 434h76l268 -375h5l268 375h75l-314 -434v-295h-65z" />
    <glyph glyph-name="uni0237" unicode="&#x237;" horiz-adv-x="191" 
d="M-67 -167v52h45q46 0 66.5 21.5t20.5 71.5v543h64v-554q0 -134 -137 -134h-59z" />
    <glyph glyph-name="circumflex" unicode="&#x2c6;" horiz-adv-x="500" 
d="M99 744l127 138h48l128 -138h-60l-92 100l-92 -100h-59z" />
    <glyph glyph-name="caron" unicode="&#x2c7;" horiz-adv-x="380" 
d="M166 744l-127 138h59l92 -100l92 100h59l-127 -138h-48z" />
    <glyph glyph-name="breve" unicode="&#x2d8;" horiz-adv-x="391" 
d="M196 739q-68 0 -105 36t-38 103h50q0 -47 24 -72.5t69 -25.5q44 0 69 26t24 72h49q0 -67 -37 -103t-105 -36z" />
    <glyph glyph-name="dotaccent" unicode="&#x2d9;" horiz-adv-x="500" 
d="M221 765v116h59v-116h-59z" />
    <glyph glyph-name="ring" unicode="&#x2da;" horiz-adv-x="500" 
d="M250 740q-51 0 -82 28t-31 74t31.5 74t81.5 28t81.5 -28t31.5 -74q0 -47 -31.5 -74.5t-81.5 -27.5zM250 775q31 0 50 18.5t19 48.5q0 29 -19 47t-50 18t-50 -18t-19 -47q0 -30 19 -48.5t50 -18.5z" />
    <glyph glyph-name="ogonek" unicode="&#x2db;" horiz-adv-x="422" 
d="M229 -164q-48 0 -76.5 22t-28.5 60q0 34 23 59.5t55 33.5l37 -11q-66 -20 -66 -71q0 -25 18.5 -39t48.5 -14q37 0 59 11v-40q-20 -11 -70 -11z" />
    <glyph glyph-name="tilde" unicode="&#x2dc;" horiz-adv-x="500" 
d="M308 769q-28 1 -65.5 15t-56.5 14q-33 0 -56 -30l-26 17q34 60 87 60q20 0 61 -15t62 -15q34 0 56 32l27 -18q-32 -60 -89 -60z" />
    <glyph glyph-name="hungarumlaut" unicode="&#x2dd;" horiz-adv-x="364" 
d="M45 744l64 138h61l-81 -138h-44zM186 744l69 138h64l-87 -138h-46z" />
    <glyph glyph-name="gravecomb" unicode="&#x300;" horiz-adv-x="0" 
d="M269 744l-82 138h63l64 -138h-45z" />
    <glyph glyph-name="acutecomb" unicode="&#x301;" horiz-adv-x="0" 
d="M187 744l64 138h63l-82 -138h-45z" />
    <glyph glyph-name="uni0302" unicode="&#x302;" horiz-adv-x="0" 
d="M99 744l127 138h48l128 -138h-60l-92 100l-92 -100h-59z" />
    <glyph glyph-name="tildecomb" unicode="&#x303;" horiz-adv-x="0" 
d="M308 769q-28 1 -65.5 15t-56.5 14q-33 0 -56 -30l-26 17q34 60 87 60q20 0 61 -15t62 -15q34 0 56 32l27 -18q-32 -60 -89 -60z" />
    <glyph glyph-name="uni0304" unicode="&#x304;" horiz-adv-x="0" 
d="M24 775v48h330v-48h-330z" />
    <glyph glyph-name="uni0306" unicode="&#x306;" horiz-adv-x="0" 
d="M196 739q-68 0 -105 36t-38 103h50q0 -47 24 -72.5t69 -25.5q44 0 69 26t24 72h49q0 -67 -37 -103t-105 -36z" />
    <glyph glyph-name="uni0307" unicode="&#x307;" horiz-adv-x="0" 
d="M221 765v116h59v-116h-59z" />
    <glyph glyph-name="uni0308" unicode="&#x308;" horiz-adv-x="0" 
d="M135 765v117h57v-117h-57zM308 765v117h57v-117h-57z" />
    <glyph glyph-name="uni030A" unicode="&#x30a;" horiz-adv-x="0" 
d="M250 740q-51 0 -82 28t-31 74t31.5 74t81.5 28t81.5 -28t31.5 -74q0 -47 -31.5 -74.5t-81.5 -27.5zM250 775q31 0 50 18.5t19 48.5q0 29 -19 47t-50 18t-50 -18t-19 -47q0 -30 19 -48.5t50 -18.5z" />
    <glyph glyph-name="uni030B" unicode="&#x30b;" horiz-adv-x="0" 
d="M45 744l64 138h61l-81 -138h-44zM186 744l69 138h64l-87 -138h-46z" />
    <glyph glyph-name="uni030C" unicode="&#x30c;" horiz-adv-x="0" 
d="M166 744l-127 138h59l92 -100l92 100h59l-127 -138h-48z" />
    <glyph glyph-name="uni0327" unicode="&#x327;" horiz-adv-x="0" 
d="M250 -217q-44 0 -71.5 20t-27.5 52h43q2 -16 17 -26t37 -10q57 0 57 47q0 45 -56 45h-36v96h42v-67q95 -2 95 -76q-1 -38 -28.5 -59.5t-71.5 -21.5z" />
    <glyph glyph-name="uni0328" unicode="&#x328;" horiz-adv-x="0" 
d="M229 -164q-48 0 -76.5 22t-28.5 60q0 34 23 59.5t55 33.5l37 -11q-66 -20 -66 -71q0 -25 18.5 -39t48.5 -14q37 0 59 11v-40q-20 -11 -70 -11z" />
    <glyph glyph-name="uni0337" unicode="&#x337;" horiz-adv-x="0" 
d="M75 -60l521 641h55l-518 -641h-58z" />
    <glyph glyph-name="uni0338" unicode="&#x338;" horiz-adv-x="0" 
d="M50 -81l657 810h62l-654 -810h-65z" />
    <glyph glyph-name="uni03BC" unicode="&#x3bc;" horiz-adv-x="641" 
d="M57 -132v653h63v-280q0 -197 188 -197q102 0 157 59.5t55 160.5v257h63v-521h-62l-1 123h-6q-26 -62 -86 -96.5t-135 -34.5q-122 0 -173 73v-197h-63z" />
    <glyph glyph-name="pi" unicode="&#x3c0;" horiz-adv-x="618" 
d="M542 -7q-100 0 -100 116v360h-264v-469h-62v469h-91v52h569v-52h-89v-336q0 -44 11 -64.5t40 -20.5q23 0 37 9v-55q-13 -9 -51 -9z" />
    <glyph glyph-name="Wgrave" unicode="&#x1e80;" horiz-adv-x="1080" 
d="M519 801l-81 137h62l64 -137h-45zM238 0l-226 729h71l154 -505l43 -155h8l213 660h79l207 -662h8l45 157l158 505h69l-230 -729h-88l-207 656h-5l-212 -656h-87z" />
    <glyph glyph-name="wgrave" unicode="&#x1e81;" horiz-adv-x="831" 
d="M396 592l-82 138h63l63 -138h-44zM189 0l-179 521h63l157 -463h3l145 463h74l149 -463h2l157 463h61l-179 -521h-83l-142 441h-4l-139 -441h-85z" />
    <glyph glyph-name="Wacute" unicode="&#x1e82;" horiz-adv-x="1080" 
d="M516 801l63 137h63l-82 -137h-44zM238 0l-226 729h71l154 -505l43 -155h8l213 660h79l207 -662h8l45 157l158 505h69l-230 -729h-88l-207 656h-5l-212 -656h-87z" />
    <glyph glyph-name="wacute" unicode="&#x1e83;" horiz-adv-x="831" 
d="M392 592l64 138h62l-81 -138h-45zM189 0l-179 521h63l157 -463h3l145 463h74l149 -463h2l157 463h61l-179 -521h-83l-142 441h-4l-139 -441h-85z" />
    <glyph glyph-name="Wdieresis" unicode="&#x1e84;" horiz-adv-x="1080" 
d="M425 821v117h56v-117h-56zM597 821v117h58v-117h-58zM238 0l-226 729h71l154 -505l43 -155h8l213 660h79l207 -662h8l45 157l158 505h69l-230 -729h-88l-207 656h-5l-212 -656h-87z" />
    <glyph glyph-name="wdieresis" unicode="&#x1e85;" horiz-adv-x="831" 
d="M301 613v117h57v-117h-57zM474 613v117h57v-117h-57zM189 0l-179 521h63l157 -463h3l145 463h74l149 -463h2l157 463h61l-179 -521h-83l-142 441h-4l-139 -441h-85z" />
    <glyph glyph-name="uni1E9E" unicode="&#x1e9e;" horiz-adv-x="726" 
d="M69 0v729h574v-71l-211 -237v-7h42q109 0 168.5 -53.5t59.5 -150.5t-63.5 -153.5t-176.5 -56.5h-240v55h226q183 0 183 159q0 156 -183 156h-99v43l230 259h-442v-672h-68z" />
    <glyph glyph-name="Ygrave" unicode="&#x1ef2;" horiz-adv-x="716" 
d="M338 801l-82 137h63l63 -137h-44zM325 0v295l-313 434h76l268 -375h5l268 375h75l-314 -434v-295h-65z" />
    <glyph glyph-name="ygrave" unicode="&#x1ef3;" horiz-adv-x="583" 
d="M271 592l-82 138h63l64 -138h-45zM48 -167v54h62q48 0 76.5 20t49.5 62l32 64l-257 488h69l172 -336l44 -86h6l42 88l161 334h67l-282 -574q-55 -114 -179 -114h-63z" />
    <glyph glyph-name="endash" unicode="&#x2013;" horiz-adv-x="537" 
d="M49 235v52h439v-52h-439z" />
    <glyph glyph-name="emdash" unicode="&#x2014;" horiz-adv-x="722" 
d="M49 235v52h623v-52h-623z" />
    <glyph glyph-name="quoteleft" unicode="&#x2018;" horiz-adv-x="166" 
d="M130 729v-37l-11 -1q-35 -4 -35 -56v-56h32v-76h-69v137q0 84 66 88z" />
    <glyph glyph-name="quoteright" unicode="&#x2019;" horiz-adv-x="166" 
d="M36 503v37l11 1q35 4 35 56v56h-32v76h69v-137q0 -84 -66 -88z" />
    <glyph glyph-name="quotesinglbase" unicode="&#x201a;" horiz-adv-x="166" 
d="M36 -150v37l11 1q35 3 35 56v56h-32v76h69v-138q0 -82 -66 -88h-17z" />
    <glyph glyph-name="quotedblleft" unicode="&#x201c;" horiz-adv-x="316" 
d="M280 729v-37l-10 -1q-36 -4 -36 -56v-56h32v-76h-69v137q0 84 66 88zM130 729v-37l-11 -1q-35 -4 -35 -56v-56h32v-76h-69v137q0 84 66 88z" />
    <glyph glyph-name="quotedblright" unicode="&#x201d;" horiz-adv-x="316" 
d="M36 503v37l11 1q35 4 35 56v56h-32v76h69v-137q0 -84 -66 -88zM186 503v37l11 1q36 4 36 56v56h-32v76h69v-137q0 -83 -67 -88z" />
    <glyph glyph-name="quotedblbase" unicode="&#x201e;" horiz-adv-x="316" 
d="M36 -150v37l11 1q35 3 35 56v56h-32v76h69v-138q0 -82 -66 -88h-17zM186 -150v37l11 1q36 3 36 56v56h-32v76h69v-138q0 -82 -67 -88h-17z" />
    <glyph glyph-name="bullet" unicode="&#x2022;" horiz-adv-x="362" 
d="M69 277q0 48 32 79.5t81 31.5q50 0 81 -31.5t31 -79.5t-31 -79t-81 -31q-49 0 -81 31.5t-32 78.5z" />
    <glyph glyph-name="ellipsis" unicode="&#x2026;" horiz-adv-x="489" 
d="M47 0v76h69v-76h-69zM210 0v76h69v-76h-69zM373 0v76h69v-76h-69z" />
    <glyph glyph-name="perthousand" unicode="&#x2030;" horiz-adv-x="1324" 
d="M162 0l529 729h58l-530 -729h-57zM204 323q-83 0 -132.5 52.5t-49.5 148.5t49 148.5t132 52.5q82 0 131 -52.5t49 -148.5t-48.5 -148.5t-130.5 -52.5zM203 366q61 0 95 40.5t34 117.5t-34 117.5t-95 40.5t-94.5 -40.5t-33.5 -117.5t33.5 -117.5t94.5 -40.5zM709 -5
q-83 0 -132.5 52.5t-49.5 148.5t49.5 148.5t131.5 52.5t131 -52.5t49 -148.5t-48.5 -148.5t-130.5 -52.5zM1123 -5q-83 0 -132.5 52.5t-49.5 148.5t49 148.5t132 52.5q82 0 131 -52.5t49 -148.5t-49 -148.5t-130 -52.5zM708 38q61 0 95 40.5t34 117.5t-34 117.5t-95 40.5
t-94.5 -40.5t-33.5 -117.5t33.5 -117.5t94.5 -40.5zM1122 38q61 0 94.5 41t33.5 117q0 77 -33.5 117.5t-94.5 40.5t-95 -40.5t-34 -117.5t34 -117.5t95 -40.5z" />
    <glyph glyph-name="guilsinglleft" unicode="&#x2039;" horiz-adv-x="250" 
d="M159 0l-121 261l121 260h55l-117 -260l117 -261h-55z" />
    <glyph glyph-name="guilsinglright" unicode="&#x203a;" horiz-adv-x="250" 
d="M91 521l121 -261l-121 -260h-55l117 260l-117 261h55z" />
    <glyph glyph-name="fraction" unicode="&#x2044;" horiz-adv-x="218" 
d="M-210 0l581 721h57l-582 -721h-56z" />
    <glyph glyph-name="uni2070" unicode="&#x2070;" horiz-adv-x="474" 
d="M237 320q-94 0 -150 58t-56 164t56 163.5t151 57.5q93 0 149 -57.5t56 -163.5t-56 -164t-150 -58zM237 364q73 0 113 46t40 132t-39.5 132t-113.5 46q-73 0 -113.5 -46t-40.5 -132t40 -132t114 -46z" />
    <glyph glyph-name="uni2074" unicode="&#x2074;" horiz-adv-x="418" 
d="M284 326v110h-266v39l248 284h70v-282h71v-41h-71v-110h-52zM74 477h210v237z" />
    <glyph glyph-name="uni2075" unicode="&#x2075;" horiz-adv-x="420" 
d="M209 321q-81 0 -129 37.5t-49 99.5h51q0 -43 34.5 -69.5t93.5 -26.5q65 0 99 28.5t34 77.5q0 51 -34 78t-96 27q-42 0 -75 -15t-48 -40h-50l14 241h318v-42h-271l-10 -153l4 -1q18 22 53.5 35.5t75.5 13.5q83 0 127.5 -38.5t44.5 -105.5q0 -70 -51 -108.5t-136 -38.5z
" />
    <glyph glyph-name="uni2076" unicode="&#x2076;" horiz-adv-x="432" 
d="M222 321q-191 0 -191 197q0 127 50 186t149 59q72 0 116.5 -30t51.5 -81h-51q-7 34 -38.5 52.5t-79.5 18.5q-84 0 -115 -51t-32 -150h4q13 38 53.5 60.5t94.5 22.5q80 0 125.5 -36.5t45.5 -101.5q0 -69 -50 -107.5t-133 -38.5zM223 362q63 0 96 28t33 76q0 50 -34 75.5
t-93 25.5q-60 0 -96 -29.5t-36 -74.5q0 -49 35.5 -75t94.5 -26z" />
    <glyph glyph-name="uni2077" unicode="&#x2077;" horiz-adv-x="367" 
d="M138 326q0 217 158 390h-242v-90h-41v133h342v-36q-86 -96 -125 -189.5t-39 -207.5h-53z" />
    <glyph glyph-name="uni2078" unicode="&#x2078;" horiz-adv-x="408" 
d="M204 321q-87 0 -135.5 31.5t-48.5 89.5q0 45 31 74t78 32v3q-45 6 -72 32t-27 68q0 57 48 84.5t126 27.5t126.5 -28t48.5 -84q0 -42 -26.5 -67.5t-73.5 -32.5v-3q48 -3 78.5 -32t30.5 -74q0 -58 -48.5 -89.5t-135.5 -31.5zM204 567q123 0 123 78t-123 78q-122 0 -122 -78
t122 -78zM204 362q131 0 131 85q0 83 -131 83q-130 0 -130 -83q0 -85 130 -85z" />
    <glyph glyph-name="uni2079" unicode="&#x2079;" horiz-adv-x="432" 
d="M207 321q-71 0 -117 30t-53 82h51q7 -35 38.5 -53t79.5 -18q81 0 114 50t31 150l-4 1q-15 -41 -54 -62.5t-94 -21.5q-80 0 -125.5 37t-45.5 102q0 69 49.5 107t132.5 38q192 0 192 -207q0 -122 -49.5 -178.5t-145.5 -56.5zM208 517q62 0 96.5 28.5t34.5 76.5q0 47 -35 74
t-94 27q-64 0 -96.5 -28t-32.5 -77t34 -75t93 -26z" />
    <glyph glyph-name="uni2080" unicode="&#x2080;" horiz-adv-x="474" 
d="M237 -36q-94 0 -150 58t-56 164t56 163.5t151 57.5q93 0 149 -57.5t56 -163.5t-56 -164t-150 -58zM237 8q73 0 113 46t40 132t-39.5 132t-113.5 46q-73 0 -113.5 -46t-40.5 -132t40 -132t114 -46z" />
    <glyph glyph-name="uni2081" unicode="&#x2081;" horiz-adv-x="214" 
d="M120 -30v324h-107v38h20q82 0 87 71h51v-433h-51z" />
    <glyph glyph-name="uni2082" unicode="&#x2082;" horiz-adv-x="387" 
d="M27 -30v12q0 44 29 78.5t70 56.5t82 43t70 50.5t29 66.5q0 43 -30.5 66t-80.5 23q-55 0 -86 -26.5t-32 -71.5h-50q2 67 47.5 103.5t123.5 36.5q75 0 117.5 -35t42.5 -94q0 -43 -26.5 -76.5t-65 -55.5t-77.5 -41t-67.5 -43.5t-30.5 -52.5h273v-40h-338z" />
    <glyph glyph-name="uni2083" unicode="&#x2083;" horiz-adv-x="410" 
d="M205 -35q-84 0 -131 36.5t-48 102.5h51q0 -47 33.5 -73t94.5 -26q65 0 98.5 23.5t33.5 64.5q0 82 -116 82h-59v37h53q57 0 85 21t28 57q0 77 -120 77q-55 0 -89 -25.5t-35 -70.5h-50q-1 63 48 99.5t127 36.5q79 0 125 -28t46 -83q0 -40 -25.5 -66.5t-67.5 -33.5v-3
q49 -4 75.5 -32t26.5 -72q0 -58 -49 -91t-135 -33z" />
    <glyph glyph-name="uni2084" unicode="&#x2084;" horiz-adv-x="418" 
d="M284 -30v110h-266v39l248 284h70v-282h71v-41h-71v-110h-52zM74 121h210v237z" />
    <glyph glyph-name="uni2085" unicode="&#x2085;" horiz-adv-x="420" 
d="M209 -35q-81 0 -129 37.5t-49 99.5h51q0 -43 34.5 -69.5t93.5 -26.5q65 0 99 28.5t34 77.5q0 51 -34 78t-96 27q-42 0 -75 -15t-48 -40h-50l14 241h318v-42h-271l-10 -153l4 -1q18 22 53.5 35.5t75.5 13.5q83 0 127.5 -38.5t44.5 -105.5q0 -70 -51 -108.5t-136 -38.5z
" />
    <glyph glyph-name="uni2086" unicode="&#x2086;" horiz-adv-x="432" 
d="M222 -35q-191 0 -191 197q0 127 50 186t149 59q72 0 116.5 -30t51.5 -81h-51q-7 34 -38.5 52.5t-79.5 18.5q-84 0 -115 -51t-32 -150h4q13 38 53.5 60.5t94.5 22.5q80 0 125.5 -36.5t45.5 -101.5q0 -69 -50 -107.5t-133 -38.5zM223 6q63 0 96 28t33 76q0 50 -34 75.5
t-93 25.5q-60 0 -96 -29.5t-36 -74.5q0 -49 35.5 -75t94.5 -26z" />
    <glyph glyph-name="uni2087" unicode="&#x2087;" horiz-adv-x="367" 
d="M138 -30q0 217 158 390h-242v-90h-41v133h342v-36q-86 -96 -125 -189.5t-39 -207.5h-53z" />
    <glyph glyph-name="uni2088" unicode="&#x2088;" horiz-adv-x="408" 
d="M204 -35q-87 0 -135.5 31.5t-48.5 89.5q0 45 31 74t78 32v3q-45 6 -72 32t-27 68q0 57 48 84.5t126 27.5t126.5 -28t48.5 -84q0 -42 -26.5 -67.5t-73.5 -32.5v-3q48 -3 78.5 -32t30.5 -74q0 -58 -48.5 -89.5t-135.5 -31.5zM204 211q123 0 123 78t-123 78q-122 0 -122 -78
t122 -78zM204 6q131 0 131 85q0 83 -131 83q-130 0 -130 -83q0 -85 130 -85z" />
    <glyph glyph-name="uni2089" unicode="&#x2089;" horiz-adv-x="432" 
d="M207 -35q-71 0 -117 30t-53 82h51q7 -35 38.5 -53t79.5 -18q81 0 114 50t31 150l-4 1q-15 -41 -54 -62.5t-94 -21.5q-80 0 -125.5 37t-45.5 102q0 69 49.5 107t132.5 38q192 0 192 -207q0 -122 -49.5 -178.5t-145.5 -56.5zM208 161q62 0 96.5 28.5t34.5 76.5q0 47 -35 74
t-94 27q-64 0 -96.5 -28t-32.5 -77t34 -75t93 -26z" />
    <glyph glyph-name="uni20AA" unicode="&#x20aa;" horiz-adv-x="810" 
d="M359 0q-40 0 -60 18.5t-20 62.5v484h51v-510h350v674h62v-729h-383zM69 0v729h383q40 0 60 -18t20 -62v-484h-52v509h-350v-674h-61z" />
    <glyph glyph-name="Euro" unicode="&#x20ac;" horiz-adv-x="911" 
d="M38 248v42h98q-6 35 -6 74q0 33 7 75h-99v42h108q33 119 131 187t241 68q144 0 240.5 -66t116.5 -179h-67q-19 86 -97.5 137t-192.5 51q-115 0 -193.5 -52t-108.5 -146h362l-6 -42h-367q-6 -35 -6 -75t6 -74h345l-6 -42h-328q30 -94 108.5 -146.5t193.5 -52.5
q118 0 196 52t95 140l66 -1q-16 -113 -114 -180.5t-243 -67.5q-143 0 -241 68.5t-131 187.5h-108z" />
    <glyph glyph-name="uni20B9" unicode="&#x20b9;" horiz-adv-x="648" 
d="M498 0q-13 10 -19 45l-23 146q-10 70 -47 95.5t-98 25.5h-242v51h251q169 0 180 133h-431v44h431q-17 137 -173 137h-258v52h576v-47h-169v-3q38 -14 64.5 -52.5t28.5 -85.5h76v-46h-75q-6 -62 -47 -104t-106 -55v-6q90 -19 107 -128l20 -138q5 -44 24 -52v-12h-70z" />
    <glyph glyph-name="uni20BA" unicode="&#x20ba;" horiz-adv-x="642" 
d="M123 0v310l-108 -37v52l108 39v114l-108 -38v51l108 40v198h63v-173l244 86v-52l-244 -87v-115l244 87v-52l-244 -87v-278q173 -1 261.5 69.5t97.5 195.5h65q-12 -162 -124 -242.5t-304 -80.5h-59z" />
    <glyph glyph-name="uni20BF" unicode="&#x20bf;" horiz-adv-x="699" 
d="M69 0v729h138v85h50v-85h140v85h50v-85q99 -3 154 -53t55 -134q0 -61 -31.5 -105.5t-93.5 -58.5v-4q69 -13 107 -60t38 -113q0 -89 -61 -143t-168 -58v-85h-50v85h-140v-85h-51v85h-137zM134 399h305q73 0 111.5 36.5t38.5 98.5q0 67 -44 105t-120 38h-291v-278zM134 53
h292q88 0 134.5 41.5t46.5 111.5q0 67 -43.5 104.5t-121.5 37.5h-308v-295z" />
    <glyph glyph-name="uni2117" unicode="&#x2117;" horiz-adv-x="937" 
d="M469 -10q-177 0 -285.5 102.5t-108.5 270.5t108.5 270.5t285.5 102.5t285 -102.5t108 -270.5t-108 -270.5t-285 -102.5zM469 29q158 0 254.5 92t96.5 242t-96.5 242t-254.5 92t-254.5 -92t-96.5 -242t96.5 -242t254.5 -92zM334 165v397h196q70 0 109 -32t39 -91
q0 -58 -39.5 -90.5t-108.5 -32.5h-143v-151h-53zM523 522h-136v-168h136q49 0 76 22.5t27 61.5q0 40 -26.5 62t-76.5 22z" />
    <glyph glyph-name="trademark" unicode="&#x2122;" horiz-adv-x="789" 
d="M371 418v311h64l125 -254h3l126 254h66v-311h-49v141l3 112h-3l-125 -253h-38l-125 253h-2l1 -112v-141h-46zM151 418v270h-115v41h283v-41h-120v-270h-48z" />
    <glyph glyph-name="oneeighth" unicode="&#x215b;" horiz-adv-x="714" 
d="M104 327v293h-92v36h18q69 0 76 65h47v-394h-49zM-19 0l581 721h57l-582 -721h-56zM536 -5q-76 0 -118 29t-42 82q0 41 27 67.5t67 28.5v2q-39 6 -62 30t-23 62q0 51 41.5 76.5t109.5 25.5t110 -25.5t42 -76.5q0 -38 -22.5 -62t-62.5 -30v-2q41 -2 67.5 -28.5t26.5 -67.5
q0 -53 -42.5 -82t-118.5 -29zM536 219q104 0 104 71t-104 71q-103 0 -103 -71t103 -71zM536 32q111 0 111 79q0 74 -111 74t-111 -74q0 -79 111 -79z" />
    <glyph glyph-name="threeeighths" unicode="&#x215c;" horiz-adv-x="882" 
d="M178 322q-74 0 -114 34t-41 93h48q0 -44 29 -67t79 -23q55 0 83.5 21.5t28.5 58.5q0 74 -99 74h-51v35h47q96 0 96 71q0 69 -102 69q-48 0 -76.5 -23t-29.5 -65h-46q0 58 42.5 91.5t110.5 33.5q69 0 109.5 -25.5t40.5 -75.5q0 -37 -22 -60.5t-59 -31.5v-2q40 -4 64 -28.5
t24 -66.5q0 -52 -43 -82.5t-119 -30.5zM149 0l581 721h56l-582 -721h-55zM704 -5q-76 0 -118.5 29t-42.5 82q0 41 27 67.5t68 28.5v2q-40 6 -63 30t-23 62q0 52 41.5 77t110.5 25q68 0 110 -25.5t42 -76.5q0 -38 -22.5 -62t-62.5 -30v-2q41 -2 67.5 -28.5t26.5 -67.5
q0 -53 -42.5 -82t-118.5 -29zM704 219q104 0 104 71t-104 71t-104 -71t104 -71zM704 32q111 0 111 79q0 74 -111 74t-111 -74q0 -79 111 -79z" />
    <glyph glyph-name="fiveeighths" unicode="&#x215d;" horiz-adv-x="890" 
d="M182 322q-71 0 -112 34.5t-43 90.5h47q1 -40 30.5 -63.5t77.5 -23.5q56 0 85.5 26t29.5 70q0 47 -29.5 71t-82.5 24q-75 0 -105 -49h-45l12 219h278v-39h-234l-9 -138l4 -1q15 20 45.5 32t64.5 12q71 0 110.5 -34.5t39.5 -95.5q0 -64 -45 -99.5t-119 -35.5zM157 0
l581 721h56l-582 -721h-55zM711 -5q-76 0 -118 29t-42 82q0 41 27 67.5t67 28.5v2q-39 6 -62 30t-23 62q0 51 41.5 76.5t109.5 25.5q69 0 111 -25.5t42 -76.5q0 -38 -23 -62t-63 -30v-2q41 -2 67.5 -28.5t26.5 -67.5q0 -53 -42 -82t-119 -29zM711 219q105 0 105 71t-105 71
q-103 0 -103 -71t103 -71zM711 32q111 0 111 79q0 74 -111 74t-111 -74q0 -79 111 -79z" />
    <glyph glyph-name="seveneighths" unicode="&#x215e;" horiz-adv-x="758" 
d="M119 327q0 194 136 355h-207v-82h-37v121h298v-33q-76 -90 -108.5 -176t-32.5 -185h-49zM25 0l581 721h56l-582 -721h-55zM579 -5q-76 0 -118 29t-42 82q0 41 27 67.5t67 28.5v2q-39 6 -62 30t-23 62q0 51 41.5 76.5t109.5 25.5q69 0 111 -25.5t42 -76.5q0 -38 -23 -62
t-63 -30v-2q41 -2 67.5 -28.5t26.5 -67.5q0 -53 -42 -82t-119 -29zM579 219q105 0 105 71t-105 71q-103 0 -103 -71t103 -71zM579 32q111 0 111 79q0 74 -111 74t-111 -74q0 -79 111 -79z" />
    <glyph glyph-name="arrowleft" unicode="&#x2190;" horiz-adv-x="682" 
d="M599 394v-58h-462l127 -176h-63l-148 205l148 205h63l-127 -176h462z" />
    <glyph glyph-name="arrowup" unicode="&#x2191;" horiz-adv-x="526" 
d="M234 92v462l-176 -127v63l205 148l204 -148v-63l-175 127v-462h-58z" />
    <glyph glyph-name="arrowright" unicode="&#x2192;" horiz-adv-x="681" 
d="M82 394h463l-127 176h62l149 -205l-149 -205h-62l127 176h-463v58z" />
    <glyph glyph-name="arrowdown" unicode="&#x2193;" horiz-adv-x="526" 
d="M234 637h58v-462l175 127v-63l-204 -148l-205 148v63l176 -127v462z" />
    <glyph glyph-name="arrowboth" unicode="&#x2194;" horiz-adv-x="829" 
d="M220 160l-149 205l149 205h62l-127 -176h519l-127 176h62l149 -205l-149 -205h-62l127 176h-519l127 -176h-62z" />
    <glyph glyph-name="emptyset" unicode="&#x2205;" horiz-adv-x="869" 
d="M435 0q-151 0 -255.5 103.5t-104.5 262.5q0 157 104.5 260t255.5 103q150 0 254.5 -103t104.5 -260q0 -159 -104.5 -262.5t-254.5 -103.5zM149 213l552 338q-43 67 -113.5 105.5t-152.5 38.5q-133 0 -227 -94t-94 -235q0 -85 35 -153zM435 34q132 0 226 95t94 237
q0 81 -35 153l-554 -337q44 -69 115 -108.5t154 -39.5z" />
    <glyph glyph-name="product" unicode="&#x220f;" horiz-adv-x="791" 
d="M69 -151v880h653v-880h-65v821h-523v-821h-65z" />
    <glyph glyph-name="summation" unicode="&#x2211;" horiz-adv-x="718" 
d="M69 -151v64l327 373v7l-327 372v64h580v-58h-284l-216 1v-4l334 -379l-334 -379v-4l216 1h284v-58h-580z" />
    <glyph glyph-name="minus" unicode="&#x2212;" horiz-adv-x="703" 
d="M104 335v52h496v-52h-496z" />
    <glyph glyph-name="radical" unicode="&#x221a;" horiz-adv-x="736" 
d="M298 -151l-183 472h-92v58h143l167 -447h4l307 797h70l-342 -880h-74z" />
    <glyph glyph-name="infinity" unicode="&#x221e;" horiz-adv-x="906" 
d="M232 147q-88 0 -141 61.5t-53 155.5q0 92 53.5 155.5t140.5 63.5q72 0 123 -46.5t99 -129.5q49 84 99 130t123 46q88 0 139.5 -63.5t51.5 -155.5q0 -90 -51.5 -153.5t-139.5 -63.5q-72 0 -123.5 45.5t-98.5 130.5q-47 -82 -99 -129t-123 -47zM233 202q52 0 95.5 38.5
t94.5 124.5q-52 86 -94 124t-97 38q-62 0 -100 -46t-38 -117q0 -72 38.5 -117t100.5 -45zM674 202q61 0 100.5 47t39.5 115q0 70 -39 116.5t-101 46.5q-55 0 -95.5 -37.5t-95.5 -124.5q56 -89 96 -126t95 -37z" />
    <glyph glyph-name="integral" unicode="&#x222b;" horiz-adv-x="462" 
d="M23 -151v52h177v758q0 33 16.5 51.5t46.5 18.5h177v-53h-177v-760q0 -67 -64 -67h-176z" />
    <glyph glyph-name="approxequal" unicode="&#x2248;" horiz-adv-x="699" 
d="M435 412q-36 0 -96 25t-85 25q-53 0 -47 -62h-42q-4 57 20 87.5t68 30.5q31 0 90 -25t92 -25q59 0 58 63h42q4 -58 -24 -88.5t-76 -30.5zM435 205q-36 0 -96 25.5t-85 25.5t-37.5 -17t-9.5 -46h-42q-4 58 20.5 88.5t67.5 30.5q31 0 90 -25.5t92 -25.5q28 0 43.5 16.5
t14.5 46.5h42q4 -59 -24.5 -89t-75.5 -30z" />
    <glyph glyph-name="notequal" unicode="&#x2260;" horiz-adv-x="708" 
d="M193 92l62 122h-151v52h176l97 190h-273v53h298l61 121h52l-61 -121h150v-53h-175l-97 -190h272v-52h-296l-62 -122h-53z" />
    <glyph glyph-name="lessequal" unicode="&#x2264;" horiz-adv-x="761" 
d="M652 138l-542 209v73l542 202v-61l-478 -176v-4l478 -182v-61zM110 0v50h542v-50h-542z" />
    <glyph glyph-name="greaterequal" unicode="&#x2265;" horiz-adv-x="761" 
d="M110 138v61l478 182v4l-478 176v61l542 -202v-73zM110 0v50h542v-50h-542z" />
    <glyph glyph-name="uni2639" unicode="&#x2639;" horiz-adv-x="900" 
d="M451 -10q-165 0 -270.5 104t-105.5 272q0 166 105.5 269.5t270.5 103.5q164 0 269 -103.5t105 -269.5q0 -168 -105 -272t-269 -104zM451 25q147 0 241 94.5t94 246.5q0 150 -94 244t-241 94q-148 0 -242.5 -93.5t-94.5 -244.5q0 -152 94.5 -246.5t242.5 -94.5zM361 392
q-26 0 -40 18.5t-14 47.5q0 33 15 50t39 17q27 0 40.5 -18.5t13.5 -48.5q0 -66 -54 -66zM540 392q-25 0 -39.5 18.5t-14.5 47.5q0 32 15 49.5t39 17.5q27 0 41 -19t14 -48q0 -66 -55 -66zM213 161q23 72 86 114t150 42q88 0 150.5 -41.5t87.5 -114.5h-38q-22 56 -76 88.5
t-124 32.5q-69 0 -122.5 -32.5t-76.5 -88.5h-37z" />
    <glyph glyph-name="smileface" unicode="&#x263a;" horiz-adv-x="900" 
d="M451 -10q-165 0 -270.5 104t-105.5 272q0 166 105.5 269.5t270.5 103.5q164 0 269 -103.5t105 -269.5q0 -168 -105 -272t-269 -104zM451 25q147 0 241 94.5t94 246.5q0 150 -94 244t-241 94q-148 0 -242.5 -93.5t-94.5 -244.5q0 -152 94.5 -246.5t242.5 -94.5zM361 392
q-26 0 -40 18.5t-14 47.5q0 33 15 50t39 17q27 0 40.5 -18.5t13.5 -48.5q0 -66 -54 -66zM540 392q-25 0 -39.5 18.5t-14.5 47.5q0 32 15 49.5t39 17.5q27 0 41 -19t14 -48q0 -66 -55 -66zM449 108q-100 0 -167 55t-80 146h-34v18h112v-18h-40q10 -74 68.5 -119.5
t140.5 -45.5q84 0 142 45.5t68 119.5h-38v18h111v-18h-34q-14 -92 -81 -146.5t-168 -54.5z" />
    <glyph glyph-name="uni2713" unicode="&#x2713;" horiz-adv-x="944" 
d="M317 127l-194 257l39 35l160 -216l465 394l35 -41z" />
    <glyph glyph-name="uni2776" unicode="&#x2776;" 
d="M451 -10q-177 0 -285.5 102.5t-108.5 270.5t108.5 270.5t285.5 102.5t285.5 -102.5t108.5 -270.5t-108.5 -270.5t-285.5 -102.5zM455 165h49v397h-47q-6 -65 -79 -65h-18v-36h95v-296z" />
    <glyph glyph-name="uni2777" unicode="&#x2777;" 
d="M451 -10q-177 0 -285.5 102.5t-108.5 270.5t108.5 270.5t285.5 102.5t285.5 -102.5t108.5 -270.5t-108.5 -270.5t-285.5 -102.5zM299 163h305v38h-151q-77 0 -94 -1q2 26 28 47.5t60.5 39.5t69 38t58.5 51t24 70q0 54 -38.5 86t-106.5 32q-69 0 -110.5 -33t-42.5 -94h46
q1 41 29.5 65.5t76.5 24.5q43 0 70 -21.5t27 -60.5q0 -34 -26 -61t-63 -46.5t-73.5 -39.5t-62.5 -51.5t-26 -71.5v-12z" />
    <glyph glyph-name="uni2778" unicode="&#x2778;" 
d="M451 -10q-177 0 -285.5 102.5t-108.5 270.5t108.5 270.5t285.5 102.5t285.5 -102.5t108.5 -270.5t-108.5 -270.5t-285.5 -102.5zM449 160q78 0 122.5 31t44.5 84q0 39 -24.5 65t-68.5 30v2q39 7 62 31t23 61q0 51 -42.5 76.5t-112.5 25.5q-71 0 -114.5 -33t-42.5 -91h45
q1 39 30.5 63t80.5 24q106 0 106 -69q0 -72 -99 -72h-48v-36h52q103 0 103 -74q0 -37 -30 -58.5t-87 -21.5q-52 0 -82.5 23t-31.5 66h-47q0 -58 42 -92.5t119 -34.5z" />
    <glyph glyph-name="uni2779" unicode="&#x2779;" 
d="M57 363q0 168 108.5 270.5t285.5 102.5t285.5 -102.5t108.5 -270.5t-108.5 -270.5t-285.5 -102.5t-285.5 102.5t-108.5 270.5zM263 265h239v-100h48v100h64v40h-64v257h-64l-223 -260v-37zM315 305l187 214v-214h-187z" />
    <glyph glyph-name="uni277A" unicode="&#x277a;" 
d="M451 -10q-177 0 -285.5 102.5t-108.5 270.5t108.5 270.5t285.5 102.5t285.5 -102.5t108.5 -270.5t-108.5 -270.5t-285.5 -102.5zM447 162q76 0 122.5 36t46.5 100q0 62 -40 96.5t-114 34.5q-79 0 -116 -44l-3 1l9 139h242v39h-286l-13 -221h47q28 49 109 49
q55 0 85.5 -24t30.5 -71q0 -45 -31 -71t-88 -26q-50 0 -81.5 24t-31.5 64h-49q2 -58 45.5 -92t115.5 -34z" />
    <glyph glyph-name="uni277B" unicode="&#x277b;" 
d="M451 -10q-177 0 -285.5 102.5t-108.5 270.5t108.5 270.5t285.5 102.5t285.5 -102.5t108.5 -270.5t-108.5 -270.5t-285.5 -102.5zM455 161q76 0 120.5 35.5t44.5 98.5q0 59 -40.5 93t-113.5 34q-47 0 -83.5 -21t-48.5 -55h-4q1 91 30 137t101 46q42 0 71 -17t34 -48h48
q-7 47 -47 74.5t-104 27.5q-89 0 -134 -53.5t-45 -170.5q0 -181 171 -181zM456 199q-52 0 -83.5 23.5t-31.5 68.5q0 41 32 68.5t85 27.5q52 0 83 -24t31 -69q0 -44 -30 -69.5t-86 -25.5z" />
    <glyph glyph-name="uni277C" unicode="&#x277c;" 
d="M451 -10q-177 0 -285.5 102.5t-108.5 270.5t108.5 270.5t285.5 102.5t285.5 -102.5t108.5 -270.5t-108.5 -270.5t-285.5 -102.5zM411 165h49q0 101 33.5 187.5t112.5 176.5v33h-308v-122h37v82h217q-141 -157 -141 -357z" />
    <glyph glyph-name="uni277D" unicode="&#x277d;" 
d="M57 363q0 168 108.5 270.5t285.5 102.5t285.5 -102.5t108.5 -270.5t-108.5 -270.5t-285.5 -102.5t-285.5 102.5t-108.5 270.5zM286 272q0 -53 44 -82.5t122 -29.5q79 0 122.5 29.5t43.5 82.5q0 41 -27.5 68t-69.5 29v2q40 6 64 30t24 62q0 52 -43 77.5t-114 25.5
q-70 0 -113.5 -25.5t-43.5 -76.5q0 -39 24 -63t65 -30v-2q-42 -2 -70 -29t-28 -68zM343 458q0 36 29.5 53.5t78.5 17.5q109 0 109 -71t-109 -71q-108 0 -108 71zM336 277q0 75 115 75q117 0 117 -75q0 -38 -30.5 -58.5t-86.5 -20.5q-115 0 -115 79z" />
    <glyph glyph-name="uni277E" unicode="&#x277e;" 
d="M451 -10q-177 0 -285.5 102.5t-108.5 270.5t108.5 270.5t285.5 102.5t285.5 -102.5t108.5 -270.5t-108.5 -270.5t-285.5 -102.5zM444 161q176 0 176 215q0 190 -172 190q-75 0 -119.5 -35.5t-44.5 -98.5q0 -59 40.5 -92.5t112.5 -33.5q47 0 83 19t49 56h4
q2 -92 -27.5 -137t-101.5 -45q-43 0 -71 16.5t-35 47.5h-46q6 -48 47.5 -75t104.5 -27zM445 341q-52 0 -82.5 23.5t-30.5 69.5q0 43 29.5 69t85.5 26q52 0 83.5 -24.5t31.5 -67.5q0 -44 -31 -70t-86 -26z" />
    <glyph glyph-name="uni2780" unicode="&#x2780;" 
d="M451 -10q-177 0 -285.5 102.5t-108.5 270.5t108.5 270.5t285.5 102.5t285 -102.5t108 -270.5t-108 -270.5t-285 -102.5zM451 29q158 0 254.5 92t96.5 242t-96.5 242t-254.5 92q-157 0 -254 -92t-97 -242t97 -242t254 -92zM455 165v296h-95v36h18q73 0 79 65h47v-397h-49z
" />
    <glyph glyph-name="uni2781" unicode="&#x2781;" 
d="M451 -10q-177 0 -285.5 102.5t-108.5 270.5t108.5 270.5t285.5 102.5t285 -102.5t108 -270.5t-108 -270.5t-285 -102.5zM451 29q158 0 254.5 92t96.5 242t-96.5 242t-254.5 92q-157 0 -254 -92t-97 -242t97 -242t254 -92zM299 163v12q0 40 26 71.5t63 51.5t73.5 39.5
t62.5 46.5t26 61q0 39 -27 60.5t-70 21.5q-48 0 -76.5 -24.5t-29.5 -65.5h-46q1 61 42.5 94t110.5 33q68 0 106.5 -32t38.5 -86q0 -39 -24 -70t-58.5 -51t-69 -38t-60.5 -39.5t-28 -47.5q17 1 94 1h151v-38h-305z" />
    <glyph glyph-name="uni2782" unicode="&#x2782;" 
d="M451 -10q-177 0 -285.5 102.5t-108.5 270.5t108.5 270.5t285.5 102.5t285 -102.5t108 -270.5t-108 -270.5t-285 -102.5zM451 29q158 0 254.5 92t96.5 242t-96.5 242t-254.5 92q-157 0 -254 -92t-97 -242t97 -242t254 -92zM449 160q-77 0 -119 34.5t-42 92.5h47
q1 -43 31.5 -66t82.5 -23q57 0 87 21.5t30 58.5q0 74 -103 74h-53v36h49q99 0 99 72q0 69 -106 69q-51 0 -80.5 -24t-30.5 -63h-45q-1 58 42.5 91t114.5 33q70 0 112.5 -25.5t42.5 -76.5q0 -37 -23 -61t-62 -31v-2q44 -4 68.5 -30t24.5 -65q0 -53 -44.5 -84t-122.5 -31z" />
    <glyph glyph-name="uni2783" unicode="&#x2783;" 
d="M57 363q0 168 108.5 270.5t285.5 102.5t285 -102.5t108 -270.5t-108 -270.5t-285 -102.5t-285.5 102.5t-108.5 270.5zM100 363q0 -150 97 -242t254 -92q158 0 254.5 92t96.5 242t-96.5 242t-254.5 92q-157 0 -254 -92t-97 -242zM261 265v37l223 260h64v-257h64v-40h-64
v-100h-48v100h-239zM313 305h187v214z" />
    <glyph glyph-name="uni2784" unicode="&#x2784;" 
d="M451 -10q-177 0 -285.5 102.5t-108.5 270.5t108.5 270.5t285.5 102.5t285 -102.5t108 -270.5t-108 -270.5t-285 -102.5zM451 29q158 0 254.5 92t96.5 242t-96.5 242t-254.5 92q-157 0 -254 -92t-97 -242t97 -242t254 -92zM447 162q-72 0 -115.5 34t-45.5 92h49
q0 -40 31.5 -64t81.5 -24q57 0 88 26t31 71q0 47 -30.5 71t-85.5 24q-81 0 -109 -49h-47l13 221h286v-39h-242l-9 -139l3 -1q37 44 115 44q75 0 115 -34.5t40 -96.5q0 -64 -46.5 -100t-122.5 -36z" />
    <glyph glyph-name="uni2785" unicode="&#x2785;" 
d="M451 -10q-177 0 -285.5 102.5t-108.5 270.5t108.5 270.5t285.5 102.5t285 -102.5t108 -270.5t-108 -270.5t-285 -102.5zM451 29q158 0 254.5 92t96.5 242t-96.5 242t-254.5 92q-157 0 -254 -92t-97 -242t97 -242t254 -92zM455 161q-171 0 -171 181q0 117 45 170.5
t134 53.5q64 0 104 -27.5t47 -74.5h-48q-5 31 -34 48t-71 17q-73 0 -101.5 -46t-29.5 -137h4q12 34 48.5 55t83.5 21q73 0 113.5 -34t40.5 -93q0 -63 -44.5 -98.5t-120.5 -35.5zM456 199q56 0 86 25.5t30 69.5q0 45 -31 69t-83 24q-53 0 -85.5 -27.5t-32.5 -68.5
q0 -45 32 -68.5t84 -23.5z" />
    <glyph glyph-name="uni2786" unicode="&#x2786;" 
d="M451 -10q-177 0 -285.5 102.5t-108.5 270.5t108.5 270.5t285.5 102.5t285 -102.5t108 -270.5t-108 -270.5t-285 -102.5zM451 29q158 0 254.5 92t96.5 242t-96.5 242t-254.5 92q-157 0 -254 -92t-97 -242t97 -242t254 -92zM411 165q0 199 140 357h-216v-82h-37v122h308
v-33q-79 -90 -113 -177t-34 -187h-48z" />
    <glyph glyph-name="uni2787" unicode="&#x2787;" 
d="M451 -10q-177 0 -285.5 102.5t-108.5 270.5t108.5 270.5t285.5 102.5t285 -102.5t108 -270.5t-108 -270.5t-285 -102.5zM451 29q158 0 254.5 92t96.5 242t-96.5 242t-254.5 92q-157 0 -254 -92t-97 -242t97 -242t254 -92zM452 160q-79 0 -122.5 29.5t-43.5 82.5
q0 41 28 68t70 29v2q-41 6 -65 30t-24 63q0 51 43.5 76.5t113.5 25.5q71 0 114 -25.5t43 -77.5q0 -37 -24 -61.5t-65 -30.5v-2q43 -2 70 -29t27 -68q0 -53 -43 -82.5t-122 -29.5zM451 387q109 0 109 71t-109 71t-109 -71t109 -71zM451 198q56 0 86.5 20.5t30.5 58.5
q0 75 -117 75q-116 0 -116 -75q0 -79 116 -79z" />
    <glyph glyph-name="uni2788" unicode="&#x2788;" 
d="M451 -10q-177 0 -285.5 102.5t-108.5 270.5t108.5 270.5t285.5 102.5t285 -102.5t108 -270.5t-108 -270.5t-285 -102.5zM451 29q158 0 254.5 92t96.5 242t-96.5 242t-254.5 92q-157 0 -254 -92t-97 -242t97 -242t254 -92zM444 161q-63 0 -104.5 27t-47.5 75h46
q6 -30 34.5 -47t71.5 -17q72 0 101.5 45t27.5 137h-4q-14 -37 -49.5 -56t-82.5 -19q-72 0 -112.5 33.5t-40.5 92.5q0 63 44.5 98.5t119.5 35.5q172 0 172 -190q0 -215 -176 -215zM445 341q55 0 86 26t31 70q0 43 -31.5 67.5t-83.5 24.5q-56 0 -85.5 -26t-29.5 -69
q0 -46 30 -69.5t83 -23.5z" />
    <glyph glyph-name="G.ss01" horiz-adv-x="882" 
d="M411 -8q-168 0 -270.5 101.5t-102.5 268.5q0 170 107 272t286 102q140 0 234.5 -60t117.5 -167h-67q-21 80 -96 125.5t-189 45.5q-153 0 -240 -86t-87 -231q0 -144 84.5 -230t228.5 -86q137 0 223 67.5t86 179.5v35h-333v52h400v-381h-53l-6 163h-7
q-29 -78 -115.5 -124.5t-200.5 -46.5z" />
    <glyph glyph-name="a.ss01" horiz-adv-x="605" 
d="M234 -8q-88 0 -142 39.5t-54 110.5q0 89 64 126t181 37h181v42q0 133 -171 133q-156 0 -174 -110h-62q9 77 71.5 118.5t165.5 41.5q110 0 171.5 -45t61.5 -134v-268q0 -45 35 -45q19 0 35 11v-45q-18 -12 -51 -12q-36 0 -56.5 19.5t-20.5 55.5v34h-4q-21 -50 -82 -79.5
t-149 -29.5zM251 40q98 0 155.5 36.5t57.5 106.5v79h-171q-93 0 -142 -25t-49 -89q0 -51 39 -79.5t110 -28.5z" />
    <glyph glyph-name="aacute.ss01" horiz-adv-x="605" 
d="M279 592l63 138h63l-82 -138h-44zM234 -8q-88 0 -142 39.5t-54 110.5q0 89 64 126t181 37h181v42q0 133 -171 133q-156 0 -174 -110h-62q9 77 71.5 118.5t165.5 41.5q110 0 171.5 -45t61.5 -134v-268q0 -45 35 -45q19 0 35 11v-45q-18 -12 -51 -12q-36 0 -56.5 19.5
t-20.5 55.5v34h-4q-21 -50 -82 -79.5t-149 -29.5zM251 40q98 0 155.5 36.5t57.5 106.5v79h-171q-93 0 -142 -25t-49 -89q0 -51 39 -79.5t110 -28.5z" />
    <glyph glyph-name="acircumflex.ss01" horiz-adv-x="605" 
d="M152 592l127 138h48l128 -138h-60l-92 100l-92 -100h-59zM234 -8q-88 0 -142 39.5t-54 110.5q0 89 64 126t181 37h181v42q0 133 -171 133q-156 0 -174 -110h-62q9 77 71.5 118.5t165.5 41.5q110 0 171.5 -45t61.5 -134v-268q0 -45 35 -45q19 0 35 11v-45q-18 -12 -51 -12
q-36 0 -56.5 19.5t-20.5 55.5v34h-4q-21 -50 -82 -79.5t-149 -29.5zM251 40q98 0 155.5 36.5t57.5 106.5v79h-171q-93 0 -142 -25t-49 -89q0 -51 39 -79.5t110 -28.5z" />
    <glyph glyph-name="adieresis.ss01" horiz-adv-x="605" 
d="M188 613v117h56v-117h-56zM360 613v117h58v-117h-58zM234 -8q-88 0 -142 39.5t-54 110.5q0 89 64 126t181 37h181v42q0 133 -171 133q-156 0 -174 -110h-62q9 77 71.5 118.5t165.5 41.5q110 0 171.5 -45t61.5 -134v-268q0 -45 35 -45q19 0 35 11v-45q-18 -12 -51 -12
q-36 0 -56.5 19.5t-20.5 55.5v34h-4q-21 -50 -82 -79.5t-149 -29.5zM251 40q98 0 155.5 36.5t57.5 106.5v79h-171q-93 0 -142 -25t-49 -89q0 -51 39 -79.5t110 -28.5z" />
    <glyph glyph-name="agrave.ss01" horiz-adv-x="605" 
d="M282 592l-81 138h63l63 -138h-45zM234 -8q-88 0 -142 39.5t-54 110.5q0 89 64 126t181 37h181v42q0 133 -171 133q-156 0 -174 -110h-62q9 77 71.5 118.5t165.5 41.5q110 0 171.5 -45t61.5 -134v-268q0 -45 35 -45q19 0 35 11v-45q-18 -12 -51 -12q-36 0 -56.5 19.5
t-20.5 55.5v34h-4q-21 -50 -82 -79.5t-149 -29.5zM251 40q98 0 155.5 36.5t57.5 106.5v79h-171q-93 0 -142 -25t-49 -89q0 -51 39 -79.5t110 -28.5z" />
    <glyph glyph-name="aring.ss01" horiz-adv-x="605" 
d="M303 588q-51 0 -82 28t-31 74t31.5 74t81.5 28t81.5 -28t31.5 -74q0 -47 -31.5 -74.5t-81.5 -27.5zM303 623q31 0 50 18.5t19 48.5q0 29 -19 47t-50 18t-50 -18t-19 -47q0 -30 19 -48.5t50 -18.5zM234 -8q-88 0 -142 39.5t-54 110.5q0 89 64 126t181 37h181v42
q0 133 -171 133q-156 0 -174 -110h-62q9 77 71.5 118.5t165.5 41.5q110 0 171.5 -45t61.5 -134v-268q0 -45 35 -45q19 0 35 11v-45q-18 -12 -51 -12q-36 0 -56.5 19.5t-20.5 55.5v34h-4q-21 -50 -82 -79.5t-149 -29.5zM251 40q98 0 155.5 36.5t57.5 106.5v79h-171
q-93 0 -142 -25t-49 -89q0 -51 39 -79.5t110 -28.5z" />
    <glyph glyph-name="atilde.ss01" horiz-adv-x="605" 
d="M360 617q-29 0 -66.5 14.5t-55.5 14.5q-33 0 -56 -30l-26 17q34 60 87 60q20 0 61 -15t62 -15q34 0 56 32l27 -18q-32 -60 -89 -60zM234 -8q-88 0 -142 39.5t-54 110.5q0 89 64 126t181 37h181v42q0 133 -171 133q-156 0 -174 -110h-62q9 77 71.5 118.5t165.5 41.5
q110 0 171.5 -45t61.5 -134v-268q0 -45 35 -45q19 0 35 11v-45q-18 -12 -51 -12q-36 0 -56.5 19.5t-20.5 55.5v34h-4q-21 -50 -82 -79.5t-149 -29.5zM251 40q98 0 155.5 36.5t57.5 106.5v79h-171q-93 0 -142 -25t-49 -89q0 -51 39 -79.5t110 -28.5z" />
    <glyph glyph-name="g.ss01" horiz-adv-x="632" 
d="M227 -168q-199 0 -199 121q0 44 31 74t83 40v4q-29 5 -48.5 25.5t-19.5 47.5q0 32 27.5 55.5t65.5 29.5v6q-78 43 -78 129q0 77 62.5 122t165.5 45q57 0 107 -16q20 55 68.5 83.5t113.5 23.5v-50q-49 5 -89 -14t-57 -57q87 -40 87 -142q0 -74 -62.5 -117.5t-165.5 -43.5
q-58 0 -108 16q-40 -3 -60.5 -19t-20.5 -40q0 -47 98 -47h191q172 0 172 -131q0 -72 -53 -108.5t-144 -36.5h-167zM319 244q76 0 121 30t45 86q0 61 -45.5 93t-121.5 32q-77 0 -122 -31.5t-45 -89.5t46 -89t122 -31zM233 -126h164q62 0 96 23.5t34 67.5q0 47 -30.5 65.5
t-90.5 18.5h-222q-46 -4 -72.5 -28t-26.5 -59q0 -50 38 -69t110 -19z" />
    <glyph glyph-name="zero.tf" horiz-adv-x="720" 
d="M363 -10q-143 0 -227 96t-84 274q0 179 83 274t227 95q141 0 224 -96t83 -273q0 -179 -83 -274.5t-223 -95.5zM118 360q0 -78 16 -133l441 307q-58 140 -213 140q-118 0 -181 -82t-63 -232zM363 45q115 0 178.5 83t63.5 232q0 71 -16 133l-441 -308q57 -140 215 -140z
" />
    <glyph glyph-name="one.tf" horiz-adv-x="720" 
d="M85 0v53h259v479h-207v48h29q85 0 129 38t49 103h63v-668h229v-53h-551z" />
    <glyph glyph-name="two.tf" horiz-adv-x="720" 
d="M83 0v19q0 54 26.5 98t68.5 74.5t93 58t102 53.5t93 55t68.5 69t26.5 89q0 78 -54.5 120t-147.5 42q-100 0 -156.5 -48t-57.5 -129h-61q1 109 76.5 169t201.5 60q123 0 193 -57.5t70 -152.5q0 -54 -25.5 -99.5t-66.5 -77.5t-90 -59.5t-99 -52.5t-91.5 -50.5t-68 -58.5
t-28.5 -72h482v-50h-555z" />
    <glyph glyph-name="three.tf" horiz-adv-x="720" 
d="M354 -8q-139 0 -215 62t-76 167h62q0 -87 61.5 -133t168.5 -46q116 0 176.5 42.5t60.5 116.5q0 148 -207 148h-98v48h87q105 0 154.5 38t49.5 105q0 71 -58.5 105t-158.5 34t-162 -47.5t-62 -128.5h-60q-3 103 77 164.5t207 61.5q129 0 205 -46t76 -138q0 -68 -44 -112
t-116 -56v-5q81 -8 128 -53.5t47 -121.5q0 -96 -81 -150.5t-222 -54.5z" />
    <glyph glyph-name="four.tf" horiz-adv-x="720" 
d="M495 0v189h-455v52l428 480h90v-480h123v-52h-123v-189h-63zM110 241h385v429z" />
    <glyph glyph-name="five.tf" horiz-adv-x="720" 
d="M352 -8q-132 0 -211.5 62.5t-79.5 165.5h61q0 -80 63.5 -128.5t167.5 -48.5q118 0 180 51.5t62 139.5q0 94 -61.5 142.5t-175.5 48.5q-77 0 -134.5 -26t-85.5 -70h-62l22 392h523v-51h-465l-16 -281l4 -1q32 39 93.5 62.5t132.5 23.5q141 0 215.5 -63.5t74.5 -174.5
q0 -115 -84 -179.5t-224 -64.5z" />
    <glyph glyph-name="six.tf" horiz-adv-x="720" 
d="M367 -8q-163 0 -237.5 83t-74.5 240q0 216 80 315t245 99q116 0 189.5 -50t83.5 -132h-62q-10 63 -67 97t-145 34q-64 0 -111 -18t-75.5 -48.5t-45.5 -79t-23 -100t-7 -120.5h4q23 69 94 110.5t166 41.5q133 0 209 -61t76 -170q0 -113 -81.5 -177t-217.5 -64zM369 43
q113 0 172.5 51t59.5 139q0 89 -61.5 136t-167.5 47q-108 0 -173 -54t-65 -136q0 -89 63.5 -136t171.5 -47z" />
    <glyph glyph-name="seven.tf" horiz-adv-x="720" 
d="M293 0q0 189 71 353t216 316h-459v-158h-52v210h583v-43q-161 -170 -228 -333.5t-67 -344.5h-64z" />
    <glyph glyph-name="eight.tf" horiz-adv-x="720" 
d="M360 -8q-142 0 -221.5 52t-79.5 148q0 78 53 126t134 53v4q-80 11 -125.5 54.5t-45.5 114.5q0 94 78.5 139.5t206.5 45.5t206.5 -46t78.5 -139q0 -71 -45.5 -114.5t-125.5 -54.5v-4q81 -4 134 -52.5t53 -126.5q0 -96 -79.5 -148t-221.5 -52zM360 396q222 0 222 140
q0 72 -60 107t-162 35q-103 0 -162.5 -34.5t-59.5 -107.5q0 -140 222 -140zM360 43q116 0 176 40t60 116q0 148 -236 148t-236 -148q0 -76 60 -116t176 -40z" />
    <glyph glyph-name="nine.tf" horiz-adv-x="720" 
d="M346 -8q-115 0 -189.5 49t-84.5 133h62q9 -62 66 -96.5t145 -34.5q148 0 205 90.5t54 275.5h-5q-24 -74 -92.5 -113t-166.5 -39q-133 0 -209 61.5t-76 169.5q0 113 81 177t216 64q164 0 239 -87t75 -256q0 -206 -80 -300t-240 -94zM349 305q112 0 174.5 52t62.5 138
t-63.5 134.5t-170.5 48.5q-114 0 -173 -51t-59 -139q0 -89 61.5 -136t167.5 -47z" />
    <glyph glyph-name="zero.tf.ss03" horiz-adv-x="720" 
d="M363 -10q-143 0 -227 96t-84 274q0 179 83 274t227 95q141 0 224 -96t83 -273q0 -179 -83 -274.5t-223 -95.5zM362 674q-114 0 -176.5 -76t-67.5 -216h486q-5 140 -67.5 216t-174.5 76zM363 45q111 0 173.5 77t67.5 215h-486q5 -141 68 -216.5t177 -75.5z" />
    <glyph glyph-name="zero.dnom" horiz-adv-x="413" 
d="M208 -5q-82 0 -131.5 52t-49.5 149t49 149.5t131 52.5t130.5 -52.5t48.5 -149.5q0 -96 -48.5 -148.5t-129.5 -52.5zM207 35q62 0 96.5 41.5t34.5 119.5q0 79 -34 120.5t-97 41.5q-62 0 -96.5 -41.5t-34.5 -120.5q0 -78 34 -119.5t97 -41.5z" />
    <glyph glyph-name="one.dnom" horiz-adv-x="191" 
d="M104 0v293h-92v36h18q69 0 76 65h47v-394h-49z" />
    <glyph glyph-name="two.dnom" horiz-adv-x="340" 
d="M24 0v12q0 40 25 71t60 51t70.5 39t60.5 45.5t25 60.5q0 39 -26 60t-68 21q-46 0 -72.5 -24.5t-27.5 -64.5h-46q2 61 41.5 94t106.5 33t104 -31.5t37 -84.5q0 -39 -23 -70t-56 -51t-66.5 -37.5t-58.5 -39.5t-27 -48q36 2 90 2h146v-38h-295z" />
    <glyph glyph-name="three.dnom" horiz-adv-x="359" 
d="M178 -5q-74 0 -114 34t-41 93h48q0 -44 29 -67t79 -23q55 0 83.5 21.5t28.5 58.5q0 74 -99 74h-51v34h47q96 0 96 72q0 35 -27.5 52t-74.5 17q-48 0 -76.5 -23t-29.5 -65h-46q0 58 42.5 91.5t110.5 33.5q69 0 109.5 -25.5t40.5 -76.5q0 -36 -22 -59.5t-59 -31.5v-2
q40 -4 64 -28.5t24 -66.5q0 -52 -43 -82.5t-119 -30.5z" />
    <glyph glyph-name="four.dnom" horiz-adv-x="367" 
d="M246 0v99h-229v36l214 259h64v-256h61l-1 -39h-60v-99h-49zM68 138h178v214z" />
    <glyph glyph-name="five.dnom" horiz-adv-x="366" 
d="M182 -5q-71 0 -112 34.5t-43 90.5h47q1 -40 30.5 -63.5t77.5 -23.5q56 0 85.5 25.5t29.5 70.5q0 47 -29.5 71t-82.5 24q-75 0 -105 -49h-45l12 219h278v-39h-234l-9 -138l4 -1q15 20 45.5 32t64.5 12q71 0 110.5 -35t39.5 -96q0 -63 -45 -98.5t-119 -35.5z" />
    <glyph glyph-name="six.dnom" horiz-adv-x="378" 
d="M194 -4q-167 0 -167 179q0 223 173 223q64 0 102.5 -28t44.5 -74h-47q-6 31 -32.5 47.5t-67.5 16.5q-71 0 -98 -45.5t-28 -134.5l4 -1q11 34 46 54.5t82 20.5q69 0 108.5 -33.5t39.5 -92.5q0 -62 -44 -97t-116 -35zM195 33q53 0 81 25.5t28 69.5q0 45 -28.5 68.5
t-79.5 23.5t-81 -27t-30 -69q0 -44 29.5 -67.5t80.5 -23.5z" />
    <glyph glyph-name="seven.dnom" horiz-adv-x="320" 
d="M119 0q0 194 136 354h-207v-82h-37v122h298v-33q-76 -90 -108.5 -176t-32.5 -185h-49z" />
    <glyph glyph-name="eight.dnom" horiz-adv-x="356" 
d="M178 -5q-76 0 -118.5 29t-42.5 82q0 41 27 67.5t68 28.5v2q-40 6 -63 30t-23 62q0 52 41.5 77t110.5 25q68 0 110 -25.5t42 -76.5q0 -38 -22.5 -62t-62.5 -30v-2q41 -2 67.5 -28.5t26.5 -67.5q0 -53 -42.5 -82t-118.5 -29zM178 219q104 0 104 71t-104 71t-104 -71
t104 -71zM178 32q111 0 111 79q0 74 -111 74t-111 -74q0 -79 111 -79z" />
    <glyph glyph-name="nine.dnom" horiz-adv-x="378" 
d="M180 -4q-61 0 -101.5 26.5t-47.5 75.5h48q12 -64 101 -64q69 0 96.5 44.5t25.5 136.5h-3q-12 -37 -46 -56.5t-81 -19.5q-69 0 -108.5 33.5t-39.5 92.5q0 63 43.5 98t115.5 35q168 0 168 -189q0 -213 -171 -213zM181 174q53 0 82.5 26t29.5 69t-30 67t-81 24
q-53 0 -81.5 -25.5t-28.5 -68.5q0 -45 29.5 -68.5t79.5 -23.5z" />
    <glyph glyph-name="zero.numr" horiz-adv-x="413" 
d="M208 322q-82 0 -131.5 52.5t-49.5 149.5q0 96 49 148.5t131 52.5t130.5 -52.5t48.5 -148.5q0 -97 -48.5 -149.5t-129.5 -52.5zM207 362q62 0 96.5 42t34.5 120t-34 119.5t-97 41.5q-62 0 -96.5 -41.5t-34.5 -119.5t34 -120t97 -42z" />
    <glyph glyph-name="one.numr" horiz-adv-x="191" 
d="M104 327v293h-92v36h18q69 0 76 65h47v-394h-49z" />
    <glyph glyph-name="two.numr" horiz-adv-x="340" 
d="M24 327v12q0 40 25 71t60 51t70.5 39t60.5 46t25 61q0 38 -26 59t-68 21q-46 0 -72.5 -24.5t-27.5 -64.5h-46q2 61 41.5 94t106.5 33t104 -31.5t37 -84.5q0 -39 -23 -70t-56 -50.5t-66.5 -37t-58.5 -39.5t-27 -48q7 0 38.5 0.5t51.5 0.5h146v-38h-295z" />
    <glyph glyph-name="three.numr" horiz-adv-x="359" 
d="M178 322q-74 0 -114 34t-41 93h48q0 -44 29 -67t79 -23q55 0 83.5 21.5t28.5 58.5q0 74 -99 74h-51v35h47q96 0 96 71q0 69 -102 69q-48 0 -76.5 -23t-29.5 -65h-46q0 58 42.5 91.5t110.5 33.5q69 0 109.5 -25.5t40.5 -75.5q0 -37 -22 -60.5t-59 -31.5v-2q40 -4 64 -28.5
t24 -66.5q0 -52 -43 -82.5t-119 -30.5z" />
    <glyph glyph-name="four.numr" horiz-adv-x="367" 
d="M246 327v100h-229v36l214 258h64v-256h61l-1 -38h-60v-100h-49zM68 465h178v214z" />
    <glyph glyph-name="five.numr" horiz-adv-x="366" 
d="M182 322q-71 0 -112 34.5t-43 90.5h47q1 -40 30.5 -63.5t77.5 -23.5q56 0 85.5 26t29.5 70q0 47 -29.5 71t-82.5 24q-75 0 -105 -49h-45l12 219h278v-39h-234l-9 -138l4 -1q15 20 45.5 32t64.5 12q71 0 110.5 -34.5t39.5 -95.5q0 -64 -45 -99.5t-119 -35.5z" />
    <glyph glyph-name="six.numr" horiz-adv-x="378" 
d="M194 323q-167 0 -167 179q0 223 173 223q64 0 102.5 -28t44.5 -74h-47q-6 31 -32.5 47.5t-67.5 16.5q-71 0 -98 -45.5t-28 -134.5h4q11 33 46 53.5t82 20.5q69 0 108.5 -33.5t39.5 -92.5q0 -62 -44 -97t-116 -35zM195 361q53 0 81 25.5t28 68.5q0 45 -28.5 68.5
t-79.5 23.5t-81 -27t-30 -68q0 -45 29.5 -68t80.5 -23z" />
    <glyph glyph-name="seven.numr" horiz-adv-x="320" 
d="M119 327q0 194 136 355h-207v-82h-37v121h298v-33q-76 -90 -108.5 -176t-32.5 -185h-49z" />
    <glyph glyph-name="eight.numr" horiz-adv-x="356" 
d="M178 322q-76 0 -118.5 29t-42.5 82q0 41 27 67.5t68 28.5v3q-40 5 -63 29t-23 62q0 52 41.5 77t110.5 25q68 0 110 -25.5t42 -76.5q0 -38 -22.5 -61.5t-62.5 -29.5v-3q41 -2 67.5 -28.5t26.5 -67.5q0 -53 -42.5 -82t-118.5 -29zM178 546q104 0 104 71t-104 71t-104 -71
t104 -71zM178 359q111 0 111 79q0 74 -111 74t-111 -74q0 -79 111 -79z" />
    <glyph glyph-name="nine.numr" horiz-adv-x="378" 
d="M180 323q-61 0 -101.5 26.5t-47.5 75.5h48q12 -64 101 -64q69 0 96.5 44.5t25.5 136.5h-3q-12 -37 -46 -56.5t-81 -19.5q-69 0 -108.5 33.5t-39.5 92.5q0 63 43.5 98t115.5 35q168 0 168 -189q0 -213 -171 -213zM181 501q52 0 82 26.5t30 69.5t-30.5 67t-80.5 24
q-53 0 -81.5 -26t-28.5 -69q0 -45 29.5 -68.5t79.5 -23.5z" />
    <glyph glyph-name="parenleft.case" horiz-adv-x="288" 
d="M220 -63q-77 70 -121 185.5t-44 242.5t44 242.5t121 185.5h56q-75 -70 -117.5 -186t-42.5 -242q0 -129 44 -244t116 -184h-56z" />
    <glyph glyph-name="parenright.case" horiz-adv-x="288" 
d="M12 -63q72 69 116 184t44 244q0 126 -42.5 242t-117.5 186h56q77 -70 121 -185.5t44 -242.5t-44 -242.5t-121 -185.5h-56z" />
    <glyph glyph-name="braceleft.case" horiz-adv-x="408" 
d="M207 -63q-27 0 -41 15.5t-14 40.5v261q0 39 -18.5 61.5t-44.5 22.5h-40v55h40q26 0 44.5 23t18.5 62v259q0 25 14 40.5t41 15.5h180v-48h-177v-269q0 -47 -21.5 -76t-51.5 -31v-4q32 -5 52.5 -35t20.5 -75v-270h177v-48h-180z" />
    <glyph glyph-name="braceright.case" horiz-adv-x="407" 
d="M21 -63v48h177v270q0 45 20.5 75t52.5 35v4q-30 2 -51.5 31t-21.5 76v269h-177v48h180q27 0 41 -15.5t14 -40.5v-259q0 -39 18.5 -62t44.5 -23h39v-55h-39q-26 0 -44.5 -22.5t-18.5 -61.5v-261q0 -25 -14 -40.5t-41 -15.5h-180z" />
    <glyph glyph-name="bracketleft.case" horiz-adv-x="333" 
d="M69 -63v856h243v-49h-185v-758h185v-49h-243z" />
    <glyph glyph-name="bracketright.case" horiz-adv-x="333" 
d="M21 -63v49h185v758h-185v49h243v-856h-243z" />
    <glyph glyph-name="a.ss01.BRACKET.varAlt01" horiz-adv-x="580" 
d="M229 -8q-88 0 -142 39.5t-54 110.5q0 89 64 126t181 37h181v42q0 133 -171 133q-158 0 -174 -110h-62q8 77 71 118.5t166 41.5q110 0 171.5 -45t61.5 -134v-254q0 -69 13 -97h-60q-11 22 -11 101h-4q-21 -50 -82 -79.5t-149 -29.5zM246 40q98 0 155.5 36.5t57.5 106.5v79
h-171q-94 0 -142.5 -25t-48.5 -89q0 -51 39 -79.5t110 -28.5z" />
    <glyph glyph-name="aacute.ss01.BRACKET.varAlt01" horiz-adv-x="605" 
d="M279 592l63 138h63l-82 -138h-44zM229 -8q-88 0 -142 39.5t-54 110.5q0 89 64 126t181 37h181v42q0 133 -171 133q-158 0 -174 -110h-62q8 77 71 118.5t166 41.5q110 0 171.5 -45t61.5 -134v-254q0 -69 13 -97h-60q-11 22 -11 101h-4q-21 -50 -82 -79.5t-149 -29.5z
M246 40q98 0 155.5 36.5t57.5 106.5v79h-171q-94 0 -142.5 -25t-48.5 -89q0 -51 39 -79.5t110 -28.5z" />
    <glyph glyph-name="acircumflex.ss01.BRACKET.varAlt01" horiz-adv-x="605" 
d="M152 592l127 138h48l128 -138h-60l-92 100l-92 -100h-59zM229 -8q-88 0 -142 39.5t-54 110.5q0 89 64 126t181 37h181v42q0 133 -171 133q-158 0 -174 -110h-62q8 77 71 118.5t166 41.5q110 0 171.5 -45t61.5 -134v-254q0 -69 13 -97h-60q-11 22 -11 101h-4
q-21 -50 -82 -79.5t-149 -29.5zM246 40q98 0 155.5 36.5t57.5 106.5v79h-171q-94 0 -142.5 -25t-48.5 -89q0 -51 39 -79.5t110 -28.5z" />
    <glyph glyph-name="adieresis.ss01.BRACKET.varAlt01" horiz-adv-x="605" 
d="M188 613v117h56v-117h-56zM360 613v117h58v-117h-58zM229 -8q-88 0 -142 39.5t-54 110.5q0 89 64 126t181 37h181v42q0 133 -171 133q-158 0 -174 -110h-62q8 77 71 118.5t166 41.5q110 0 171.5 -45t61.5 -134v-254q0 -69 13 -97h-60q-11 22 -11 101h-4
q-21 -50 -82 -79.5t-149 -29.5zM246 40q98 0 155.5 36.5t57.5 106.5v79h-171q-94 0 -142.5 -25t-48.5 -89q0 -51 39 -79.5t110 -28.5z" />
    <glyph glyph-name="agrave.ss01.BRACKET.varAlt01" horiz-adv-x="605" 
d="M282 592l-81 138h63l63 -138h-45zM229 -8q-88 0 -142 39.5t-54 110.5q0 89 64 126t181 37h181v42q0 133 -171 133q-158 0 -174 -110h-62q8 77 71 118.5t166 41.5q110 0 171.5 -45t61.5 -134v-254q0 -69 13 -97h-60q-11 22 -11 101h-4q-21 -50 -82 -79.5t-149 -29.5z
M246 40q98 0 155.5 36.5t57.5 106.5v79h-171q-94 0 -142.5 -25t-48.5 -89q0 -51 39 -79.5t110 -28.5z" />
    <glyph glyph-name="aring.ss01.BRACKET.varAlt01" horiz-adv-x="605" 
d="M303 588q-51 0 -82 28t-31 74t31.5 74t81.5 28t81.5 -28t31.5 -74q0 -47 -31.5 -74.5t-81.5 -27.5zM303 623q31 0 50 18.5t19 48.5q0 29 -19 47t-50 18t-50 -18t-19 -47q0 -30 19 -48.5t50 -18.5zM229 -8q-88 0 -142 39.5t-54 110.5q0 89 64 126t181 37h181v42
q0 133 -171 133q-158 0 -174 -110h-62q8 77 71 118.5t166 41.5q110 0 171.5 -45t61.5 -134v-254q0 -69 13 -97h-60q-11 22 -11 101h-4q-21 -50 -82 -79.5t-149 -29.5zM246 40q98 0 155.5 36.5t57.5 106.5v79h-171q-94 0 -142.5 -25t-48.5 -89q0 -51 39 -79.5t110 -28.5z" />
    <glyph glyph-name="atilde.ss01.BRACKET.varAlt01" horiz-adv-x="605" 
d="M360 617q-29 0 -66.5 14.5t-55.5 14.5q-33 0 -56 -30l-26 17q34 60 87 60q20 0 61 -15t62 -15q34 0 56 32l27 -18q-32 -60 -89 -60zM229 -8q-88 0 -142 39.5t-54 110.5q0 89 64 126t181 37h181v42q0 133 -171 133q-158 0 -174 -110h-62q8 77 71 118.5t166 41.5
q110 0 171.5 -45t61.5 -134v-254q0 -69 13 -97h-60q-11 22 -11 101h-4q-21 -50 -82 -79.5t-149 -29.5zM246 40q98 0 155.5 36.5t57.5 106.5v79h-171q-94 0 -142.5 -25t-48.5 -89q0 -51 39 -79.5t110 -28.5z" />
    <glyph glyph-name="cent.BRACKET.varAlt01" horiz-adv-x="636" 
d="M295 -85v78q-119 8 -188 79t-69 188q0 113 70.5 185.5t186.5 82.5v77h49v-76q103 -4 172 -52.5t80 -125.5h-64q-18 61 -72 92.5t-132 31.5q-103 0 -164.5 -59t-61.5 -157t59 -156t164 -58q80 0 138.5 37.5t72.5 96.5h65q-13 -79 -85 -130.5t-172 -56.5v-77h-49z" />
    <glyph glyph-name="dollar.BRACKET.varAlt01" horiz-adv-x="670" 
d="M310 -85v77q-138 6 -205.5 67.5t-71.5 166.5h68q8 -183 236 -183q231 0 231 148q0 35 -12 60.5t-29 41t-51.5 27t-63.5 17t-81 12.5q-57 8 -91.5 14.5t-74.5 20.5t-62 33.5t-37 51t-15 74.5q0 88 70 138.5t189 55.5v77h48v-78q118 -6 182.5 -61.5t68.5 -147.5h-67
q-4 79 -60 119t-155 40q-102 0 -155 -37t-53 -101q0 -31 11 -53.5t26.5 -36t49.5 -24t61 -15.5t80 -12q58 -8 92 -14.5t77 -22t66 -36.5t39 -56.5t16 -83.5q0 -93 -74.5 -145t-204.5 -57v-77h-48z" />
    </font>
</defs>
</svg>
